G04 #@! TF.GenerationSoftware,KiCad,Pcbnew,5.1.9+dfsg1-1~bpo10+1*
G04 #@! TF.CreationDate,2021-09-26T18:57:07+00:00*
G04 #@! TF.ProjectId,ws2813-breakout,77733238-3133-42d6-9272-65616b6f7574,rev?*
G04 #@! TF.SameCoordinates,Original*
G04 #@! TF.FileFunction,Copper,L2,Bot*
G04 #@! TF.FilePolarity,Positive*
%FSLAX46Y46*%
G04 Gerber Fmt 4.6, Leading zero omitted, Abs format (unit mm)*
G04 Created by KiCad (PCBNEW 5.1.9+dfsg1-1~bpo10+1) date 2021-09-26 18:57:07*
%MOMM*%
%LPD*%
G01*
G04 APERTURE LIST*
G04 #@! TA.AperFunction,ComponentPad*
%ADD10R,1.700000X1.700000*%
G04 #@! TD*
G04 #@! TA.AperFunction,ComponentPad*
%ADD11O,1.700000X1.700000*%
G04 #@! TD*
G04 #@! TA.AperFunction,ComponentPad*
%ADD12C,5.500000*%
G04 #@! TD*
G04 #@! TA.AperFunction,ViaPad*
%ADD13C,0.800000*%
G04 #@! TD*
G04 #@! TA.AperFunction,Conductor*
%ADD14C,0.500000*%
G04 #@! TD*
G04 #@! TA.AperFunction,Conductor*
%ADD15C,0.254000*%
G04 #@! TD*
G04 #@! TA.AperFunction,Conductor*
%ADD16C,0.100000*%
G04 #@! TD*
G04 APERTURE END LIST*
D10*
X105500000Y-120000000D03*
D11*
X105500000Y-122540000D03*
X105500000Y-125080000D03*
X105500000Y-127620000D03*
X105500000Y-130160000D03*
X105500000Y-132700000D03*
D12*
X105000000Y-145000000D03*
X145000000Y-145000000D03*
X145000000Y-105000000D03*
X105000000Y-105000000D03*
D13*
X115750000Y-135000000D03*
X135750000Y-135000000D03*
X135750000Y-115000000D03*
X115750000Y-115000000D03*
X115750000Y-113500000D03*
X119000000Y-116500000D03*
X122500000Y-112250000D03*
X136000000Y-113500000D03*
X126250000Y-132000000D03*
X131021040Y-117271040D03*
X115750000Y-133250000D03*
X137500000Y-112000000D03*
X122500000Y-132250000D03*
X135750000Y-133500000D03*
X134000000Y-136500000D03*
D14*
X104199999Y-126319999D02*
X105500000Y-127620000D01*
X104199999Y-118789999D02*
X104199999Y-126319999D01*
X109489998Y-113500000D02*
X104199999Y-118789999D01*
X115750000Y-113500000D02*
X109489998Y-113500000D01*
X112960000Y-122540000D02*
X119000000Y-116500000D01*
X105500000Y-122540000D02*
X112960000Y-122540000D01*
X123750000Y-113500000D02*
X136000000Y-113500000D01*
X122500000Y-112250000D02*
X123750000Y-113500000D01*
X131021040Y-127228960D02*
X131021040Y-117271040D01*
X126250000Y-132000000D02*
X131021040Y-127228960D01*
X137500000Y-114508002D02*
X137500000Y-112000000D01*
X136158001Y-115850001D02*
X137500000Y-114508002D01*
X131184077Y-115850001D02*
X136158001Y-115850001D01*
X115750000Y-131284078D02*
X131184077Y-115850001D01*
X115750000Y-133250000D02*
X115750000Y-131284078D01*
X123750000Y-133500000D02*
X135750000Y-133500000D01*
X122500000Y-132250000D02*
X123750000Y-133500000D01*
X106800001Y-126380001D02*
X105500000Y-125080000D01*
X115991998Y-136500000D02*
X106800001Y-127308003D01*
X106800001Y-127308003D02*
X106800001Y-126380001D01*
X134000000Y-136500000D02*
X115991998Y-136500000D01*
D15*
X149340001Y-149340000D02*
X100660000Y-149340000D01*
X100660000Y-118789999D01*
X103310718Y-118789999D01*
X103314999Y-118833468D01*
X103315000Y-126276520D01*
X103310718Y-126319999D01*
X103327804Y-126493489D01*
X103378411Y-126660312D01*
X103460589Y-126814058D01*
X103543467Y-126915045D01*
X103543470Y-126915048D01*
X103571183Y-126948816D01*
X103604950Y-126976528D01*
X104029461Y-127401039D01*
X104015000Y-127473740D01*
X104015000Y-127766260D01*
X104072068Y-128053158D01*
X104184010Y-128323411D01*
X104346525Y-128566632D01*
X104553368Y-128773475D01*
X104727760Y-128890000D01*
X104553368Y-129006525D01*
X104346525Y-129213368D01*
X104184010Y-129456589D01*
X104072068Y-129726842D01*
X104015000Y-130013740D01*
X104015000Y-130306260D01*
X104072068Y-130593158D01*
X104184010Y-130863411D01*
X104346525Y-131106632D01*
X104553368Y-131313475D01*
X104796589Y-131475990D01*
X105066842Y-131587932D01*
X105353740Y-131645000D01*
X105646260Y-131645000D01*
X105933158Y-131587932D01*
X106203411Y-131475990D01*
X106446632Y-131313475D01*
X106653475Y-131106632D01*
X106815990Y-130863411D01*
X106927932Y-130593158D01*
X106985000Y-130306260D01*
X106985000Y-130013740D01*
X106927932Y-129726842D01*
X106815990Y-129456589D01*
X106653475Y-129213368D01*
X106446632Y-129006525D01*
X106272240Y-128890000D01*
X106446632Y-128773475D01*
X106653475Y-128566632D01*
X106714989Y-128474569D01*
X115335468Y-137095049D01*
X115363181Y-137128817D01*
X115396949Y-137156530D01*
X115396951Y-137156532D01*
X115497939Y-137239411D01*
X115651685Y-137321589D01*
X115818508Y-137372195D01*
X115948521Y-137385000D01*
X115948529Y-137385000D01*
X115991998Y-137389281D01*
X116035467Y-137385000D01*
X133461546Y-137385000D01*
X133509744Y-137417205D01*
X133698102Y-137495226D01*
X133898061Y-137535000D01*
X134101939Y-137535000D01*
X134301898Y-137495226D01*
X134490256Y-137417205D01*
X134659774Y-137303937D01*
X134803937Y-137159774D01*
X134917205Y-136990256D01*
X134995226Y-136801898D01*
X135035000Y-136601939D01*
X135035000Y-136398061D01*
X134995226Y-136198102D01*
X134917205Y-136009744D01*
X134803937Y-135840226D01*
X134659774Y-135696063D01*
X134490256Y-135582795D01*
X134301898Y-135504774D01*
X134101939Y-135465000D01*
X133898061Y-135465000D01*
X133698102Y-135504774D01*
X133509744Y-135582795D01*
X133461546Y-135615000D01*
X116358577Y-135615000D01*
X113891638Y-133148061D01*
X114715000Y-133148061D01*
X114715000Y-133351939D01*
X114754774Y-133551898D01*
X114832795Y-133740256D01*
X114946063Y-133909774D01*
X115090226Y-134053937D01*
X115259744Y-134167205D01*
X115448102Y-134245226D01*
X115648061Y-134285000D01*
X115851939Y-134285000D01*
X116051898Y-134245226D01*
X116240256Y-134167205D01*
X116409774Y-134053937D01*
X116553937Y-133909774D01*
X116667205Y-133740256D01*
X116745226Y-133551898D01*
X116785000Y-133351939D01*
X116785000Y-133148061D01*
X116745226Y-132948102D01*
X116667205Y-132759744D01*
X116635000Y-132711546D01*
X116635000Y-131650656D01*
X130136041Y-118149616D01*
X130136040Y-126862381D01*
X126004957Y-130993465D01*
X125948102Y-131004774D01*
X125759744Y-131082795D01*
X125590226Y-131196063D01*
X125446063Y-131340226D01*
X125332795Y-131509744D01*
X125254774Y-131698102D01*
X125215000Y-131898061D01*
X125215000Y-132101939D01*
X125254774Y-132301898D01*
X125332795Y-132490256D01*
X125416146Y-132615000D01*
X124116579Y-132615000D01*
X123506535Y-132004957D01*
X123495226Y-131948102D01*
X123417205Y-131759744D01*
X123303937Y-131590226D01*
X123159774Y-131446063D01*
X122990256Y-131332795D01*
X122801898Y-131254774D01*
X122601939Y-131215000D01*
X122398061Y-131215000D01*
X122198102Y-131254774D01*
X122009744Y-131332795D01*
X121840226Y-131446063D01*
X121696063Y-131590226D01*
X121582795Y-131759744D01*
X121504774Y-131948102D01*
X121465000Y-132148061D01*
X121465000Y-132351939D01*
X121504774Y-132551898D01*
X121582795Y-132740256D01*
X121696063Y-132909774D01*
X121840226Y-133053937D01*
X122009744Y-133167205D01*
X122198102Y-133245226D01*
X122254957Y-133256535D01*
X123093470Y-134095049D01*
X123121183Y-134128817D01*
X123154951Y-134156530D01*
X123154953Y-134156532D01*
X123226452Y-134215210D01*
X123255941Y-134239411D01*
X123409687Y-134321589D01*
X123525903Y-134356843D01*
X123576509Y-134372195D01*
X123591306Y-134373652D01*
X123706523Y-134385000D01*
X123706531Y-134385000D01*
X123750000Y-134389281D01*
X123793469Y-134385000D01*
X135211546Y-134385000D01*
X135259744Y-134417205D01*
X135448102Y-134495226D01*
X135648061Y-134535000D01*
X135851939Y-134535000D01*
X136051898Y-134495226D01*
X136240256Y-134417205D01*
X136409774Y-134303937D01*
X136553937Y-134159774D01*
X136667205Y-133990256D01*
X136745226Y-133801898D01*
X136785000Y-133601939D01*
X136785000Y-133398061D01*
X136745226Y-133198102D01*
X136667205Y-133009744D01*
X136553937Y-132840226D01*
X136409774Y-132696063D01*
X136240256Y-132582795D01*
X136051898Y-132504774D01*
X135851939Y-132465000D01*
X135648061Y-132465000D01*
X135448102Y-132504774D01*
X135259744Y-132582795D01*
X135211546Y-132615000D01*
X127083854Y-132615000D01*
X127167205Y-132490256D01*
X127245226Y-132301898D01*
X127256535Y-132245043D01*
X131616091Y-127885488D01*
X131649857Y-127857777D01*
X131695583Y-127802061D01*
X131760450Y-127723020D01*
X131760451Y-127723019D01*
X131842629Y-127569273D01*
X131893235Y-127402450D01*
X131906040Y-127272437D01*
X131906040Y-127272427D01*
X131910321Y-127228961D01*
X131906040Y-127185495D01*
X131906040Y-117809494D01*
X131938245Y-117761296D01*
X132016266Y-117572938D01*
X132056040Y-117372979D01*
X132056040Y-117169101D01*
X132016266Y-116969142D01*
X131938245Y-116780784D01*
X131907654Y-116735001D01*
X136114532Y-116735001D01*
X136158001Y-116739282D01*
X136201470Y-116735001D01*
X136201478Y-116735001D01*
X136331491Y-116722196D01*
X136498314Y-116671590D01*
X136652060Y-116589412D01*
X136786818Y-116478818D01*
X136814535Y-116445045D01*
X138095050Y-115164531D01*
X138128817Y-115136819D01*
X138239411Y-115002061D01*
X138321589Y-114848315D01*
X138372195Y-114681492D01*
X138385000Y-114551479D01*
X138385000Y-114551469D01*
X138389281Y-114508003D01*
X138385000Y-114464537D01*
X138385000Y-112538454D01*
X138417205Y-112490256D01*
X138495226Y-112301898D01*
X138535000Y-112101939D01*
X138535000Y-111898061D01*
X138495226Y-111698102D01*
X138417205Y-111509744D01*
X138303937Y-111340226D01*
X138159774Y-111196063D01*
X137990256Y-111082795D01*
X137801898Y-111004774D01*
X137601939Y-110965000D01*
X137398061Y-110965000D01*
X137198102Y-111004774D01*
X137009744Y-111082795D01*
X136840226Y-111196063D01*
X136696063Y-111340226D01*
X136582795Y-111509744D01*
X136504774Y-111698102D01*
X136465000Y-111898061D01*
X136465000Y-112101939D01*
X136504774Y-112301898D01*
X136582795Y-112490256D01*
X136615001Y-112538455D01*
X136615001Y-112666147D01*
X136490256Y-112582795D01*
X136301898Y-112504774D01*
X136101939Y-112465000D01*
X135898061Y-112465000D01*
X135698102Y-112504774D01*
X135509744Y-112582795D01*
X135461546Y-112615000D01*
X124116579Y-112615000D01*
X123506535Y-112004957D01*
X123495226Y-111948102D01*
X123417205Y-111759744D01*
X123303937Y-111590226D01*
X123159774Y-111446063D01*
X122990256Y-111332795D01*
X122801898Y-111254774D01*
X122601939Y-111215000D01*
X122398061Y-111215000D01*
X122198102Y-111254774D01*
X122009744Y-111332795D01*
X121840226Y-111446063D01*
X121696063Y-111590226D01*
X121582795Y-111759744D01*
X121504774Y-111948102D01*
X121465000Y-112148061D01*
X121465000Y-112351939D01*
X121504774Y-112551898D01*
X121582795Y-112740256D01*
X121696063Y-112909774D01*
X121840226Y-113053937D01*
X122009744Y-113167205D01*
X122198102Y-113245226D01*
X122254957Y-113256535D01*
X123093468Y-114095047D01*
X123121183Y-114128817D01*
X123154951Y-114156530D01*
X123154953Y-114156532D01*
X123168548Y-114167689D01*
X123255941Y-114239411D01*
X123409687Y-114321589D01*
X123525903Y-114356843D01*
X123576509Y-114372195D01*
X123591306Y-114373652D01*
X123706523Y-114385000D01*
X123706531Y-114385000D01*
X123750000Y-114389281D01*
X123793469Y-114385000D01*
X135461546Y-114385000D01*
X135509744Y-114417205D01*
X135698102Y-114495226D01*
X135898061Y-114535000D01*
X136101939Y-114535000D01*
X136251092Y-114505332D01*
X135791423Y-114965001D01*
X131227543Y-114965001D01*
X131184076Y-114960720D01*
X131140610Y-114965001D01*
X131140600Y-114965001D01*
X131010587Y-114977806D01*
X130843764Y-115028412D01*
X130690018Y-115110590D01*
X130690016Y-115110591D01*
X130690017Y-115110591D01*
X130589030Y-115193469D01*
X130589028Y-115193471D01*
X130555260Y-115221184D01*
X130527547Y-115254952D01*
X115154952Y-130627548D01*
X115121184Y-130655261D01*
X115093471Y-130689029D01*
X115093468Y-130689032D01*
X115010590Y-130790019D01*
X114928412Y-130943765D01*
X114877805Y-131110588D01*
X114860719Y-131284078D01*
X114865001Y-131327557D01*
X114865000Y-132711545D01*
X114832795Y-132759744D01*
X114754774Y-132948102D01*
X114715000Y-133148061D01*
X113891638Y-133148061D01*
X107685001Y-126941425D01*
X107685001Y-126423467D01*
X107689282Y-126380000D01*
X107685001Y-126336534D01*
X107685001Y-126336524D01*
X107672196Y-126206511D01*
X107621590Y-126039688D01*
X107539412Y-125885942D01*
X107428818Y-125751184D01*
X107395050Y-125723471D01*
X106970539Y-125298960D01*
X106985000Y-125226260D01*
X106985000Y-124933740D01*
X106927932Y-124646842D01*
X106815990Y-124376589D01*
X106653475Y-124133368D01*
X106446632Y-123926525D01*
X106272240Y-123810000D01*
X106446632Y-123693475D01*
X106653475Y-123486632D01*
X106694656Y-123425000D01*
X112916531Y-123425000D01*
X112960000Y-123429281D01*
X113003469Y-123425000D01*
X113003477Y-123425000D01*
X113133490Y-123412195D01*
X113300313Y-123361589D01*
X113454059Y-123279411D01*
X113588817Y-123168817D01*
X113616534Y-123135044D01*
X119245044Y-117506535D01*
X119301898Y-117495226D01*
X119490256Y-117417205D01*
X119659774Y-117303937D01*
X119803937Y-117159774D01*
X119917205Y-116990256D01*
X119995226Y-116801898D01*
X120035000Y-116601939D01*
X120035000Y-116398061D01*
X119995226Y-116198102D01*
X119917205Y-116009744D01*
X119803937Y-115840226D01*
X119659774Y-115696063D01*
X119490256Y-115582795D01*
X119301898Y-115504774D01*
X119101939Y-115465000D01*
X118898061Y-115465000D01*
X118698102Y-115504774D01*
X118509744Y-115582795D01*
X118340226Y-115696063D01*
X118196063Y-115840226D01*
X118082795Y-116009744D01*
X118004774Y-116198102D01*
X117993465Y-116254956D01*
X112593422Y-121655000D01*
X106694656Y-121655000D01*
X106653475Y-121593368D01*
X106521620Y-121461513D01*
X106594180Y-121439502D01*
X106704494Y-121380537D01*
X106801185Y-121301185D01*
X106880537Y-121204494D01*
X106939502Y-121094180D01*
X106975812Y-120974482D01*
X106988072Y-120850000D01*
X106988072Y-119150000D01*
X106975812Y-119025518D01*
X106939502Y-118905820D01*
X106880537Y-118795506D01*
X106801185Y-118698815D01*
X106704494Y-118619463D01*
X106594180Y-118560498D01*
X106474482Y-118524188D01*
X106350000Y-118511928D01*
X105729648Y-118511928D01*
X109856577Y-114385000D01*
X115211546Y-114385000D01*
X115259744Y-114417205D01*
X115448102Y-114495226D01*
X115648061Y-114535000D01*
X115851939Y-114535000D01*
X116051898Y-114495226D01*
X116240256Y-114417205D01*
X116409774Y-114303937D01*
X116553937Y-114159774D01*
X116667205Y-113990256D01*
X116745226Y-113801898D01*
X116785000Y-113601939D01*
X116785000Y-113398061D01*
X116745226Y-113198102D01*
X116667205Y-113009744D01*
X116553937Y-112840226D01*
X116409774Y-112696063D01*
X116240256Y-112582795D01*
X116051898Y-112504774D01*
X115851939Y-112465000D01*
X115648061Y-112465000D01*
X115448102Y-112504774D01*
X115259744Y-112582795D01*
X115211546Y-112615000D01*
X109533463Y-112615000D01*
X109489997Y-112610719D01*
X109446531Y-112615000D01*
X109446521Y-112615000D01*
X109316508Y-112627805D01*
X109149685Y-112678411D01*
X108995939Y-112760589D01*
X108995937Y-112760590D01*
X108995938Y-112760590D01*
X108894951Y-112843468D01*
X108894949Y-112843470D01*
X108861181Y-112871183D01*
X108833468Y-112904951D01*
X103604955Y-118133465D01*
X103571182Y-118161182D01*
X103460588Y-118295941D01*
X103378410Y-118449687D01*
X103327804Y-118616510D01*
X103314999Y-118746523D01*
X103314999Y-118746530D01*
X103310718Y-118789999D01*
X100660000Y-118789999D01*
X100660000Y-100660000D01*
X149340000Y-100660000D01*
X149340001Y-149340000D01*
G04 #@! TA.AperFunction,Conductor*
D16*
G36*
X149340001Y-149340000D02*
G01*
X100660000Y-149340000D01*
X100660000Y-118789999D01*
X103310718Y-118789999D01*
X103314999Y-118833468D01*
X103315000Y-126276520D01*
X103310718Y-126319999D01*
X103327804Y-126493489D01*
X103378411Y-126660312D01*
X103460589Y-126814058D01*
X103543467Y-126915045D01*
X103543470Y-126915048D01*
X103571183Y-126948816D01*
X103604950Y-126976528D01*
X104029461Y-127401039D01*
X104015000Y-127473740D01*
X104015000Y-127766260D01*
X104072068Y-128053158D01*
X104184010Y-128323411D01*
X104346525Y-128566632D01*
X104553368Y-128773475D01*
X104727760Y-128890000D01*
X104553368Y-129006525D01*
X104346525Y-129213368D01*
X104184010Y-129456589D01*
X104072068Y-129726842D01*
X104015000Y-130013740D01*
X104015000Y-130306260D01*
X104072068Y-130593158D01*
X104184010Y-130863411D01*
X104346525Y-131106632D01*
X104553368Y-131313475D01*
X104796589Y-131475990D01*
X105066842Y-131587932D01*
X105353740Y-131645000D01*
X105646260Y-131645000D01*
X105933158Y-131587932D01*
X106203411Y-131475990D01*
X106446632Y-131313475D01*
X106653475Y-131106632D01*
X106815990Y-130863411D01*
X106927932Y-130593158D01*
X106985000Y-130306260D01*
X106985000Y-130013740D01*
X106927932Y-129726842D01*
X106815990Y-129456589D01*
X106653475Y-129213368D01*
X106446632Y-129006525D01*
X106272240Y-128890000D01*
X106446632Y-128773475D01*
X106653475Y-128566632D01*
X106714989Y-128474569D01*
X115335468Y-137095049D01*
X115363181Y-137128817D01*
X115396949Y-137156530D01*
X115396951Y-137156532D01*
X115497939Y-137239411D01*
X115651685Y-137321589D01*
X115818508Y-137372195D01*
X115948521Y-137385000D01*
X115948529Y-137385000D01*
X115991998Y-137389281D01*
X116035467Y-137385000D01*
X133461546Y-137385000D01*
X133509744Y-137417205D01*
X133698102Y-137495226D01*
X133898061Y-137535000D01*
X134101939Y-137535000D01*
X134301898Y-137495226D01*
X134490256Y-137417205D01*
X134659774Y-137303937D01*
X134803937Y-137159774D01*
X134917205Y-136990256D01*
X134995226Y-136801898D01*
X135035000Y-136601939D01*
X135035000Y-136398061D01*
X134995226Y-136198102D01*
X134917205Y-136009744D01*
X134803937Y-135840226D01*
X134659774Y-135696063D01*
X134490256Y-135582795D01*
X134301898Y-135504774D01*
X134101939Y-135465000D01*
X133898061Y-135465000D01*
X133698102Y-135504774D01*
X133509744Y-135582795D01*
X133461546Y-135615000D01*
X116358577Y-135615000D01*
X113891638Y-133148061D01*
X114715000Y-133148061D01*
X114715000Y-133351939D01*
X114754774Y-133551898D01*
X114832795Y-133740256D01*
X114946063Y-133909774D01*
X115090226Y-134053937D01*
X115259744Y-134167205D01*
X115448102Y-134245226D01*
X115648061Y-134285000D01*
X115851939Y-134285000D01*
X116051898Y-134245226D01*
X116240256Y-134167205D01*
X116409774Y-134053937D01*
X116553937Y-133909774D01*
X116667205Y-133740256D01*
X116745226Y-133551898D01*
X116785000Y-133351939D01*
X116785000Y-133148061D01*
X116745226Y-132948102D01*
X116667205Y-132759744D01*
X116635000Y-132711546D01*
X116635000Y-131650656D01*
X130136041Y-118149616D01*
X130136040Y-126862381D01*
X126004957Y-130993465D01*
X125948102Y-131004774D01*
X125759744Y-131082795D01*
X125590226Y-131196063D01*
X125446063Y-131340226D01*
X125332795Y-131509744D01*
X125254774Y-131698102D01*
X125215000Y-131898061D01*
X125215000Y-132101939D01*
X125254774Y-132301898D01*
X125332795Y-132490256D01*
X125416146Y-132615000D01*
X124116579Y-132615000D01*
X123506535Y-132004957D01*
X123495226Y-131948102D01*
X123417205Y-131759744D01*
X123303937Y-131590226D01*
X123159774Y-131446063D01*
X122990256Y-131332795D01*
X122801898Y-131254774D01*
X122601939Y-131215000D01*
X122398061Y-131215000D01*
X122198102Y-131254774D01*
X122009744Y-131332795D01*
X121840226Y-131446063D01*
X121696063Y-131590226D01*
X121582795Y-131759744D01*
X121504774Y-131948102D01*
X121465000Y-132148061D01*
X121465000Y-132351939D01*
X121504774Y-132551898D01*
X121582795Y-132740256D01*
X121696063Y-132909774D01*
X121840226Y-133053937D01*
X122009744Y-133167205D01*
X122198102Y-133245226D01*
X122254957Y-133256535D01*
X123093470Y-134095049D01*
X123121183Y-134128817D01*
X123154951Y-134156530D01*
X123154953Y-134156532D01*
X123226452Y-134215210D01*
X123255941Y-134239411D01*
X123409687Y-134321589D01*
X123525903Y-134356843D01*
X123576509Y-134372195D01*
X123591306Y-134373652D01*
X123706523Y-134385000D01*
X123706531Y-134385000D01*
X123750000Y-134389281D01*
X123793469Y-134385000D01*
X135211546Y-134385000D01*
X135259744Y-134417205D01*
X135448102Y-134495226D01*
X135648061Y-134535000D01*
X135851939Y-134535000D01*
X136051898Y-134495226D01*
X136240256Y-134417205D01*
X136409774Y-134303937D01*
X136553937Y-134159774D01*
X136667205Y-133990256D01*
X136745226Y-133801898D01*
X136785000Y-133601939D01*
X136785000Y-133398061D01*
X136745226Y-133198102D01*
X136667205Y-133009744D01*
X136553937Y-132840226D01*
X136409774Y-132696063D01*
X136240256Y-132582795D01*
X136051898Y-132504774D01*
X135851939Y-132465000D01*
X135648061Y-132465000D01*
X135448102Y-132504774D01*
X135259744Y-132582795D01*
X135211546Y-132615000D01*
X127083854Y-132615000D01*
X127167205Y-132490256D01*
X127245226Y-132301898D01*
X127256535Y-132245043D01*
X131616091Y-127885488D01*
X131649857Y-127857777D01*
X131695583Y-127802061D01*
X131760450Y-127723020D01*
X131760451Y-127723019D01*
X131842629Y-127569273D01*
X131893235Y-127402450D01*
X131906040Y-127272437D01*
X131906040Y-127272427D01*
X131910321Y-127228961D01*
X131906040Y-127185495D01*
X131906040Y-117809494D01*
X131938245Y-117761296D01*
X132016266Y-117572938D01*
X132056040Y-117372979D01*
X132056040Y-117169101D01*
X132016266Y-116969142D01*
X131938245Y-116780784D01*
X131907654Y-116735001D01*
X136114532Y-116735001D01*
X136158001Y-116739282D01*
X136201470Y-116735001D01*
X136201478Y-116735001D01*
X136331491Y-116722196D01*
X136498314Y-116671590D01*
X136652060Y-116589412D01*
X136786818Y-116478818D01*
X136814535Y-116445045D01*
X138095050Y-115164531D01*
X138128817Y-115136819D01*
X138239411Y-115002061D01*
X138321589Y-114848315D01*
X138372195Y-114681492D01*
X138385000Y-114551479D01*
X138385000Y-114551469D01*
X138389281Y-114508003D01*
X138385000Y-114464537D01*
X138385000Y-112538454D01*
X138417205Y-112490256D01*
X138495226Y-112301898D01*
X138535000Y-112101939D01*
X138535000Y-111898061D01*
X138495226Y-111698102D01*
X138417205Y-111509744D01*
X138303937Y-111340226D01*
X138159774Y-111196063D01*
X137990256Y-111082795D01*
X137801898Y-111004774D01*
X137601939Y-110965000D01*
X137398061Y-110965000D01*
X137198102Y-111004774D01*
X137009744Y-111082795D01*
X136840226Y-111196063D01*
X136696063Y-111340226D01*
X136582795Y-111509744D01*
X136504774Y-111698102D01*
X136465000Y-111898061D01*
X136465000Y-112101939D01*
X136504774Y-112301898D01*
X136582795Y-112490256D01*
X136615001Y-112538455D01*
X136615001Y-112666147D01*
X136490256Y-112582795D01*
X136301898Y-112504774D01*
X136101939Y-112465000D01*
X135898061Y-112465000D01*
X135698102Y-112504774D01*
X135509744Y-112582795D01*
X135461546Y-112615000D01*
X124116579Y-112615000D01*
X123506535Y-112004957D01*
X123495226Y-111948102D01*
X123417205Y-111759744D01*
X123303937Y-111590226D01*
X123159774Y-111446063D01*
X122990256Y-111332795D01*
X122801898Y-111254774D01*
X122601939Y-111215000D01*
X122398061Y-111215000D01*
X122198102Y-111254774D01*
X122009744Y-111332795D01*
X121840226Y-111446063D01*
X121696063Y-111590226D01*
X121582795Y-111759744D01*
X121504774Y-111948102D01*
X121465000Y-112148061D01*
X121465000Y-112351939D01*
X121504774Y-112551898D01*
X121582795Y-112740256D01*
X121696063Y-112909774D01*
X121840226Y-113053937D01*
X122009744Y-113167205D01*
X122198102Y-113245226D01*
X122254957Y-113256535D01*
X123093468Y-114095047D01*
X123121183Y-114128817D01*
X123154951Y-114156530D01*
X123154953Y-114156532D01*
X123168548Y-114167689D01*
X123255941Y-114239411D01*
X123409687Y-114321589D01*
X123525903Y-114356843D01*
X123576509Y-114372195D01*
X123591306Y-114373652D01*
X123706523Y-114385000D01*
X123706531Y-114385000D01*
X123750000Y-114389281D01*
X123793469Y-114385000D01*
X135461546Y-114385000D01*
X135509744Y-114417205D01*
X135698102Y-114495226D01*
X135898061Y-114535000D01*
X136101939Y-114535000D01*
X136251092Y-114505332D01*
X135791423Y-114965001D01*
X131227543Y-114965001D01*
X131184076Y-114960720D01*
X131140610Y-114965001D01*
X131140600Y-114965001D01*
X131010587Y-114977806D01*
X130843764Y-115028412D01*
X130690018Y-115110590D01*
X130690016Y-115110591D01*
X130690017Y-115110591D01*
X130589030Y-115193469D01*
X130589028Y-115193471D01*
X130555260Y-115221184D01*
X130527547Y-115254952D01*
X115154952Y-130627548D01*
X115121184Y-130655261D01*
X115093471Y-130689029D01*
X115093468Y-130689032D01*
X115010590Y-130790019D01*
X114928412Y-130943765D01*
X114877805Y-131110588D01*
X114860719Y-131284078D01*
X114865001Y-131327557D01*
X114865000Y-132711545D01*
X114832795Y-132759744D01*
X114754774Y-132948102D01*
X114715000Y-133148061D01*
X113891638Y-133148061D01*
X107685001Y-126941425D01*
X107685001Y-126423467D01*
X107689282Y-126380000D01*
X107685001Y-126336534D01*
X107685001Y-126336524D01*
X107672196Y-126206511D01*
X107621590Y-126039688D01*
X107539412Y-125885942D01*
X107428818Y-125751184D01*
X107395050Y-125723471D01*
X106970539Y-125298960D01*
X106985000Y-125226260D01*
X106985000Y-124933740D01*
X106927932Y-124646842D01*
X106815990Y-124376589D01*
X106653475Y-124133368D01*
X106446632Y-123926525D01*
X106272240Y-123810000D01*
X106446632Y-123693475D01*
X106653475Y-123486632D01*
X106694656Y-123425000D01*
X112916531Y-123425000D01*
X112960000Y-123429281D01*
X113003469Y-123425000D01*
X113003477Y-123425000D01*
X113133490Y-123412195D01*
X113300313Y-123361589D01*
X113454059Y-123279411D01*
X113588817Y-123168817D01*
X113616534Y-123135044D01*
X119245044Y-117506535D01*
X119301898Y-117495226D01*
X119490256Y-117417205D01*
X119659774Y-117303937D01*
X119803937Y-117159774D01*
X119917205Y-116990256D01*
X119995226Y-116801898D01*
X120035000Y-116601939D01*
X120035000Y-116398061D01*
X119995226Y-116198102D01*
X119917205Y-116009744D01*
X119803937Y-115840226D01*
X119659774Y-115696063D01*
X119490256Y-115582795D01*
X119301898Y-115504774D01*
X119101939Y-115465000D01*
X118898061Y-115465000D01*
X118698102Y-115504774D01*
X118509744Y-115582795D01*
X118340226Y-115696063D01*
X118196063Y-115840226D01*
X118082795Y-116009744D01*
X118004774Y-116198102D01*
X117993465Y-116254956D01*
X112593422Y-121655000D01*
X106694656Y-121655000D01*
X106653475Y-121593368D01*
X106521620Y-121461513D01*
X106594180Y-121439502D01*
X106704494Y-121380537D01*
X106801185Y-121301185D01*
X106880537Y-121204494D01*
X106939502Y-121094180D01*
X106975812Y-120974482D01*
X106988072Y-120850000D01*
X106988072Y-119150000D01*
X106975812Y-119025518D01*
X106939502Y-118905820D01*
X106880537Y-118795506D01*
X106801185Y-118698815D01*
X106704494Y-118619463D01*
X106594180Y-118560498D01*
X106474482Y-118524188D01*
X106350000Y-118511928D01*
X105729648Y-118511928D01*
X109856577Y-114385000D01*
X115211546Y-114385000D01*
X115259744Y-114417205D01*
X115448102Y-114495226D01*
X115648061Y-114535000D01*
X115851939Y-114535000D01*
X116051898Y-114495226D01*
X116240256Y-114417205D01*
X116409774Y-114303937D01*
X116553937Y-114159774D01*
X116667205Y-113990256D01*
X116745226Y-113801898D01*
X116785000Y-113601939D01*
X116785000Y-113398061D01*
X116745226Y-113198102D01*
X116667205Y-113009744D01*
X116553937Y-112840226D01*
X116409774Y-112696063D01*
X116240256Y-112582795D01*
X116051898Y-112504774D01*
X115851939Y-112465000D01*
X115648061Y-112465000D01*
X115448102Y-112504774D01*
X115259744Y-112582795D01*
X115211546Y-112615000D01*
X109533463Y-112615000D01*
X109489997Y-112610719D01*
X109446531Y-112615000D01*
X109446521Y-112615000D01*
X109316508Y-112627805D01*
X109149685Y-112678411D01*
X108995939Y-112760589D01*
X108995937Y-112760590D01*
X108995938Y-112760590D01*
X108894951Y-112843468D01*
X108894949Y-112843470D01*
X108861181Y-112871183D01*
X108833468Y-112904951D01*
X103604955Y-118133465D01*
X103571182Y-118161182D01*
X103460588Y-118295941D01*
X103378410Y-118449687D01*
X103327804Y-118616510D01*
X103314999Y-118746523D01*
X103314999Y-118746530D01*
X103310718Y-118789999D01*
X100660000Y-118789999D01*
X100660000Y-100660000D01*
X149340000Y-100660000D01*
X149340001Y-149340000D01*
G37*
G04 #@! TD.AperFunction*
M02*
