M48
; DRILL file {KiCad 5.1.9+dfsg1-1~bpo10+1} date Sun Sep 26 17:43:23 2021
; FORMAT={-:-/ absolute / inch / decimal}
; #@! TF.CreationDate,2021-09-26T17:43:23+00:00
; #@! TF.GenerationSoftware,Kicad,Pcbnew,5.1.9+dfsg1-1~bpo10+1
; #@! TF.FileFunction,Plated,1,2,PTH
FMAT,2
INCH
T1C0.0157
T2C0.0394
T3C0.1260
%
G90
G05
T1
X4.5571Y-4.4685
X4.5571Y-4.5276
X4.5571Y-5.2461
X4.5571Y-5.315
X4.685Y-4.5866
X4.8228Y-4.4193
X4.8228Y-5.2067
X4.9705Y-5.1969
X5.1583Y-4.617
X5.2756Y-5.374
X5.3445Y-4.5276
X5.3445Y-5.2559
X5.3445Y-5.315
X5.3543Y-4.4685
X5.4134Y-4.4094
T2
X4.1535Y-4.7244
X4.1535Y-4.8244
X4.1535Y-4.9244
X4.1535Y-5.0244
X4.1535Y-5.1244
X4.1535Y-5.2244
T3
X4.1339Y-4.1339
X4.1339Y-5.7087
X5.7087Y-4.1339
X5.7087Y-5.7087
T0
M30
