%TF.GenerationSoftware,KiCad,Pcbnew,5.1.9+dfsg1-1~bpo10+1*%
%TF.CreationDate,2021-09-26T19:00:20+00:00*%
%TF.ProjectId,ws2813-breakout,77733238-3133-42d6-9272-65616b6f7574,rev?*%
%TF.SameCoordinates,Original*%
%TF.FileFunction,Soldermask,Top*%
%TF.FilePolarity,Negative*%
%FSLAX46Y46*%
G04 Gerber Fmt 4.6, Leading zero omitted, Abs format (unit mm)*
G04 Created by KiCad (PCBNEW 5.1.9+dfsg1-1~bpo10+1) date 2021-09-26 19:00:20*
%MOMM*%
%LPD*%
G01*
G04 APERTURE LIST*
%ADD10R,1.500000X1.000000*%
%ADD11R,1.700000X1.700000*%
%ADD12O,1.700000X1.700000*%
%ADD13C,0.100000*%
%ADD14C,5.500000*%
G04 APERTURE END LIST*
%TO.C,C101*%
G36*
G01*
X109200000Y-110670000D02*
X109200000Y-110330000D01*
G75*
G02*
X109340000Y-110190000I140000J0D01*
G01*
X109620000Y-110190000D01*
G75*
G02*
X109760000Y-110330000I0J-140000D01*
G01*
X109760000Y-110670000D01*
G75*
G02*
X109620000Y-110810000I-140000J0D01*
G01*
X109340000Y-110810000D01*
G75*
G02*
X109200000Y-110670000I0J140000D01*
G01*
G37*
G36*
G01*
X108240000Y-110670000D02*
X108240000Y-110330000D01*
G75*
G02*
X108380000Y-110190000I140000J0D01*
G01*
X108660000Y-110190000D01*
G75*
G02*
X108800000Y-110330000I0J-140000D01*
G01*
X108800000Y-110670000D01*
G75*
G02*
X108660000Y-110810000I-140000J0D01*
G01*
X108380000Y-110810000D01*
G75*
G02*
X108240000Y-110670000I0J140000D01*
G01*
G37*
%TD*%
%TO.C,C102*%
G36*
G01*
X128240000Y-110670000D02*
X128240000Y-110330000D01*
G75*
G02*
X128380000Y-110190000I140000J0D01*
G01*
X128660000Y-110190000D01*
G75*
G02*
X128800000Y-110330000I0J-140000D01*
G01*
X128800000Y-110670000D01*
G75*
G02*
X128660000Y-110810000I-140000J0D01*
G01*
X128380000Y-110810000D01*
G75*
G02*
X128240000Y-110670000I0J140000D01*
G01*
G37*
G36*
G01*
X129200000Y-110670000D02*
X129200000Y-110330000D01*
G75*
G02*
X129340000Y-110190000I140000J0D01*
G01*
X129620000Y-110190000D01*
G75*
G02*
X129760000Y-110330000I0J-140000D01*
G01*
X129760000Y-110670000D01*
G75*
G02*
X129620000Y-110810000I-140000J0D01*
G01*
X129340000Y-110810000D01*
G75*
G02*
X129200000Y-110670000I0J140000D01*
G01*
G37*
%TD*%
%TO.C,C103*%
G36*
G01*
X108240000Y-130670000D02*
X108240000Y-130330000D01*
G75*
G02*
X108380000Y-130190000I140000J0D01*
G01*
X108660000Y-130190000D01*
G75*
G02*
X108800000Y-130330000I0J-140000D01*
G01*
X108800000Y-130670000D01*
G75*
G02*
X108660000Y-130810000I-140000J0D01*
G01*
X108380000Y-130810000D01*
G75*
G02*
X108240000Y-130670000I0J140000D01*
G01*
G37*
G36*
G01*
X109200000Y-130670000D02*
X109200000Y-130330000D01*
G75*
G02*
X109340000Y-130190000I140000J0D01*
G01*
X109620000Y-130190000D01*
G75*
G02*
X109760000Y-130330000I0J-140000D01*
G01*
X109760000Y-130670000D01*
G75*
G02*
X109620000Y-130810000I-140000J0D01*
G01*
X109340000Y-130810000D01*
G75*
G02*
X109200000Y-130670000I0J140000D01*
G01*
G37*
%TD*%
%TO.C,C104*%
G36*
G01*
X129200000Y-130670000D02*
X129200000Y-130330000D01*
G75*
G02*
X129340000Y-130190000I140000J0D01*
G01*
X129620000Y-130190000D01*
G75*
G02*
X129760000Y-130330000I0J-140000D01*
G01*
X129760000Y-130670000D01*
G75*
G02*
X129620000Y-130810000I-140000J0D01*
G01*
X129340000Y-130810000D01*
G75*
G02*
X129200000Y-130670000I0J140000D01*
G01*
G37*
G36*
G01*
X128240000Y-130670000D02*
X128240000Y-130330000D01*
G75*
G02*
X128380000Y-130190000I140000J0D01*
G01*
X128660000Y-130190000D01*
G75*
G02*
X128800000Y-130330000I0J-140000D01*
G01*
X128800000Y-130670000D01*
G75*
G02*
X128660000Y-130810000I-140000J0D01*
G01*
X128380000Y-130810000D01*
G75*
G02*
X128240000Y-130670000I0J140000D01*
G01*
G37*
%TD*%
D10*
%TO.C,D101*%
X112550000Y-113400000D03*
X112550000Y-115000000D03*
X112550000Y-116600000D03*
X117450000Y-113400000D03*
X117450000Y-115000000D03*
X117450000Y-116600000D03*
%TD*%
%TO.C,D102*%
X137450000Y-116600000D03*
X137450000Y-115000000D03*
X137450000Y-113400000D03*
X132550000Y-116600000D03*
X132550000Y-115000000D03*
X132550000Y-113400000D03*
%TD*%
%TO.C,D103*%
X112550000Y-133400000D03*
X112550000Y-135000000D03*
X112550000Y-136600000D03*
X117450000Y-133400000D03*
X117450000Y-135000000D03*
X117450000Y-136600000D03*
%TD*%
%TO.C,D104*%
X137450000Y-136600000D03*
X137450000Y-135000000D03*
X137450000Y-133400000D03*
X132550000Y-136600000D03*
X132550000Y-135000000D03*
X132550000Y-133400000D03*
%TD*%
D11*
%TO.C,J101*%
X105500000Y-120000000D03*
D12*
X105500000Y-122540000D03*
X105500000Y-125080000D03*
X105500000Y-127620000D03*
X105500000Y-130160000D03*
X105500000Y-132700000D03*
%TD*%
D13*
%TO.C,JP101*%
G36*
X112400000Y-109750602D02*
G01*
X112424534Y-109750602D01*
X112473365Y-109755412D01*
X112521490Y-109764984D01*
X112568445Y-109779228D01*
X112613778Y-109798005D01*
X112657051Y-109821136D01*
X112697850Y-109848396D01*
X112735779Y-109879524D01*
X112770476Y-109914221D01*
X112801604Y-109952150D01*
X112828864Y-109992949D01*
X112851995Y-110036222D01*
X112870772Y-110081555D01*
X112885016Y-110128510D01*
X112894588Y-110176635D01*
X112899398Y-110225466D01*
X112899398Y-110250000D01*
X112900000Y-110250000D01*
X112900000Y-110750000D01*
X112899398Y-110750000D01*
X112899398Y-110774534D01*
X112894588Y-110823365D01*
X112885016Y-110871490D01*
X112870772Y-110918445D01*
X112851995Y-110963778D01*
X112828864Y-111007051D01*
X112801604Y-111047850D01*
X112770476Y-111085779D01*
X112735779Y-111120476D01*
X112697850Y-111151604D01*
X112657051Y-111178864D01*
X112613778Y-111201995D01*
X112568445Y-111220772D01*
X112521490Y-111235016D01*
X112473365Y-111244588D01*
X112424534Y-111249398D01*
X112400000Y-111249398D01*
X112400000Y-111250000D01*
X111900000Y-111250000D01*
X111900000Y-109750000D01*
X112400000Y-109750000D01*
X112400000Y-109750602D01*
G37*
G36*
X111600000Y-111250000D02*
G01*
X111100000Y-111250000D01*
X111100000Y-111249398D01*
X111075466Y-111249398D01*
X111026635Y-111244588D01*
X110978510Y-111235016D01*
X110931555Y-111220772D01*
X110886222Y-111201995D01*
X110842949Y-111178864D01*
X110802150Y-111151604D01*
X110764221Y-111120476D01*
X110729524Y-111085779D01*
X110698396Y-111047850D01*
X110671136Y-111007051D01*
X110648005Y-110963778D01*
X110629228Y-110918445D01*
X110614984Y-110871490D01*
X110605412Y-110823365D01*
X110600602Y-110774534D01*
X110600602Y-110750000D01*
X110600000Y-110750000D01*
X110600000Y-110250000D01*
X110600602Y-110250000D01*
X110600602Y-110225466D01*
X110605412Y-110176635D01*
X110614984Y-110128510D01*
X110629228Y-110081555D01*
X110648005Y-110036222D01*
X110671136Y-109992949D01*
X110698396Y-109952150D01*
X110729524Y-109914221D01*
X110764221Y-109879524D01*
X110802150Y-109848396D01*
X110842949Y-109821136D01*
X110886222Y-109798005D01*
X110931555Y-109779228D01*
X110978510Y-109764984D01*
X111026635Y-109755412D01*
X111075466Y-109750602D01*
X111100000Y-109750602D01*
X111100000Y-109750000D01*
X111600000Y-109750000D01*
X111600000Y-111250000D01*
G37*
%TD*%
%TO.C,JP102*%
G36*
X131600000Y-111250000D02*
G01*
X131100000Y-111250000D01*
X131100000Y-111249398D01*
X131075466Y-111249398D01*
X131026635Y-111244588D01*
X130978510Y-111235016D01*
X130931555Y-111220772D01*
X130886222Y-111201995D01*
X130842949Y-111178864D01*
X130802150Y-111151604D01*
X130764221Y-111120476D01*
X130729524Y-111085779D01*
X130698396Y-111047850D01*
X130671136Y-111007051D01*
X130648005Y-110963778D01*
X130629228Y-110918445D01*
X130614984Y-110871490D01*
X130605412Y-110823365D01*
X130600602Y-110774534D01*
X130600602Y-110750000D01*
X130600000Y-110750000D01*
X130600000Y-110250000D01*
X130600602Y-110250000D01*
X130600602Y-110225466D01*
X130605412Y-110176635D01*
X130614984Y-110128510D01*
X130629228Y-110081555D01*
X130648005Y-110036222D01*
X130671136Y-109992949D01*
X130698396Y-109952150D01*
X130729524Y-109914221D01*
X130764221Y-109879524D01*
X130802150Y-109848396D01*
X130842949Y-109821136D01*
X130886222Y-109798005D01*
X130931555Y-109779228D01*
X130978510Y-109764984D01*
X131026635Y-109755412D01*
X131075466Y-109750602D01*
X131100000Y-109750602D01*
X131100000Y-109750000D01*
X131600000Y-109750000D01*
X131600000Y-111250000D01*
G37*
G36*
X132400000Y-109750602D02*
G01*
X132424534Y-109750602D01*
X132473365Y-109755412D01*
X132521490Y-109764984D01*
X132568445Y-109779228D01*
X132613778Y-109798005D01*
X132657051Y-109821136D01*
X132697850Y-109848396D01*
X132735779Y-109879524D01*
X132770476Y-109914221D01*
X132801604Y-109952150D01*
X132828864Y-109992949D01*
X132851995Y-110036222D01*
X132870772Y-110081555D01*
X132885016Y-110128510D01*
X132894588Y-110176635D01*
X132899398Y-110225466D01*
X132899398Y-110250000D01*
X132900000Y-110250000D01*
X132900000Y-110750000D01*
X132899398Y-110750000D01*
X132899398Y-110774534D01*
X132894588Y-110823365D01*
X132885016Y-110871490D01*
X132870772Y-110918445D01*
X132851995Y-110963778D01*
X132828864Y-111007051D01*
X132801604Y-111047850D01*
X132770476Y-111085779D01*
X132735779Y-111120476D01*
X132697850Y-111151604D01*
X132657051Y-111178864D01*
X132613778Y-111201995D01*
X132568445Y-111220772D01*
X132521490Y-111235016D01*
X132473365Y-111244588D01*
X132424534Y-111249398D01*
X132400000Y-111249398D01*
X132400000Y-111250000D01*
X131900000Y-111250000D01*
X131900000Y-109750000D01*
X132400000Y-109750000D01*
X132400000Y-109750602D01*
G37*
%TD*%
%TO.C,JP103*%
G36*
X112400000Y-129750602D02*
G01*
X112424534Y-129750602D01*
X112473365Y-129755412D01*
X112521490Y-129764984D01*
X112568445Y-129779228D01*
X112613778Y-129798005D01*
X112657051Y-129821136D01*
X112697850Y-129848396D01*
X112735779Y-129879524D01*
X112770476Y-129914221D01*
X112801604Y-129952150D01*
X112828864Y-129992949D01*
X112851995Y-130036222D01*
X112870772Y-130081555D01*
X112885016Y-130128510D01*
X112894588Y-130176635D01*
X112899398Y-130225466D01*
X112899398Y-130250000D01*
X112900000Y-130250000D01*
X112900000Y-130750000D01*
X112899398Y-130750000D01*
X112899398Y-130774534D01*
X112894588Y-130823365D01*
X112885016Y-130871490D01*
X112870772Y-130918445D01*
X112851995Y-130963778D01*
X112828864Y-131007051D01*
X112801604Y-131047850D01*
X112770476Y-131085779D01*
X112735779Y-131120476D01*
X112697850Y-131151604D01*
X112657051Y-131178864D01*
X112613778Y-131201995D01*
X112568445Y-131220772D01*
X112521490Y-131235016D01*
X112473365Y-131244588D01*
X112424534Y-131249398D01*
X112400000Y-131249398D01*
X112400000Y-131250000D01*
X111900000Y-131250000D01*
X111900000Y-129750000D01*
X112400000Y-129750000D01*
X112400000Y-129750602D01*
G37*
G36*
X111600000Y-131250000D02*
G01*
X111100000Y-131250000D01*
X111100000Y-131249398D01*
X111075466Y-131249398D01*
X111026635Y-131244588D01*
X110978510Y-131235016D01*
X110931555Y-131220772D01*
X110886222Y-131201995D01*
X110842949Y-131178864D01*
X110802150Y-131151604D01*
X110764221Y-131120476D01*
X110729524Y-131085779D01*
X110698396Y-131047850D01*
X110671136Y-131007051D01*
X110648005Y-130963778D01*
X110629228Y-130918445D01*
X110614984Y-130871490D01*
X110605412Y-130823365D01*
X110600602Y-130774534D01*
X110600602Y-130750000D01*
X110600000Y-130750000D01*
X110600000Y-130250000D01*
X110600602Y-130250000D01*
X110600602Y-130225466D01*
X110605412Y-130176635D01*
X110614984Y-130128510D01*
X110629228Y-130081555D01*
X110648005Y-130036222D01*
X110671136Y-129992949D01*
X110698396Y-129952150D01*
X110729524Y-129914221D01*
X110764221Y-129879524D01*
X110802150Y-129848396D01*
X110842949Y-129821136D01*
X110886222Y-129798005D01*
X110931555Y-129779228D01*
X110978510Y-129764984D01*
X111026635Y-129755412D01*
X111075466Y-129750602D01*
X111100000Y-129750602D01*
X111100000Y-129750000D01*
X111600000Y-129750000D01*
X111600000Y-131250000D01*
G37*
%TD*%
%TO.C,JP104*%
G36*
X131600000Y-131250000D02*
G01*
X131100000Y-131250000D01*
X131100000Y-131249398D01*
X131075466Y-131249398D01*
X131026635Y-131244588D01*
X130978510Y-131235016D01*
X130931555Y-131220772D01*
X130886222Y-131201995D01*
X130842949Y-131178864D01*
X130802150Y-131151604D01*
X130764221Y-131120476D01*
X130729524Y-131085779D01*
X130698396Y-131047850D01*
X130671136Y-131007051D01*
X130648005Y-130963778D01*
X130629228Y-130918445D01*
X130614984Y-130871490D01*
X130605412Y-130823365D01*
X130600602Y-130774534D01*
X130600602Y-130750000D01*
X130600000Y-130750000D01*
X130600000Y-130250000D01*
X130600602Y-130250000D01*
X130600602Y-130225466D01*
X130605412Y-130176635D01*
X130614984Y-130128510D01*
X130629228Y-130081555D01*
X130648005Y-130036222D01*
X130671136Y-129992949D01*
X130698396Y-129952150D01*
X130729524Y-129914221D01*
X130764221Y-129879524D01*
X130802150Y-129848396D01*
X130842949Y-129821136D01*
X130886222Y-129798005D01*
X130931555Y-129779228D01*
X130978510Y-129764984D01*
X131026635Y-129755412D01*
X131075466Y-129750602D01*
X131100000Y-129750602D01*
X131100000Y-129750000D01*
X131600000Y-129750000D01*
X131600000Y-131250000D01*
G37*
G36*
X132400000Y-129750602D02*
G01*
X132424534Y-129750602D01*
X132473365Y-129755412D01*
X132521490Y-129764984D01*
X132568445Y-129779228D01*
X132613778Y-129798005D01*
X132657051Y-129821136D01*
X132697850Y-129848396D01*
X132735779Y-129879524D01*
X132770476Y-129914221D01*
X132801604Y-129952150D01*
X132828864Y-129992949D01*
X132851995Y-130036222D01*
X132870772Y-130081555D01*
X132885016Y-130128510D01*
X132894588Y-130176635D01*
X132899398Y-130225466D01*
X132899398Y-130250000D01*
X132900000Y-130250000D01*
X132900000Y-130750000D01*
X132899398Y-130750000D01*
X132899398Y-130774534D01*
X132894588Y-130823365D01*
X132885016Y-130871490D01*
X132870772Y-130918445D01*
X132851995Y-130963778D01*
X132828864Y-131007051D01*
X132801604Y-131047850D01*
X132770476Y-131085779D01*
X132735779Y-131120476D01*
X132697850Y-131151604D01*
X132657051Y-131178864D01*
X132613778Y-131201995D01*
X132568445Y-131220772D01*
X132521490Y-131235016D01*
X132473365Y-131244588D01*
X132424534Y-131249398D01*
X132400000Y-131249398D01*
X132400000Y-131250000D01*
X131900000Y-131250000D01*
X131900000Y-129750000D01*
X132400000Y-129750000D01*
X132400000Y-129750602D01*
G37*
%TD*%
%TO.C,JP105*%
G36*
X117400000Y-109750602D02*
G01*
X117424534Y-109750602D01*
X117473365Y-109755412D01*
X117521490Y-109764984D01*
X117568445Y-109779228D01*
X117613778Y-109798005D01*
X117657051Y-109821136D01*
X117697850Y-109848396D01*
X117735779Y-109879524D01*
X117770476Y-109914221D01*
X117801604Y-109952150D01*
X117828864Y-109992949D01*
X117851995Y-110036222D01*
X117870772Y-110081555D01*
X117885016Y-110128510D01*
X117894588Y-110176635D01*
X117899398Y-110225466D01*
X117899398Y-110250000D01*
X117900000Y-110250000D01*
X117900000Y-110750000D01*
X117899398Y-110750000D01*
X117899398Y-110774534D01*
X117894588Y-110823365D01*
X117885016Y-110871490D01*
X117870772Y-110918445D01*
X117851995Y-110963778D01*
X117828864Y-111007051D01*
X117801604Y-111047850D01*
X117770476Y-111085779D01*
X117735779Y-111120476D01*
X117697850Y-111151604D01*
X117657051Y-111178864D01*
X117613778Y-111201995D01*
X117568445Y-111220772D01*
X117521490Y-111235016D01*
X117473365Y-111244588D01*
X117424534Y-111249398D01*
X117400000Y-111249398D01*
X117400000Y-111250000D01*
X116900000Y-111250000D01*
X116900000Y-109750000D01*
X117400000Y-109750000D01*
X117400000Y-109750602D01*
G37*
G36*
X116600000Y-111250000D02*
G01*
X116100000Y-111250000D01*
X116100000Y-111249398D01*
X116075466Y-111249398D01*
X116026635Y-111244588D01*
X115978510Y-111235016D01*
X115931555Y-111220772D01*
X115886222Y-111201995D01*
X115842949Y-111178864D01*
X115802150Y-111151604D01*
X115764221Y-111120476D01*
X115729524Y-111085779D01*
X115698396Y-111047850D01*
X115671136Y-111007051D01*
X115648005Y-110963778D01*
X115629228Y-110918445D01*
X115614984Y-110871490D01*
X115605412Y-110823365D01*
X115600602Y-110774534D01*
X115600602Y-110750000D01*
X115600000Y-110750000D01*
X115600000Y-110250000D01*
X115600602Y-110250000D01*
X115600602Y-110225466D01*
X115605412Y-110176635D01*
X115614984Y-110128510D01*
X115629228Y-110081555D01*
X115648005Y-110036222D01*
X115671136Y-109992949D01*
X115698396Y-109952150D01*
X115729524Y-109914221D01*
X115764221Y-109879524D01*
X115802150Y-109848396D01*
X115842949Y-109821136D01*
X115886222Y-109798005D01*
X115931555Y-109779228D01*
X115978510Y-109764984D01*
X116026635Y-109755412D01*
X116075466Y-109750602D01*
X116100000Y-109750602D01*
X116100000Y-109750000D01*
X116600000Y-109750000D01*
X116600000Y-111250000D01*
G37*
%TD*%
%TO.C,JP106*%
G36*
X136600000Y-111250000D02*
G01*
X136100000Y-111250000D01*
X136100000Y-111249398D01*
X136075466Y-111249398D01*
X136026635Y-111244588D01*
X135978510Y-111235016D01*
X135931555Y-111220772D01*
X135886222Y-111201995D01*
X135842949Y-111178864D01*
X135802150Y-111151604D01*
X135764221Y-111120476D01*
X135729524Y-111085779D01*
X135698396Y-111047850D01*
X135671136Y-111007051D01*
X135648005Y-110963778D01*
X135629228Y-110918445D01*
X135614984Y-110871490D01*
X135605412Y-110823365D01*
X135600602Y-110774534D01*
X135600602Y-110750000D01*
X135600000Y-110750000D01*
X135600000Y-110250000D01*
X135600602Y-110250000D01*
X135600602Y-110225466D01*
X135605412Y-110176635D01*
X135614984Y-110128510D01*
X135629228Y-110081555D01*
X135648005Y-110036222D01*
X135671136Y-109992949D01*
X135698396Y-109952150D01*
X135729524Y-109914221D01*
X135764221Y-109879524D01*
X135802150Y-109848396D01*
X135842949Y-109821136D01*
X135886222Y-109798005D01*
X135931555Y-109779228D01*
X135978510Y-109764984D01*
X136026635Y-109755412D01*
X136075466Y-109750602D01*
X136100000Y-109750602D01*
X136100000Y-109750000D01*
X136600000Y-109750000D01*
X136600000Y-111250000D01*
G37*
G36*
X137400000Y-109750602D02*
G01*
X137424534Y-109750602D01*
X137473365Y-109755412D01*
X137521490Y-109764984D01*
X137568445Y-109779228D01*
X137613778Y-109798005D01*
X137657051Y-109821136D01*
X137697850Y-109848396D01*
X137735779Y-109879524D01*
X137770476Y-109914221D01*
X137801604Y-109952150D01*
X137828864Y-109992949D01*
X137851995Y-110036222D01*
X137870772Y-110081555D01*
X137885016Y-110128510D01*
X137894588Y-110176635D01*
X137899398Y-110225466D01*
X137899398Y-110250000D01*
X137900000Y-110250000D01*
X137900000Y-110750000D01*
X137899398Y-110750000D01*
X137899398Y-110774534D01*
X137894588Y-110823365D01*
X137885016Y-110871490D01*
X137870772Y-110918445D01*
X137851995Y-110963778D01*
X137828864Y-111007051D01*
X137801604Y-111047850D01*
X137770476Y-111085779D01*
X137735779Y-111120476D01*
X137697850Y-111151604D01*
X137657051Y-111178864D01*
X137613778Y-111201995D01*
X137568445Y-111220772D01*
X137521490Y-111235016D01*
X137473365Y-111244588D01*
X137424534Y-111249398D01*
X137400000Y-111249398D01*
X137400000Y-111250000D01*
X136900000Y-111250000D01*
X136900000Y-109750000D01*
X137400000Y-109750000D01*
X137400000Y-109750602D01*
G37*
%TD*%
%TO.C,JP107*%
G36*
X117400000Y-129750602D02*
G01*
X117424534Y-129750602D01*
X117473365Y-129755412D01*
X117521490Y-129764984D01*
X117568445Y-129779228D01*
X117613778Y-129798005D01*
X117657051Y-129821136D01*
X117697850Y-129848396D01*
X117735779Y-129879524D01*
X117770476Y-129914221D01*
X117801604Y-129952150D01*
X117828864Y-129992949D01*
X117851995Y-130036222D01*
X117870772Y-130081555D01*
X117885016Y-130128510D01*
X117894588Y-130176635D01*
X117899398Y-130225466D01*
X117899398Y-130250000D01*
X117900000Y-130250000D01*
X117900000Y-130750000D01*
X117899398Y-130750000D01*
X117899398Y-130774534D01*
X117894588Y-130823365D01*
X117885016Y-130871490D01*
X117870772Y-130918445D01*
X117851995Y-130963778D01*
X117828864Y-131007051D01*
X117801604Y-131047850D01*
X117770476Y-131085779D01*
X117735779Y-131120476D01*
X117697850Y-131151604D01*
X117657051Y-131178864D01*
X117613778Y-131201995D01*
X117568445Y-131220772D01*
X117521490Y-131235016D01*
X117473365Y-131244588D01*
X117424534Y-131249398D01*
X117400000Y-131249398D01*
X117400000Y-131250000D01*
X116900000Y-131250000D01*
X116900000Y-129750000D01*
X117400000Y-129750000D01*
X117400000Y-129750602D01*
G37*
G36*
X116600000Y-131250000D02*
G01*
X116100000Y-131250000D01*
X116100000Y-131249398D01*
X116075466Y-131249398D01*
X116026635Y-131244588D01*
X115978510Y-131235016D01*
X115931555Y-131220772D01*
X115886222Y-131201995D01*
X115842949Y-131178864D01*
X115802150Y-131151604D01*
X115764221Y-131120476D01*
X115729524Y-131085779D01*
X115698396Y-131047850D01*
X115671136Y-131007051D01*
X115648005Y-130963778D01*
X115629228Y-130918445D01*
X115614984Y-130871490D01*
X115605412Y-130823365D01*
X115600602Y-130774534D01*
X115600602Y-130750000D01*
X115600000Y-130750000D01*
X115600000Y-130250000D01*
X115600602Y-130250000D01*
X115600602Y-130225466D01*
X115605412Y-130176635D01*
X115614984Y-130128510D01*
X115629228Y-130081555D01*
X115648005Y-130036222D01*
X115671136Y-129992949D01*
X115698396Y-129952150D01*
X115729524Y-129914221D01*
X115764221Y-129879524D01*
X115802150Y-129848396D01*
X115842949Y-129821136D01*
X115886222Y-129798005D01*
X115931555Y-129779228D01*
X115978510Y-129764984D01*
X116026635Y-129755412D01*
X116075466Y-129750602D01*
X116100000Y-129750602D01*
X116100000Y-129750000D01*
X116600000Y-129750000D01*
X116600000Y-131250000D01*
G37*
%TD*%
%TO.C,JP108*%
G36*
X136600000Y-131250000D02*
G01*
X136100000Y-131250000D01*
X136100000Y-131249398D01*
X136075466Y-131249398D01*
X136026635Y-131244588D01*
X135978510Y-131235016D01*
X135931555Y-131220772D01*
X135886222Y-131201995D01*
X135842949Y-131178864D01*
X135802150Y-131151604D01*
X135764221Y-131120476D01*
X135729524Y-131085779D01*
X135698396Y-131047850D01*
X135671136Y-131007051D01*
X135648005Y-130963778D01*
X135629228Y-130918445D01*
X135614984Y-130871490D01*
X135605412Y-130823365D01*
X135600602Y-130774534D01*
X135600602Y-130750000D01*
X135600000Y-130750000D01*
X135600000Y-130250000D01*
X135600602Y-130250000D01*
X135600602Y-130225466D01*
X135605412Y-130176635D01*
X135614984Y-130128510D01*
X135629228Y-130081555D01*
X135648005Y-130036222D01*
X135671136Y-129992949D01*
X135698396Y-129952150D01*
X135729524Y-129914221D01*
X135764221Y-129879524D01*
X135802150Y-129848396D01*
X135842949Y-129821136D01*
X135886222Y-129798005D01*
X135931555Y-129779228D01*
X135978510Y-129764984D01*
X136026635Y-129755412D01*
X136075466Y-129750602D01*
X136100000Y-129750602D01*
X136100000Y-129750000D01*
X136600000Y-129750000D01*
X136600000Y-131250000D01*
G37*
G36*
X137400000Y-129750602D02*
G01*
X137424534Y-129750602D01*
X137473365Y-129755412D01*
X137521490Y-129764984D01*
X137568445Y-129779228D01*
X137613778Y-129798005D01*
X137657051Y-129821136D01*
X137697850Y-129848396D01*
X137735779Y-129879524D01*
X137770476Y-129914221D01*
X137801604Y-129952150D01*
X137828864Y-129992949D01*
X137851995Y-130036222D01*
X137870772Y-130081555D01*
X137885016Y-130128510D01*
X137894588Y-130176635D01*
X137899398Y-130225466D01*
X137899398Y-130250000D01*
X137900000Y-130250000D01*
X137900000Y-130750000D01*
X137899398Y-130750000D01*
X137899398Y-130774534D01*
X137894588Y-130823365D01*
X137885016Y-130871490D01*
X137870772Y-130918445D01*
X137851995Y-130963778D01*
X137828864Y-131007051D01*
X137801604Y-131047850D01*
X137770476Y-131085779D01*
X137735779Y-131120476D01*
X137697850Y-131151604D01*
X137657051Y-131178864D01*
X137613778Y-131201995D01*
X137568445Y-131220772D01*
X137521490Y-131235016D01*
X137473365Y-131244588D01*
X137424534Y-131249398D01*
X137400000Y-131249398D01*
X137400000Y-131250000D01*
X136900000Y-131250000D01*
X136900000Y-129750000D01*
X137400000Y-129750000D01*
X137400000Y-129750602D01*
G37*
%TD*%
%TO.C,JP109*%
G36*
X120749398Y-113400000D02*
G01*
X120749398Y-113424534D01*
X120744588Y-113473365D01*
X120735016Y-113521490D01*
X120720772Y-113568445D01*
X120701995Y-113613778D01*
X120678864Y-113657051D01*
X120651604Y-113697850D01*
X120620476Y-113735779D01*
X120585779Y-113770476D01*
X120547850Y-113801604D01*
X120507051Y-113828864D01*
X120463778Y-113851995D01*
X120418445Y-113870772D01*
X120371490Y-113885016D01*
X120323365Y-113894588D01*
X120274534Y-113899398D01*
X120250000Y-113899398D01*
X120250000Y-113900000D01*
X119750000Y-113900000D01*
X119750000Y-113899398D01*
X119725466Y-113899398D01*
X119676635Y-113894588D01*
X119628510Y-113885016D01*
X119581555Y-113870772D01*
X119536222Y-113851995D01*
X119492949Y-113828864D01*
X119452150Y-113801604D01*
X119414221Y-113770476D01*
X119379524Y-113735779D01*
X119348396Y-113697850D01*
X119321136Y-113657051D01*
X119298005Y-113613778D01*
X119279228Y-113568445D01*
X119264984Y-113521490D01*
X119255412Y-113473365D01*
X119250602Y-113424534D01*
X119250602Y-113400000D01*
X119250000Y-113400000D01*
X119250000Y-112900000D01*
X120750000Y-112900000D01*
X120750000Y-113400000D01*
X120749398Y-113400000D01*
G37*
G36*
X119250000Y-112600000D02*
G01*
X119250000Y-112100000D01*
X119250602Y-112100000D01*
X119250602Y-112075466D01*
X119255412Y-112026635D01*
X119264984Y-111978510D01*
X119279228Y-111931555D01*
X119298005Y-111886222D01*
X119321136Y-111842949D01*
X119348396Y-111802150D01*
X119379524Y-111764221D01*
X119414221Y-111729524D01*
X119452150Y-111698396D01*
X119492949Y-111671136D01*
X119536222Y-111648005D01*
X119581555Y-111629228D01*
X119628510Y-111614984D01*
X119676635Y-111605412D01*
X119725466Y-111600602D01*
X119750000Y-111600602D01*
X119750000Y-111600000D01*
X120250000Y-111600000D01*
X120250000Y-111600602D01*
X120274534Y-111600602D01*
X120323365Y-111605412D01*
X120371490Y-111614984D01*
X120418445Y-111629228D01*
X120463778Y-111648005D01*
X120507051Y-111671136D01*
X120547850Y-111698396D01*
X120585779Y-111729524D01*
X120620476Y-111764221D01*
X120651604Y-111802150D01*
X120678864Y-111842949D01*
X120701995Y-111886222D01*
X120720772Y-111931555D01*
X120735016Y-111978510D01*
X120744588Y-112026635D01*
X120749398Y-112075466D01*
X120749398Y-112100000D01*
X120750000Y-112100000D01*
X120750000Y-112600000D01*
X119250000Y-112600000D01*
G37*
%TD*%
%TO.C,JP110*%
G36*
X139250000Y-112600000D02*
G01*
X139250000Y-112100000D01*
X139250602Y-112100000D01*
X139250602Y-112075466D01*
X139255412Y-112026635D01*
X139264984Y-111978510D01*
X139279228Y-111931555D01*
X139298005Y-111886222D01*
X139321136Y-111842949D01*
X139348396Y-111802150D01*
X139379524Y-111764221D01*
X139414221Y-111729524D01*
X139452150Y-111698396D01*
X139492949Y-111671136D01*
X139536222Y-111648005D01*
X139581555Y-111629228D01*
X139628510Y-111614984D01*
X139676635Y-111605412D01*
X139725466Y-111600602D01*
X139750000Y-111600602D01*
X139750000Y-111600000D01*
X140250000Y-111600000D01*
X140250000Y-111600602D01*
X140274534Y-111600602D01*
X140323365Y-111605412D01*
X140371490Y-111614984D01*
X140418445Y-111629228D01*
X140463778Y-111648005D01*
X140507051Y-111671136D01*
X140547850Y-111698396D01*
X140585779Y-111729524D01*
X140620476Y-111764221D01*
X140651604Y-111802150D01*
X140678864Y-111842949D01*
X140701995Y-111886222D01*
X140720772Y-111931555D01*
X140735016Y-111978510D01*
X140744588Y-112026635D01*
X140749398Y-112075466D01*
X140749398Y-112100000D01*
X140750000Y-112100000D01*
X140750000Y-112600000D01*
X139250000Y-112600000D01*
G37*
G36*
X140749398Y-113400000D02*
G01*
X140749398Y-113424534D01*
X140744588Y-113473365D01*
X140735016Y-113521490D01*
X140720772Y-113568445D01*
X140701995Y-113613778D01*
X140678864Y-113657051D01*
X140651604Y-113697850D01*
X140620476Y-113735779D01*
X140585779Y-113770476D01*
X140547850Y-113801604D01*
X140507051Y-113828864D01*
X140463778Y-113851995D01*
X140418445Y-113870772D01*
X140371490Y-113885016D01*
X140323365Y-113894588D01*
X140274534Y-113899398D01*
X140250000Y-113899398D01*
X140250000Y-113900000D01*
X139750000Y-113900000D01*
X139750000Y-113899398D01*
X139725466Y-113899398D01*
X139676635Y-113894588D01*
X139628510Y-113885016D01*
X139581555Y-113870772D01*
X139536222Y-113851995D01*
X139492949Y-113828864D01*
X139452150Y-113801604D01*
X139414221Y-113770476D01*
X139379524Y-113735779D01*
X139348396Y-113697850D01*
X139321136Y-113657051D01*
X139298005Y-113613778D01*
X139279228Y-113568445D01*
X139264984Y-113521490D01*
X139255412Y-113473365D01*
X139250602Y-113424534D01*
X139250602Y-113400000D01*
X139250000Y-113400000D01*
X139250000Y-112900000D01*
X140750000Y-112900000D01*
X140750000Y-113400000D01*
X140749398Y-113400000D01*
G37*
%TD*%
%TO.C,JP111*%
G36*
X120749398Y-133400000D02*
G01*
X120749398Y-133424534D01*
X120744588Y-133473365D01*
X120735016Y-133521490D01*
X120720772Y-133568445D01*
X120701995Y-133613778D01*
X120678864Y-133657051D01*
X120651604Y-133697850D01*
X120620476Y-133735779D01*
X120585779Y-133770476D01*
X120547850Y-133801604D01*
X120507051Y-133828864D01*
X120463778Y-133851995D01*
X120418445Y-133870772D01*
X120371490Y-133885016D01*
X120323365Y-133894588D01*
X120274534Y-133899398D01*
X120250000Y-133899398D01*
X120250000Y-133900000D01*
X119750000Y-133900000D01*
X119750000Y-133899398D01*
X119725466Y-133899398D01*
X119676635Y-133894588D01*
X119628510Y-133885016D01*
X119581555Y-133870772D01*
X119536222Y-133851995D01*
X119492949Y-133828864D01*
X119452150Y-133801604D01*
X119414221Y-133770476D01*
X119379524Y-133735779D01*
X119348396Y-133697850D01*
X119321136Y-133657051D01*
X119298005Y-133613778D01*
X119279228Y-133568445D01*
X119264984Y-133521490D01*
X119255412Y-133473365D01*
X119250602Y-133424534D01*
X119250602Y-133400000D01*
X119250000Y-133400000D01*
X119250000Y-132900000D01*
X120750000Y-132900000D01*
X120750000Y-133400000D01*
X120749398Y-133400000D01*
G37*
G36*
X119250000Y-132600000D02*
G01*
X119250000Y-132100000D01*
X119250602Y-132100000D01*
X119250602Y-132075466D01*
X119255412Y-132026635D01*
X119264984Y-131978510D01*
X119279228Y-131931555D01*
X119298005Y-131886222D01*
X119321136Y-131842949D01*
X119348396Y-131802150D01*
X119379524Y-131764221D01*
X119414221Y-131729524D01*
X119452150Y-131698396D01*
X119492949Y-131671136D01*
X119536222Y-131648005D01*
X119581555Y-131629228D01*
X119628510Y-131614984D01*
X119676635Y-131605412D01*
X119725466Y-131600602D01*
X119750000Y-131600602D01*
X119750000Y-131600000D01*
X120250000Y-131600000D01*
X120250000Y-131600602D01*
X120274534Y-131600602D01*
X120323365Y-131605412D01*
X120371490Y-131614984D01*
X120418445Y-131629228D01*
X120463778Y-131648005D01*
X120507051Y-131671136D01*
X120547850Y-131698396D01*
X120585779Y-131729524D01*
X120620476Y-131764221D01*
X120651604Y-131802150D01*
X120678864Y-131842949D01*
X120701995Y-131886222D01*
X120720772Y-131931555D01*
X120735016Y-131978510D01*
X120744588Y-132026635D01*
X120749398Y-132075466D01*
X120749398Y-132100000D01*
X120750000Y-132100000D01*
X120750000Y-132600000D01*
X119250000Y-132600000D01*
G37*
%TD*%
%TO.C,JP112*%
G36*
X139250000Y-132600000D02*
G01*
X139250000Y-132100000D01*
X139250602Y-132100000D01*
X139250602Y-132075466D01*
X139255412Y-132026635D01*
X139264984Y-131978510D01*
X139279228Y-131931555D01*
X139298005Y-131886222D01*
X139321136Y-131842949D01*
X139348396Y-131802150D01*
X139379524Y-131764221D01*
X139414221Y-131729524D01*
X139452150Y-131698396D01*
X139492949Y-131671136D01*
X139536222Y-131648005D01*
X139581555Y-131629228D01*
X139628510Y-131614984D01*
X139676635Y-131605412D01*
X139725466Y-131600602D01*
X139750000Y-131600602D01*
X139750000Y-131600000D01*
X140250000Y-131600000D01*
X140250000Y-131600602D01*
X140274534Y-131600602D01*
X140323365Y-131605412D01*
X140371490Y-131614984D01*
X140418445Y-131629228D01*
X140463778Y-131648005D01*
X140507051Y-131671136D01*
X140547850Y-131698396D01*
X140585779Y-131729524D01*
X140620476Y-131764221D01*
X140651604Y-131802150D01*
X140678864Y-131842949D01*
X140701995Y-131886222D01*
X140720772Y-131931555D01*
X140735016Y-131978510D01*
X140744588Y-132026635D01*
X140749398Y-132075466D01*
X140749398Y-132100000D01*
X140750000Y-132100000D01*
X140750000Y-132600000D01*
X139250000Y-132600000D01*
G37*
G36*
X140749398Y-133400000D02*
G01*
X140749398Y-133424534D01*
X140744588Y-133473365D01*
X140735016Y-133521490D01*
X140720772Y-133568445D01*
X140701995Y-133613778D01*
X140678864Y-133657051D01*
X140651604Y-133697850D01*
X140620476Y-133735779D01*
X140585779Y-133770476D01*
X140547850Y-133801604D01*
X140507051Y-133828864D01*
X140463778Y-133851995D01*
X140418445Y-133870772D01*
X140371490Y-133885016D01*
X140323365Y-133894588D01*
X140274534Y-133899398D01*
X140250000Y-133899398D01*
X140250000Y-133900000D01*
X139750000Y-133900000D01*
X139750000Y-133899398D01*
X139725466Y-133899398D01*
X139676635Y-133894588D01*
X139628510Y-133885016D01*
X139581555Y-133870772D01*
X139536222Y-133851995D01*
X139492949Y-133828864D01*
X139452150Y-133801604D01*
X139414221Y-133770476D01*
X139379524Y-133735779D01*
X139348396Y-133697850D01*
X139321136Y-133657051D01*
X139298005Y-133613778D01*
X139279228Y-133568445D01*
X139264984Y-133521490D01*
X139255412Y-133473365D01*
X139250602Y-133424534D01*
X139250602Y-133400000D01*
X139250000Y-133400000D01*
X139250000Y-132900000D01*
X140750000Y-132900000D01*
X140750000Y-133400000D01*
X140749398Y-133400000D01*
G37*
%TD*%
%TO.C,R101*%
G36*
G01*
X110935000Y-112760000D02*
X110565000Y-112760000D01*
G75*
G02*
X110430000Y-112625000I0J135000D01*
G01*
X110430000Y-112355000D01*
G75*
G02*
X110565000Y-112220000I135000J0D01*
G01*
X110935000Y-112220000D01*
G75*
G02*
X111070000Y-112355000I0J-135000D01*
G01*
X111070000Y-112625000D01*
G75*
G02*
X110935000Y-112760000I-135000J0D01*
G01*
G37*
G36*
G01*
X110935000Y-113780000D02*
X110565000Y-113780000D01*
G75*
G02*
X110430000Y-113645000I0J135000D01*
G01*
X110430000Y-113375000D01*
G75*
G02*
X110565000Y-113240000I135000J0D01*
G01*
X110935000Y-113240000D01*
G75*
G02*
X111070000Y-113375000I0J-135000D01*
G01*
X111070000Y-113645000D01*
G75*
G02*
X110935000Y-113780000I-135000J0D01*
G01*
G37*
%TD*%
%TO.C,R102*%
G36*
G01*
X130935000Y-112760000D02*
X130565000Y-112760000D01*
G75*
G02*
X130430000Y-112625000I0J135000D01*
G01*
X130430000Y-112355000D01*
G75*
G02*
X130565000Y-112220000I135000J0D01*
G01*
X130935000Y-112220000D01*
G75*
G02*
X131070000Y-112355000I0J-135000D01*
G01*
X131070000Y-112625000D01*
G75*
G02*
X130935000Y-112760000I-135000J0D01*
G01*
G37*
G36*
G01*
X130935000Y-113780000D02*
X130565000Y-113780000D01*
G75*
G02*
X130430000Y-113645000I0J135000D01*
G01*
X130430000Y-113375000D01*
G75*
G02*
X130565000Y-113240000I135000J0D01*
G01*
X130935000Y-113240000D01*
G75*
G02*
X131070000Y-113375000I0J-135000D01*
G01*
X131070000Y-113645000D01*
G75*
G02*
X130935000Y-113780000I-135000J0D01*
G01*
G37*
%TD*%
%TO.C,R103*%
G36*
G01*
X110935000Y-133780000D02*
X110565000Y-133780000D01*
G75*
G02*
X110430000Y-133645000I0J135000D01*
G01*
X110430000Y-133375000D01*
G75*
G02*
X110565000Y-133240000I135000J0D01*
G01*
X110935000Y-133240000D01*
G75*
G02*
X111070000Y-133375000I0J-135000D01*
G01*
X111070000Y-133645000D01*
G75*
G02*
X110935000Y-133780000I-135000J0D01*
G01*
G37*
G36*
G01*
X110935000Y-132760000D02*
X110565000Y-132760000D01*
G75*
G02*
X110430000Y-132625000I0J135000D01*
G01*
X110430000Y-132355000D01*
G75*
G02*
X110565000Y-132220000I135000J0D01*
G01*
X110935000Y-132220000D01*
G75*
G02*
X111070000Y-132355000I0J-135000D01*
G01*
X111070000Y-132625000D01*
G75*
G02*
X110935000Y-132760000I-135000J0D01*
G01*
G37*
%TD*%
%TO.C,R104*%
G36*
G01*
X130935000Y-133780000D02*
X130565000Y-133780000D01*
G75*
G02*
X130430000Y-133645000I0J135000D01*
G01*
X130430000Y-133375000D01*
G75*
G02*
X130565000Y-133240000I135000J0D01*
G01*
X130935000Y-133240000D01*
G75*
G02*
X131070000Y-133375000I0J-135000D01*
G01*
X131070000Y-133645000D01*
G75*
G02*
X130935000Y-133780000I-135000J0D01*
G01*
G37*
G36*
G01*
X130935000Y-132760000D02*
X130565000Y-132760000D01*
G75*
G02*
X130430000Y-132625000I0J135000D01*
G01*
X130430000Y-132355000D01*
G75*
G02*
X130565000Y-132220000I135000J0D01*
G01*
X130935000Y-132220000D01*
G75*
G02*
X131070000Y-132355000I0J-135000D01*
G01*
X131070000Y-132625000D01*
G75*
G02*
X130935000Y-132760000I-135000J0D01*
G01*
G37*
%TD*%
D14*
%TO.C,H101*%
X105000000Y-145000000D03*
%TD*%
%TO.C,H102*%
X145000000Y-145000000D03*
%TD*%
%TO.C,H103*%
X145000000Y-105000000D03*
%TD*%
%TO.C,H104*%
X105000000Y-105000000D03*
%TD*%
M02*
