%TF.GenerationSoftware,KiCad,Pcbnew,5.1.9+dfsg1-1~bpo10+1*%
%TF.CreationDate,2021-09-26T18:57:24+00:00*%
%TF.ProjectId,ws2813-breakout,77733238-3133-42d6-9272-65616b6f7574,rev?*%
%TF.SameCoordinates,Original*%
%TF.FileFunction,Other,Fab,Top*%
%FSLAX46Y46*%
G04 Gerber Fmt 4.6, Leading zero omitted, Abs format (unit mm)*
G04 Created by KiCad (PCBNEW 5.1.9+dfsg1-1~bpo10+1) date 2021-09-26 18:57:24*
%MOMM*%
%LPD*%
G01*
G04 APERTURE LIST*
%ADD10C,0.100000*%
%ADD11C,0.150000*%
%ADD12C,0.040000*%
G04 APERTURE END LIST*
D10*
%TO.C,C101*%
X109500000Y-110750000D02*
X108500000Y-110750000D01*
X109500000Y-110250000D02*
X109500000Y-110750000D01*
X108500000Y-110250000D02*
X109500000Y-110250000D01*
X108500000Y-110750000D02*
X108500000Y-110250000D01*
%TO.C,C102*%
X128500000Y-110750000D02*
X128500000Y-110250000D01*
X128500000Y-110250000D02*
X129500000Y-110250000D01*
X129500000Y-110250000D02*
X129500000Y-110750000D01*
X129500000Y-110750000D02*
X128500000Y-110750000D01*
%TO.C,C103*%
X108500000Y-130750000D02*
X108500000Y-130250000D01*
X108500000Y-130250000D02*
X109500000Y-130250000D01*
X109500000Y-130250000D02*
X109500000Y-130750000D01*
X109500000Y-130750000D02*
X108500000Y-130750000D01*
%TO.C,C104*%
X129500000Y-130750000D02*
X128500000Y-130750000D01*
X129500000Y-130250000D02*
X129500000Y-130750000D01*
X128500000Y-130250000D02*
X129500000Y-130250000D01*
X128500000Y-130750000D02*
X128500000Y-130250000D01*
%TO.C,D101*%
X117000000Y-115000000D02*
G75*
G03*
X117000000Y-115000000I-2000000J0D01*
G01*
X112500000Y-117500000D02*
X112500000Y-112500000D01*
X117500000Y-117500000D02*
X112500000Y-117500000D01*
X117500000Y-112500000D02*
X117500000Y-117500000D01*
X112500000Y-112500000D02*
X117500000Y-112500000D01*
X112500000Y-113500000D02*
X113500000Y-112500000D01*
%TO.C,D102*%
X132500000Y-113500000D02*
X133500000Y-112500000D01*
X132500000Y-112500000D02*
X137500000Y-112500000D01*
X137500000Y-112500000D02*
X137500000Y-117500000D01*
X137500000Y-117500000D02*
X132500000Y-117500000D01*
X132500000Y-117500000D02*
X132500000Y-112500000D01*
X137000000Y-115000000D02*
G75*
G03*
X137000000Y-115000000I-2000000J0D01*
G01*
%TO.C,D103*%
X117000000Y-135000000D02*
G75*
G03*
X117000000Y-135000000I-2000000J0D01*
G01*
X112500000Y-137500000D02*
X112500000Y-132500000D01*
X117500000Y-137500000D02*
X112500000Y-137500000D01*
X117500000Y-132500000D02*
X117500000Y-137500000D01*
X112500000Y-132500000D02*
X117500000Y-132500000D01*
X112500000Y-133500000D02*
X113500000Y-132500000D01*
%TO.C,D104*%
X132500000Y-133500000D02*
X133500000Y-132500000D01*
X132500000Y-132500000D02*
X137500000Y-132500000D01*
X137500000Y-132500000D02*
X137500000Y-137500000D01*
X137500000Y-137500000D02*
X132500000Y-137500000D01*
X132500000Y-137500000D02*
X132500000Y-132500000D01*
X137000000Y-135000000D02*
G75*
G03*
X137000000Y-135000000I-2000000J0D01*
G01*
%TO.C,J101*%
X104865000Y-118730000D02*
X106770000Y-118730000D01*
X106770000Y-118730000D02*
X106770000Y-133970000D01*
X106770000Y-133970000D02*
X104230000Y-133970000D01*
X104230000Y-133970000D02*
X104230000Y-119365000D01*
X104230000Y-119365000D02*
X104865000Y-118730000D01*
%TO.C,R101*%
X111020000Y-112475000D02*
X111020000Y-113525000D01*
X110480000Y-112475000D02*
X111020000Y-112475000D01*
X110480000Y-113525000D02*
X110480000Y-112475000D01*
X111020000Y-113525000D02*
X110480000Y-113525000D01*
%TO.C,R102*%
X131020000Y-112475000D02*
X131020000Y-113525000D01*
X130480000Y-112475000D02*
X131020000Y-112475000D01*
X130480000Y-113525000D02*
X130480000Y-112475000D01*
X131020000Y-113525000D02*
X130480000Y-113525000D01*
%TO.C,R103*%
X111020000Y-133525000D02*
X110480000Y-133525000D01*
X110480000Y-133525000D02*
X110480000Y-132475000D01*
X110480000Y-132475000D02*
X111020000Y-132475000D01*
X111020000Y-132475000D02*
X111020000Y-133525000D01*
%TO.C,R104*%
X131020000Y-133525000D02*
X130480000Y-133525000D01*
X130480000Y-133525000D02*
X130480000Y-132475000D01*
X130480000Y-132475000D02*
X131020000Y-132475000D01*
X131020000Y-132475000D02*
X131020000Y-133525000D01*
%TD*%
%TO.C,C101*%
D11*
X107880952Y-112112380D02*
X107309523Y-112112380D01*
X107595238Y-112112380D02*
X107595238Y-111112380D01*
X107500000Y-111255238D01*
X107404761Y-111350476D01*
X107309523Y-111398095D01*
X108500000Y-111112380D02*
X108595238Y-111112380D01*
X108690476Y-111160000D01*
X108738095Y-111207619D01*
X108785714Y-111302857D01*
X108833333Y-111493333D01*
X108833333Y-111731428D01*
X108785714Y-111921904D01*
X108738095Y-112017142D01*
X108690476Y-112064761D01*
X108595238Y-112112380D01*
X108500000Y-112112380D01*
X108404761Y-112064761D01*
X108357142Y-112017142D01*
X108309523Y-111921904D01*
X108261904Y-111731428D01*
X108261904Y-111493333D01*
X108309523Y-111302857D01*
X108357142Y-111207619D01*
X108404761Y-111160000D01*
X108500000Y-111112380D01*
X109452380Y-111112380D02*
X109547619Y-111112380D01*
X109642857Y-111160000D01*
X109690476Y-111207619D01*
X109738095Y-111302857D01*
X109785714Y-111493333D01*
X109785714Y-111731428D01*
X109738095Y-111921904D01*
X109690476Y-112017142D01*
X109642857Y-112064761D01*
X109547619Y-112112380D01*
X109452380Y-112112380D01*
X109357142Y-112064761D01*
X109309523Y-112017142D01*
X109261904Y-111921904D01*
X109214285Y-111731428D01*
X109214285Y-111493333D01*
X109261904Y-111302857D01*
X109309523Y-111207619D01*
X109357142Y-111160000D01*
X109452380Y-111112380D01*
X110214285Y-111445714D02*
X110214285Y-112112380D01*
X110214285Y-111540952D02*
X110261904Y-111493333D01*
X110357142Y-111445714D01*
X110500000Y-111445714D01*
X110595238Y-111493333D01*
X110642857Y-111588571D01*
X110642857Y-112112380D01*
D12*
X108720238Y-110589285D02*
X108708333Y-110601190D01*
X108672619Y-110613095D01*
X108648809Y-110613095D01*
X108613095Y-110601190D01*
X108589285Y-110577380D01*
X108577380Y-110553571D01*
X108565476Y-110505952D01*
X108565476Y-110470238D01*
X108577380Y-110422619D01*
X108589285Y-110398809D01*
X108613095Y-110375000D01*
X108648809Y-110363095D01*
X108672619Y-110363095D01*
X108708333Y-110375000D01*
X108720238Y-110386904D01*
X108958333Y-110613095D02*
X108815476Y-110613095D01*
X108886904Y-110613095D02*
X108886904Y-110363095D01*
X108863095Y-110398809D01*
X108839285Y-110422619D01*
X108815476Y-110434523D01*
X109113095Y-110363095D02*
X109136904Y-110363095D01*
X109160714Y-110375000D01*
X109172619Y-110386904D01*
X109184523Y-110410714D01*
X109196428Y-110458333D01*
X109196428Y-110517857D01*
X109184523Y-110565476D01*
X109172619Y-110589285D01*
X109160714Y-110601190D01*
X109136904Y-110613095D01*
X109113095Y-110613095D01*
X109089285Y-110601190D01*
X109077380Y-110589285D01*
X109065476Y-110565476D01*
X109053571Y-110517857D01*
X109053571Y-110458333D01*
X109065476Y-110410714D01*
X109077380Y-110386904D01*
X109089285Y-110375000D01*
X109113095Y-110363095D01*
X109434523Y-110613095D02*
X109291666Y-110613095D01*
X109363095Y-110613095D02*
X109363095Y-110363095D01*
X109339285Y-110398809D01*
X109315476Y-110422619D01*
X109291666Y-110434523D01*
%TO.C,C102*%
D11*
X127880952Y-112112380D02*
X127309523Y-112112380D01*
X127595238Y-112112380D02*
X127595238Y-111112380D01*
X127500000Y-111255238D01*
X127404761Y-111350476D01*
X127309523Y-111398095D01*
X128500000Y-111112380D02*
X128595238Y-111112380D01*
X128690476Y-111160000D01*
X128738095Y-111207619D01*
X128785714Y-111302857D01*
X128833333Y-111493333D01*
X128833333Y-111731428D01*
X128785714Y-111921904D01*
X128738095Y-112017142D01*
X128690476Y-112064761D01*
X128595238Y-112112380D01*
X128500000Y-112112380D01*
X128404761Y-112064761D01*
X128357142Y-112017142D01*
X128309523Y-111921904D01*
X128261904Y-111731428D01*
X128261904Y-111493333D01*
X128309523Y-111302857D01*
X128357142Y-111207619D01*
X128404761Y-111160000D01*
X128500000Y-111112380D01*
X129452380Y-111112380D02*
X129547619Y-111112380D01*
X129642857Y-111160000D01*
X129690476Y-111207619D01*
X129738095Y-111302857D01*
X129785714Y-111493333D01*
X129785714Y-111731428D01*
X129738095Y-111921904D01*
X129690476Y-112017142D01*
X129642857Y-112064761D01*
X129547619Y-112112380D01*
X129452380Y-112112380D01*
X129357142Y-112064761D01*
X129309523Y-112017142D01*
X129261904Y-111921904D01*
X129214285Y-111731428D01*
X129214285Y-111493333D01*
X129261904Y-111302857D01*
X129309523Y-111207619D01*
X129357142Y-111160000D01*
X129452380Y-111112380D01*
X130214285Y-111445714D02*
X130214285Y-112112380D01*
X130214285Y-111540952D02*
X130261904Y-111493333D01*
X130357142Y-111445714D01*
X130500000Y-111445714D01*
X130595238Y-111493333D01*
X130642857Y-111588571D01*
X130642857Y-112112380D01*
D12*
X128720238Y-110589285D02*
X128708333Y-110601190D01*
X128672619Y-110613095D01*
X128648809Y-110613095D01*
X128613095Y-110601190D01*
X128589285Y-110577380D01*
X128577380Y-110553571D01*
X128565476Y-110505952D01*
X128565476Y-110470238D01*
X128577380Y-110422619D01*
X128589285Y-110398809D01*
X128613095Y-110375000D01*
X128648809Y-110363095D01*
X128672619Y-110363095D01*
X128708333Y-110375000D01*
X128720238Y-110386904D01*
X128958333Y-110613095D02*
X128815476Y-110613095D01*
X128886904Y-110613095D02*
X128886904Y-110363095D01*
X128863095Y-110398809D01*
X128839285Y-110422619D01*
X128815476Y-110434523D01*
X129113095Y-110363095D02*
X129136904Y-110363095D01*
X129160714Y-110375000D01*
X129172619Y-110386904D01*
X129184523Y-110410714D01*
X129196428Y-110458333D01*
X129196428Y-110517857D01*
X129184523Y-110565476D01*
X129172619Y-110589285D01*
X129160714Y-110601190D01*
X129136904Y-110613095D01*
X129113095Y-110613095D01*
X129089285Y-110601190D01*
X129077380Y-110589285D01*
X129065476Y-110565476D01*
X129053571Y-110517857D01*
X129053571Y-110458333D01*
X129065476Y-110410714D01*
X129077380Y-110386904D01*
X129089285Y-110375000D01*
X129113095Y-110363095D01*
X129291666Y-110386904D02*
X129303571Y-110375000D01*
X129327380Y-110363095D01*
X129386904Y-110363095D01*
X129410714Y-110375000D01*
X129422619Y-110386904D01*
X129434523Y-110410714D01*
X129434523Y-110434523D01*
X129422619Y-110470238D01*
X129279761Y-110613095D01*
X129434523Y-110613095D01*
%TO.C,C103*%
D11*
X107880952Y-132112380D02*
X107309523Y-132112380D01*
X107595238Y-132112380D02*
X107595238Y-131112380D01*
X107500000Y-131255238D01*
X107404761Y-131350476D01*
X107309523Y-131398095D01*
X108500000Y-131112380D02*
X108595238Y-131112380D01*
X108690476Y-131160000D01*
X108738095Y-131207619D01*
X108785714Y-131302857D01*
X108833333Y-131493333D01*
X108833333Y-131731428D01*
X108785714Y-131921904D01*
X108738095Y-132017142D01*
X108690476Y-132064761D01*
X108595238Y-132112380D01*
X108500000Y-132112380D01*
X108404761Y-132064761D01*
X108357142Y-132017142D01*
X108309523Y-131921904D01*
X108261904Y-131731428D01*
X108261904Y-131493333D01*
X108309523Y-131302857D01*
X108357142Y-131207619D01*
X108404761Y-131160000D01*
X108500000Y-131112380D01*
X109452380Y-131112380D02*
X109547619Y-131112380D01*
X109642857Y-131160000D01*
X109690476Y-131207619D01*
X109738095Y-131302857D01*
X109785714Y-131493333D01*
X109785714Y-131731428D01*
X109738095Y-131921904D01*
X109690476Y-132017142D01*
X109642857Y-132064761D01*
X109547619Y-132112380D01*
X109452380Y-132112380D01*
X109357142Y-132064761D01*
X109309523Y-132017142D01*
X109261904Y-131921904D01*
X109214285Y-131731428D01*
X109214285Y-131493333D01*
X109261904Y-131302857D01*
X109309523Y-131207619D01*
X109357142Y-131160000D01*
X109452380Y-131112380D01*
X110214285Y-131445714D02*
X110214285Y-132112380D01*
X110214285Y-131540952D02*
X110261904Y-131493333D01*
X110357142Y-131445714D01*
X110500000Y-131445714D01*
X110595238Y-131493333D01*
X110642857Y-131588571D01*
X110642857Y-132112380D01*
D12*
X108720238Y-130589285D02*
X108708333Y-130601190D01*
X108672619Y-130613095D01*
X108648809Y-130613095D01*
X108613095Y-130601190D01*
X108589285Y-130577380D01*
X108577380Y-130553571D01*
X108565476Y-130505952D01*
X108565476Y-130470238D01*
X108577380Y-130422619D01*
X108589285Y-130398809D01*
X108613095Y-130375000D01*
X108648809Y-130363095D01*
X108672619Y-130363095D01*
X108708333Y-130375000D01*
X108720238Y-130386904D01*
X108958333Y-130613095D02*
X108815476Y-130613095D01*
X108886904Y-130613095D02*
X108886904Y-130363095D01*
X108863095Y-130398809D01*
X108839285Y-130422619D01*
X108815476Y-130434523D01*
X109113095Y-130363095D02*
X109136904Y-130363095D01*
X109160714Y-130375000D01*
X109172619Y-130386904D01*
X109184523Y-130410714D01*
X109196428Y-130458333D01*
X109196428Y-130517857D01*
X109184523Y-130565476D01*
X109172619Y-130589285D01*
X109160714Y-130601190D01*
X109136904Y-130613095D01*
X109113095Y-130613095D01*
X109089285Y-130601190D01*
X109077380Y-130589285D01*
X109065476Y-130565476D01*
X109053571Y-130517857D01*
X109053571Y-130458333D01*
X109065476Y-130410714D01*
X109077380Y-130386904D01*
X109089285Y-130375000D01*
X109113095Y-130363095D01*
X109279761Y-130363095D02*
X109434523Y-130363095D01*
X109351190Y-130458333D01*
X109386904Y-130458333D01*
X109410714Y-130470238D01*
X109422619Y-130482142D01*
X109434523Y-130505952D01*
X109434523Y-130565476D01*
X109422619Y-130589285D01*
X109410714Y-130601190D01*
X109386904Y-130613095D01*
X109315476Y-130613095D01*
X109291666Y-130601190D01*
X109279761Y-130589285D01*
%TO.C,C104*%
D11*
X127880952Y-132112380D02*
X127309523Y-132112380D01*
X127595238Y-132112380D02*
X127595238Y-131112380D01*
X127500000Y-131255238D01*
X127404761Y-131350476D01*
X127309523Y-131398095D01*
X128500000Y-131112380D02*
X128595238Y-131112380D01*
X128690476Y-131160000D01*
X128738095Y-131207619D01*
X128785714Y-131302857D01*
X128833333Y-131493333D01*
X128833333Y-131731428D01*
X128785714Y-131921904D01*
X128738095Y-132017142D01*
X128690476Y-132064761D01*
X128595238Y-132112380D01*
X128500000Y-132112380D01*
X128404761Y-132064761D01*
X128357142Y-132017142D01*
X128309523Y-131921904D01*
X128261904Y-131731428D01*
X128261904Y-131493333D01*
X128309523Y-131302857D01*
X128357142Y-131207619D01*
X128404761Y-131160000D01*
X128500000Y-131112380D01*
X129452380Y-131112380D02*
X129547619Y-131112380D01*
X129642857Y-131160000D01*
X129690476Y-131207619D01*
X129738095Y-131302857D01*
X129785714Y-131493333D01*
X129785714Y-131731428D01*
X129738095Y-131921904D01*
X129690476Y-132017142D01*
X129642857Y-132064761D01*
X129547619Y-132112380D01*
X129452380Y-132112380D01*
X129357142Y-132064761D01*
X129309523Y-132017142D01*
X129261904Y-131921904D01*
X129214285Y-131731428D01*
X129214285Y-131493333D01*
X129261904Y-131302857D01*
X129309523Y-131207619D01*
X129357142Y-131160000D01*
X129452380Y-131112380D01*
X130214285Y-131445714D02*
X130214285Y-132112380D01*
X130214285Y-131540952D02*
X130261904Y-131493333D01*
X130357142Y-131445714D01*
X130500000Y-131445714D01*
X130595238Y-131493333D01*
X130642857Y-131588571D01*
X130642857Y-132112380D01*
D12*
X128720238Y-130589285D02*
X128708333Y-130601190D01*
X128672619Y-130613095D01*
X128648809Y-130613095D01*
X128613095Y-130601190D01*
X128589285Y-130577380D01*
X128577380Y-130553571D01*
X128565476Y-130505952D01*
X128565476Y-130470238D01*
X128577380Y-130422619D01*
X128589285Y-130398809D01*
X128613095Y-130375000D01*
X128648809Y-130363095D01*
X128672619Y-130363095D01*
X128708333Y-130375000D01*
X128720238Y-130386904D01*
X128958333Y-130613095D02*
X128815476Y-130613095D01*
X128886904Y-130613095D02*
X128886904Y-130363095D01*
X128863095Y-130398809D01*
X128839285Y-130422619D01*
X128815476Y-130434523D01*
X129113095Y-130363095D02*
X129136904Y-130363095D01*
X129160714Y-130375000D01*
X129172619Y-130386904D01*
X129184523Y-130410714D01*
X129196428Y-130458333D01*
X129196428Y-130517857D01*
X129184523Y-130565476D01*
X129172619Y-130589285D01*
X129160714Y-130601190D01*
X129136904Y-130613095D01*
X129113095Y-130613095D01*
X129089285Y-130601190D01*
X129077380Y-130589285D01*
X129065476Y-130565476D01*
X129053571Y-130517857D01*
X129053571Y-130458333D01*
X129065476Y-130410714D01*
X129077380Y-130386904D01*
X129089285Y-130375000D01*
X129113095Y-130363095D01*
X129410714Y-130446428D02*
X129410714Y-130613095D01*
X129351190Y-130351190D02*
X129291666Y-130529761D01*
X129446428Y-130529761D01*
%TO.C,D101*%
D11*
X112190476Y-118452380D02*
X112428571Y-119452380D01*
X112619047Y-118738095D01*
X112809523Y-119452380D01*
X113047619Y-118452380D01*
X113380952Y-119404761D02*
X113523809Y-119452380D01*
X113761904Y-119452380D01*
X113857142Y-119404761D01*
X113904761Y-119357142D01*
X113952380Y-119261904D01*
X113952380Y-119166666D01*
X113904761Y-119071428D01*
X113857142Y-119023809D01*
X113761904Y-118976190D01*
X113571428Y-118928571D01*
X113476190Y-118880952D01*
X113428571Y-118833333D01*
X113380952Y-118738095D01*
X113380952Y-118642857D01*
X113428571Y-118547619D01*
X113476190Y-118500000D01*
X113571428Y-118452380D01*
X113809523Y-118452380D01*
X113952380Y-118500000D01*
X114333333Y-118547619D02*
X114380952Y-118500000D01*
X114476190Y-118452380D01*
X114714285Y-118452380D01*
X114809523Y-118500000D01*
X114857142Y-118547619D01*
X114904761Y-118642857D01*
X114904761Y-118738095D01*
X114857142Y-118880952D01*
X114285714Y-119452380D01*
X114904761Y-119452380D01*
X115476190Y-118880952D02*
X115380952Y-118833333D01*
X115333333Y-118785714D01*
X115285714Y-118690476D01*
X115285714Y-118642857D01*
X115333333Y-118547619D01*
X115380952Y-118500000D01*
X115476190Y-118452380D01*
X115666666Y-118452380D01*
X115761904Y-118500000D01*
X115809523Y-118547619D01*
X115857142Y-118642857D01*
X115857142Y-118690476D01*
X115809523Y-118785714D01*
X115761904Y-118833333D01*
X115666666Y-118880952D01*
X115476190Y-118880952D01*
X115380952Y-118928571D01*
X115333333Y-118976190D01*
X115285714Y-119071428D01*
X115285714Y-119261904D01*
X115333333Y-119357142D01*
X115380952Y-119404761D01*
X115476190Y-119452380D01*
X115666666Y-119452380D01*
X115761904Y-119404761D01*
X115809523Y-119357142D01*
X115857142Y-119261904D01*
X115857142Y-119071428D01*
X115809523Y-118976190D01*
X115761904Y-118928571D01*
X115666666Y-118880952D01*
X116809523Y-119452380D02*
X116238095Y-119452380D01*
X116523809Y-119452380D02*
X116523809Y-118452380D01*
X116428571Y-118595238D01*
X116333333Y-118690476D01*
X116238095Y-118738095D01*
X117142857Y-118452380D02*
X117761904Y-118452380D01*
X117428571Y-118833333D01*
X117571428Y-118833333D01*
X117666666Y-118880952D01*
X117714285Y-118928571D01*
X117761904Y-119023809D01*
X117761904Y-119261904D01*
X117714285Y-119357142D01*
X117666666Y-119404761D01*
X117571428Y-119452380D01*
X117285714Y-119452380D01*
X117190476Y-119404761D01*
X117142857Y-119357142D01*
X113647619Y-115361904D02*
X113647619Y-114561904D01*
X113838095Y-114561904D01*
X113952380Y-114600000D01*
X114028571Y-114676190D01*
X114066666Y-114752380D01*
X114104761Y-114904761D01*
X114104761Y-115019047D01*
X114066666Y-115171428D01*
X114028571Y-115247619D01*
X113952380Y-115323809D01*
X113838095Y-115361904D01*
X113647619Y-115361904D01*
X114866666Y-115361904D02*
X114409523Y-115361904D01*
X114638095Y-115361904D02*
X114638095Y-114561904D01*
X114561904Y-114676190D01*
X114485714Y-114752380D01*
X114409523Y-114790476D01*
X115361904Y-114561904D02*
X115438095Y-114561904D01*
X115514285Y-114600000D01*
X115552380Y-114638095D01*
X115590476Y-114714285D01*
X115628571Y-114866666D01*
X115628571Y-115057142D01*
X115590476Y-115209523D01*
X115552380Y-115285714D01*
X115514285Y-115323809D01*
X115438095Y-115361904D01*
X115361904Y-115361904D01*
X115285714Y-115323809D01*
X115247619Y-115285714D01*
X115209523Y-115209523D01*
X115171428Y-115057142D01*
X115171428Y-114866666D01*
X115209523Y-114714285D01*
X115247619Y-114638095D01*
X115285714Y-114600000D01*
X115361904Y-114561904D01*
X116390476Y-115361904D02*
X115933333Y-115361904D01*
X116161904Y-115361904D02*
X116161904Y-114561904D01*
X116085714Y-114676190D01*
X116009523Y-114752380D01*
X115933333Y-114790476D01*
%TO.C,D102*%
X132190476Y-118452380D02*
X132428571Y-119452380D01*
X132619047Y-118738095D01*
X132809523Y-119452380D01*
X133047619Y-118452380D01*
X133380952Y-119404761D02*
X133523809Y-119452380D01*
X133761904Y-119452380D01*
X133857142Y-119404761D01*
X133904761Y-119357142D01*
X133952380Y-119261904D01*
X133952380Y-119166666D01*
X133904761Y-119071428D01*
X133857142Y-119023809D01*
X133761904Y-118976190D01*
X133571428Y-118928571D01*
X133476190Y-118880952D01*
X133428571Y-118833333D01*
X133380952Y-118738095D01*
X133380952Y-118642857D01*
X133428571Y-118547619D01*
X133476190Y-118500000D01*
X133571428Y-118452380D01*
X133809523Y-118452380D01*
X133952380Y-118500000D01*
X134333333Y-118547619D02*
X134380952Y-118500000D01*
X134476190Y-118452380D01*
X134714285Y-118452380D01*
X134809523Y-118500000D01*
X134857142Y-118547619D01*
X134904761Y-118642857D01*
X134904761Y-118738095D01*
X134857142Y-118880952D01*
X134285714Y-119452380D01*
X134904761Y-119452380D01*
X135476190Y-118880952D02*
X135380952Y-118833333D01*
X135333333Y-118785714D01*
X135285714Y-118690476D01*
X135285714Y-118642857D01*
X135333333Y-118547619D01*
X135380952Y-118500000D01*
X135476190Y-118452380D01*
X135666666Y-118452380D01*
X135761904Y-118500000D01*
X135809523Y-118547619D01*
X135857142Y-118642857D01*
X135857142Y-118690476D01*
X135809523Y-118785714D01*
X135761904Y-118833333D01*
X135666666Y-118880952D01*
X135476190Y-118880952D01*
X135380952Y-118928571D01*
X135333333Y-118976190D01*
X135285714Y-119071428D01*
X135285714Y-119261904D01*
X135333333Y-119357142D01*
X135380952Y-119404761D01*
X135476190Y-119452380D01*
X135666666Y-119452380D01*
X135761904Y-119404761D01*
X135809523Y-119357142D01*
X135857142Y-119261904D01*
X135857142Y-119071428D01*
X135809523Y-118976190D01*
X135761904Y-118928571D01*
X135666666Y-118880952D01*
X136809523Y-119452380D02*
X136238095Y-119452380D01*
X136523809Y-119452380D02*
X136523809Y-118452380D01*
X136428571Y-118595238D01*
X136333333Y-118690476D01*
X136238095Y-118738095D01*
X137142857Y-118452380D02*
X137761904Y-118452380D01*
X137428571Y-118833333D01*
X137571428Y-118833333D01*
X137666666Y-118880952D01*
X137714285Y-118928571D01*
X137761904Y-119023809D01*
X137761904Y-119261904D01*
X137714285Y-119357142D01*
X137666666Y-119404761D01*
X137571428Y-119452380D01*
X137285714Y-119452380D01*
X137190476Y-119404761D01*
X137142857Y-119357142D01*
X133647619Y-115361904D02*
X133647619Y-114561904D01*
X133838095Y-114561904D01*
X133952380Y-114600000D01*
X134028571Y-114676190D01*
X134066666Y-114752380D01*
X134104761Y-114904761D01*
X134104761Y-115019047D01*
X134066666Y-115171428D01*
X134028571Y-115247619D01*
X133952380Y-115323809D01*
X133838095Y-115361904D01*
X133647619Y-115361904D01*
X134866666Y-115361904D02*
X134409523Y-115361904D01*
X134638095Y-115361904D02*
X134638095Y-114561904D01*
X134561904Y-114676190D01*
X134485714Y-114752380D01*
X134409523Y-114790476D01*
X135361904Y-114561904D02*
X135438095Y-114561904D01*
X135514285Y-114600000D01*
X135552380Y-114638095D01*
X135590476Y-114714285D01*
X135628571Y-114866666D01*
X135628571Y-115057142D01*
X135590476Y-115209523D01*
X135552380Y-115285714D01*
X135514285Y-115323809D01*
X135438095Y-115361904D01*
X135361904Y-115361904D01*
X135285714Y-115323809D01*
X135247619Y-115285714D01*
X135209523Y-115209523D01*
X135171428Y-115057142D01*
X135171428Y-114866666D01*
X135209523Y-114714285D01*
X135247619Y-114638095D01*
X135285714Y-114600000D01*
X135361904Y-114561904D01*
X135933333Y-114638095D02*
X135971428Y-114600000D01*
X136047619Y-114561904D01*
X136238095Y-114561904D01*
X136314285Y-114600000D01*
X136352380Y-114638095D01*
X136390476Y-114714285D01*
X136390476Y-114790476D01*
X136352380Y-114904761D01*
X135895238Y-115361904D01*
X136390476Y-115361904D01*
%TO.C,D103*%
X112190476Y-138452380D02*
X112428571Y-139452380D01*
X112619047Y-138738095D01*
X112809523Y-139452380D01*
X113047619Y-138452380D01*
X113380952Y-139404761D02*
X113523809Y-139452380D01*
X113761904Y-139452380D01*
X113857142Y-139404761D01*
X113904761Y-139357142D01*
X113952380Y-139261904D01*
X113952380Y-139166666D01*
X113904761Y-139071428D01*
X113857142Y-139023809D01*
X113761904Y-138976190D01*
X113571428Y-138928571D01*
X113476190Y-138880952D01*
X113428571Y-138833333D01*
X113380952Y-138738095D01*
X113380952Y-138642857D01*
X113428571Y-138547619D01*
X113476190Y-138500000D01*
X113571428Y-138452380D01*
X113809523Y-138452380D01*
X113952380Y-138500000D01*
X114333333Y-138547619D02*
X114380952Y-138500000D01*
X114476190Y-138452380D01*
X114714285Y-138452380D01*
X114809523Y-138500000D01*
X114857142Y-138547619D01*
X114904761Y-138642857D01*
X114904761Y-138738095D01*
X114857142Y-138880952D01*
X114285714Y-139452380D01*
X114904761Y-139452380D01*
X115476190Y-138880952D02*
X115380952Y-138833333D01*
X115333333Y-138785714D01*
X115285714Y-138690476D01*
X115285714Y-138642857D01*
X115333333Y-138547619D01*
X115380952Y-138500000D01*
X115476190Y-138452380D01*
X115666666Y-138452380D01*
X115761904Y-138500000D01*
X115809523Y-138547619D01*
X115857142Y-138642857D01*
X115857142Y-138690476D01*
X115809523Y-138785714D01*
X115761904Y-138833333D01*
X115666666Y-138880952D01*
X115476190Y-138880952D01*
X115380952Y-138928571D01*
X115333333Y-138976190D01*
X115285714Y-139071428D01*
X115285714Y-139261904D01*
X115333333Y-139357142D01*
X115380952Y-139404761D01*
X115476190Y-139452380D01*
X115666666Y-139452380D01*
X115761904Y-139404761D01*
X115809523Y-139357142D01*
X115857142Y-139261904D01*
X115857142Y-139071428D01*
X115809523Y-138976190D01*
X115761904Y-138928571D01*
X115666666Y-138880952D01*
X116809523Y-139452380D02*
X116238095Y-139452380D01*
X116523809Y-139452380D02*
X116523809Y-138452380D01*
X116428571Y-138595238D01*
X116333333Y-138690476D01*
X116238095Y-138738095D01*
X117142857Y-138452380D02*
X117761904Y-138452380D01*
X117428571Y-138833333D01*
X117571428Y-138833333D01*
X117666666Y-138880952D01*
X117714285Y-138928571D01*
X117761904Y-139023809D01*
X117761904Y-139261904D01*
X117714285Y-139357142D01*
X117666666Y-139404761D01*
X117571428Y-139452380D01*
X117285714Y-139452380D01*
X117190476Y-139404761D01*
X117142857Y-139357142D01*
X113647619Y-135361904D02*
X113647619Y-134561904D01*
X113838095Y-134561904D01*
X113952380Y-134600000D01*
X114028571Y-134676190D01*
X114066666Y-134752380D01*
X114104761Y-134904761D01*
X114104761Y-135019047D01*
X114066666Y-135171428D01*
X114028571Y-135247619D01*
X113952380Y-135323809D01*
X113838095Y-135361904D01*
X113647619Y-135361904D01*
X114866666Y-135361904D02*
X114409523Y-135361904D01*
X114638095Y-135361904D02*
X114638095Y-134561904D01*
X114561904Y-134676190D01*
X114485714Y-134752380D01*
X114409523Y-134790476D01*
X115361904Y-134561904D02*
X115438095Y-134561904D01*
X115514285Y-134600000D01*
X115552380Y-134638095D01*
X115590476Y-134714285D01*
X115628571Y-134866666D01*
X115628571Y-135057142D01*
X115590476Y-135209523D01*
X115552380Y-135285714D01*
X115514285Y-135323809D01*
X115438095Y-135361904D01*
X115361904Y-135361904D01*
X115285714Y-135323809D01*
X115247619Y-135285714D01*
X115209523Y-135209523D01*
X115171428Y-135057142D01*
X115171428Y-134866666D01*
X115209523Y-134714285D01*
X115247619Y-134638095D01*
X115285714Y-134600000D01*
X115361904Y-134561904D01*
X115895238Y-134561904D02*
X116390476Y-134561904D01*
X116123809Y-134866666D01*
X116238095Y-134866666D01*
X116314285Y-134904761D01*
X116352380Y-134942857D01*
X116390476Y-135019047D01*
X116390476Y-135209523D01*
X116352380Y-135285714D01*
X116314285Y-135323809D01*
X116238095Y-135361904D01*
X116009523Y-135361904D01*
X115933333Y-135323809D01*
X115895238Y-135285714D01*
%TO.C,D104*%
X132190476Y-138452380D02*
X132428571Y-139452380D01*
X132619047Y-138738095D01*
X132809523Y-139452380D01*
X133047619Y-138452380D01*
X133380952Y-139404761D02*
X133523809Y-139452380D01*
X133761904Y-139452380D01*
X133857142Y-139404761D01*
X133904761Y-139357142D01*
X133952380Y-139261904D01*
X133952380Y-139166666D01*
X133904761Y-139071428D01*
X133857142Y-139023809D01*
X133761904Y-138976190D01*
X133571428Y-138928571D01*
X133476190Y-138880952D01*
X133428571Y-138833333D01*
X133380952Y-138738095D01*
X133380952Y-138642857D01*
X133428571Y-138547619D01*
X133476190Y-138500000D01*
X133571428Y-138452380D01*
X133809523Y-138452380D01*
X133952380Y-138500000D01*
X134333333Y-138547619D02*
X134380952Y-138500000D01*
X134476190Y-138452380D01*
X134714285Y-138452380D01*
X134809523Y-138500000D01*
X134857142Y-138547619D01*
X134904761Y-138642857D01*
X134904761Y-138738095D01*
X134857142Y-138880952D01*
X134285714Y-139452380D01*
X134904761Y-139452380D01*
X135476190Y-138880952D02*
X135380952Y-138833333D01*
X135333333Y-138785714D01*
X135285714Y-138690476D01*
X135285714Y-138642857D01*
X135333333Y-138547619D01*
X135380952Y-138500000D01*
X135476190Y-138452380D01*
X135666666Y-138452380D01*
X135761904Y-138500000D01*
X135809523Y-138547619D01*
X135857142Y-138642857D01*
X135857142Y-138690476D01*
X135809523Y-138785714D01*
X135761904Y-138833333D01*
X135666666Y-138880952D01*
X135476190Y-138880952D01*
X135380952Y-138928571D01*
X135333333Y-138976190D01*
X135285714Y-139071428D01*
X135285714Y-139261904D01*
X135333333Y-139357142D01*
X135380952Y-139404761D01*
X135476190Y-139452380D01*
X135666666Y-139452380D01*
X135761904Y-139404761D01*
X135809523Y-139357142D01*
X135857142Y-139261904D01*
X135857142Y-139071428D01*
X135809523Y-138976190D01*
X135761904Y-138928571D01*
X135666666Y-138880952D01*
X136809523Y-139452380D02*
X136238095Y-139452380D01*
X136523809Y-139452380D02*
X136523809Y-138452380D01*
X136428571Y-138595238D01*
X136333333Y-138690476D01*
X136238095Y-138738095D01*
X137142857Y-138452380D02*
X137761904Y-138452380D01*
X137428571Y-138833333D01*
X137571428Y-138833333D01*
X137666666Y-138880952D01*
X137714285Y-138928571D01*
X137761904Y-139023809D01*
X137761904Y-139261904D01*
X137714285Y-139357142D01*
X137666666Y-139404761D01*
X137571428Y-139452380D01*
X137285714Y-139452380D01*
X137190476Y-139404761D01*
X137142857Y-139357142D01*
X133647619Y-135361904D02*
X133647619Y-134561904D01*
X133838095Y-134561904D01*
X133952380Y-134600000D01*
X134028571Y-134676190D01*
X134066666Y-134752380D01*
X134104761Y-134904761D01*
X134104761Y-135019047D01*
X134066666Y-135171428D01*
X134028571Y-135247619D01*
X133952380Y-135323809D01*
X133838095Y-135361904D01*
X133647619Y-135361904D01*
X134866666Y-135361904D02*
X134409523Y-135361904D01*
X134638095Y-135361904D02*
X134638095Y-134561904D01*
X134561904Y-134676190D01*
X134485714Y-134752380D01*
X134409523Y-134790476D01*
X135361904Y-134561904D02*
X135438095Y-134561904D01*
X135514285Y-134600000D01*
X135552380Y-134638095D01*
X135590476Y-134714285D01*
X135628571Y-134866666D01*
X135628571Y-135057142D01*
X135590476Y-135209523D01*
X135552380Y-135285714D01*
X135514285Y-135323809D01*
X135438095Y-135361904D01*
X135361904Y-135361904D01*
X135285714Y-135323809D01*
X135247619Y-135285714D01*
X135209523Y-135209523D01*
X135171428Y-135057142D01*
X135171428Y-134866666D01*
X135209523Y-134714285D01*
X135247619Y-134638095D01*
X135285714Y-134600000D01*
X135361904Y-134561904D01*
X136314285Y-134828571D02*
X136314285Y-135361904D01*
X136123809Y-134523809D02*
X135933333Y-135095238D01*
X136428571Y-135095238D01*
%TO.C,J101*%
X102785714Y-134958571D02*
X102928571Y-135006190D01*
X102976190Y-135053809D01*
X103023809Y-135149047D01*
X103023809Y-135291904D01*
X102976190Y-135387142D01*
X102928571Y-135434761D01*
X102833333Y-135482380D01*
X102452380Y-135482380D01*
X102452380Y-134482380D01*
X102785714Y-134482380D01*
X102880952Y-134530000D01*
X102928571Y-134577619D01*
X102976190Y-134672857D01*
X102976190Y-134768095D01*
X102928571Y-134863333D01*
X102880952Y-134910952D01*
X102785714Y-134958571D01*
X102452380Y-134958571D01*
X103452380Y-135482380D02*
X103452380Y-134815714D01*
X103452380Y-135006190D02*
X103500000Y-134910952D01*
X103547619Y-134863333D01*
X103642857Y-134815714D01*
X103738095Y-134815714D01*
X104452380Y-135434761D02*
X104357142Y-135482380D01*
X104166666Y-135482380D01*
X104071428Y-135434761D01*
X104023809Y-135339523D01*
X104023809Y-134958571D01*
X104071428Y-134863333D01*
X104166666Y-134815714D01*
X104357142Y-134815714D01*
X104452380Y-134863333D01*
X104500000Y-134958571D01*
X104500000Y-135053809D01*
X104023809Y-135149047D01*
X105357142Y-135482380D02*
X105357142Y-134958571D01*
X105309523Y-134863333D01*
X105214285Y-134815714D01*
X105023809Y-134815714D01*
X104928571Y-134863333D01*
X105357142Y-135434761D02*
X105261904Y-135482380D01*
X105023809Y-135482380D01*
X104928571Y-135434761D01*
X104880952Y-135339523D01*
X104880952Y-135244285D01*
X104928571Y-135149047D01*
X105023809Y-135101428D01*
X105261904Y-135101428D01*
X105357142Y-135053809D01*
X105833333Y-135482380D02*
X105833333Y-134482380D01*
X105928571Y-135101428D02*
X106214285Y-135482380D01*
X106214285Y-134815714D02*
X105833333Y-135196666D01*
X106785714Y-135482380D02*
X106690476Y-135434761D01*
X106642857Y-135387142D01*
X106595238Y-135291904D01*
X106595238Y-135006190D01*
X106642857Y-134910952D01*
X106690476Y-134863333D01*
X106785714Y-134815714D01*
X106928571Y-134815714D01*
X107023809Y-134863333D01*
X107071428Y-134910952D01*
X107119047Y-135006190D01*
X107119047Y-135291904D01*
X107071428Y-135387142D01*
X107023809Y-135434761D01*
X106928571Y-135482380D01*
X106785714Y-135482380D01*
X107976190Y-134815714D02*
X107976190Y-135482380D01*
X107547619Y-134815714D02*
X107547619Y-135339523D01*
X107595238Y-135434761D01*
X107690476Y-135482380D01*
X107833333Y-135482380D01*
X107928571Y-135434761D01*
X107976190Y-135387142D01*
X108309523Y-134815714D02*
X108690476Y-134815714D01*
X108452380Y-134482380D02*
X108452380Y-135339523D01*
X108500000Y-135434761D01*
X108595238Y-135482380D01*
X108690476Y-135482380D01*
X104952380Y-127635714D02*
X105666666Y-127635714D01*
X105809523Y-127683333D01*
X105904761Y-127778571D01*
X105952380Y-127921428D01*
X105952380Y-128016666D01*
X105952380Y-126635714D02*
X105952380Y-127207142D01*
X105952380Y-126921428D02*
X104952380Y-126921428D01*
X105095238Y-127016666D01*
X105190476Y-127111904D01*
X105238095Y-127207142D01*
X104952380Y-126016666D02*
X104952380Y-125921428D01*
X105000000Y-125826190D01*
X105047619Y-125778571D01*
X105142857Y-125730952D01*
X105333333Y-125683333D01*
X105571428Y-125683333D01*
X105761904Y-125730952D01*
X105857142Y-125778571D01*
X105904761Y-125826190D01*
X105952380Y-125921428D01*
X105952380Y-126016666D01*
X105904761Y-126111904D01*
X105857142Y-126159523D01*
X105761904Y-126207142D01*
X105571428Y-126254761D01*
X105333333Y-126254761D01*
X105142857Y-126207142D01*
X105047619Y-126159523D01*
X105000000Y-126111904D01*
X104952380Y-126016666D01*
X105952380Y-124730952D02*
X105952380Y-125302380D01*
X105952380Y-125016666D02*
X104952380Y-125016666D01*
X105095238Y-125111904D01*
X105190476Y-125207142D01*
X105238095Y-125302380D01*
%TO.C,JP101*%
X111559523Y-112852380D02*
X111226190Y-112376190D01*
X110988095Y-112852380D02*
X110988095Y-111852380D01*
X111369047Y-111852380D01*
X111464285Y-111900000D01*
X111511904Y-111947619D01*
X111559523Y-112042857D01*
X111559523Y-112185714D01*
X111511904Y-112280952D01*
X111464285Y-112328571D01*
X111369047Y-112376190D01*
X110988095Y-112376190D01*
X112559523Y-112757142D02*
X112511904Y-112804761D01*
X112369047Y-112852380D01*
X112273809Y-112852380D01*
X112130952Y-112804761D01*
X112035714Y-112709523D01*
X111988095Y-112614285D01*
X111940476Y-112423809D01*
X111940476Y-112280952D01*
X111988095Y-112090476D01*
X112035714Y-111995238D01*
X112130952Y-111900000D01*
X112273809Y-111852380D01*
X112369047Y-111852380D01*
X112511904Y-111900000D01*
X112559523Y-111947619D01*
%TO.C,JP102*%
X131559523Y-112852380D02*
X131226190Y-112376190D01*
X130988095Y-112852380D02*
X130988095Y-111852380D01*
X131369047Y-111852380D01*
X131464285Y-111900000D01*
X131511904Y-111947619D01*
X131559523Y-112042857D01*
X131559523Y-112185714D01*
X131511904Y-112280952D01*
X131464285Y-112328571D01*
X131369047Y-112376190D01*
X130988095Y-112376190D01*
X132559523Y-112757142D02*
X132511904Y-112804761D01*
X132369047Y-112852380D01*
X132273809Y-112852380D01*
X132130952Y-112804761D01*
X132035714Y-112709523D01*
X131988095Y-112614285D01*
X131940476Y-112423809D01*
X131940476Y-112280952D01*
X131988095Y-112090476D01*
X132035714Y-111995238D01*
X132130952Y-111900000D01*
X132273809Y-111852380D01*
X132369047Y-111852380D01*
X132511904Y-111900000D01*
X132559523Y-111947619D01*
%TO.C,JP103*%
X111559523Y-132852380D02*
X111226190Y-132376190D01*
X110988095Y-132852380D02*
X110988095Y-131852380D01*
X111369047Y-131852380D01*
X111464285Y-131900000D01*
X111511904Y-131947619D01*
X111559523Y-132042857D01*
X111559523Y-132185714D01*
X111511904Y-132280952D01*
X111464285Y-132328571D01*
X111369047Y-132376190D01*
X110988095Y-132376190D01*
X112559523Y-132757142D02*
X112511904Y-132804761D01*
X112369047Y-132852380D01*
X112273809Y-132852380D01*
X112130952Y-132804761D01*
X112035714Y-132709523D01*
X111988095Y-132614285D01*
X111940476Y-132423809D01*
X111940476Y-132280952D01*
X111988095Y-132090476D01*
X112035714Y-131995238D01*
X112130952Y-131900000D01*
X112273809Y-131852380D01*
X112369047Y-131852380D01*
X112511904Y-131900000D01*
X112559523Y-131947619D01*
%TO.C,JP104*%
X131559523Y-132852380D02*
X131226190Y-132376190D01*
X130988095Y-132852380D02*
X130988095Y-131852380D01*
X131369047Y-131852380D01*
X131464285Y-131900000D01*
X131511904Y-131947619D01*
X131559523Y-132042857D01*
X131559523Y-132185714D01*
X131511904Y-132280952D01*
X131464285Y-132328571D01*
X131369047Y-132376190D01*
X130988095Y-132376190D01*
X132559523Y-132757142D02*
X132511904Y-132804761D01*
X132369047Y-132852380D01*
X132273809Y-132852380D01*
X132130952Y-132804761D01*
X132035714Y-132709523D01*
X131988095Y-132614285D01*
X131940476Y-132423809D01*
X131940476Y-132280952D01*
X131988095Y-132090476D01*
X132035714Y-131995238D01*
X132130952Y-131900000D01*
X132273809Y-131852380D01*
X132369047Y-131852380D01*
X132511904Y-131900000D01*
X132559523Y-131947619D01*
%TO.C,JP105*%
X115702380Y-112328571D02*
X115845238Y-112376190D01*
X115892857Y-112423809D01*
X115940476Y-112519047D01*
X115940476Y-112661904D01*
X115892857Y-112757142D01*
X115845238Y-112804761D01*
X115750000Y-112852380D01*
X115369047Y-112852380D01*
X115369047Y-111852380D01*
X115702380Y-111852380D01*
X115797619Y-111900000D01*
X115845238Y-111947619D01*
X115892857Y-112042857D01*
X115892857Y-112138095D01*
X115845238Y-112233333D01*
X115797619Y-112280952D01*
X115702380Y-112328571D01*
X115369047Y-112328571D01*
X116369047Y-112471428D02*
X117130952Y-112471428D01*
X117940476Y-112328571D02*
X118083333Y-112376190D01*
X118130952Y-112423809D01*
X118178571Y-112519047D01*
X118178571Y-112661904D01*
X118130952Y-112757142D01*
X118083333Y-112804761D01*
X117988095Y-112852380D01*
X117607142Y-112852380D01*
X117607142Y-111852380D01*
X117940476Y-111852380D01*
X118035714Y-111900000D01*
X118083333Y-111947619D01*
X118130952Y-112042857D01*
X118130952Y-112138095D01*
X118083333Y-112233333D01*
X118035714Y-112280952D01*
X117940476Y-112328571D01*
X117607142Y-112328571D01*
%TO.C,JP106*%
X135702380Y-112328571D02*
X135845238Y-112376190D01*
X135892857Y-112423809D01*
X135940476Y-112519047D01*
X135940476Y-112661904D01*
X135892857Y-112757142D01*
X135845238Y-112804761D01*
X135750000Y-112852380D01*
X135369047Y-112852380D01*
X135369047Y-111852380D01*
X135702380Y-111852380D01*
X135797619Y-111900000D01*
X135845238Y-111947619D01*
X135892857Y-112042857D01*
X135892857Y-112138095D01*
X135845238Y-112233333D01*
X135797619Y-112280952D01*
X135702380Y-112328571D01*
X135369047Y-112328571D01*
X136369047Y-112471428D02*
X137130952Y-112471428D01*
X137940476Y-112328571D02*
X138083333Y-112376190D01*
X138130952Y-112423809D01*
X138178571Y-112519047D01*
X138178571Y-112661904D01*
X138130952Y-112757142D01*
X138083333Y-112804761D01*
X137988095Y-112852380D01*
X137607142Y-112852380D01*
X137607142Y-111852380D01*
X137940476Y-111852380D01*
X138035714Y-111900000D01*
X138083333Y-111947619D01*
X138130952Y-112042857D01*
X138130952Y-112138095D01*
X138083333Y-112233333D01*
X138035714Y-112280952D01*
X137940476Y-112328571D01*
X137607142Y-112328571D01*
%TO.C,JP107*%
X115702380Y-132328571D02*
X115845238Y-132376190D01*
X115892857Y-132423809D01*
X115940476Y-132519047D01*
X115940476Y-132661904D01*
X115892857Y-132757142D01*
X115845238Y-132804761D01*
X115750000Y-132852380D01*
X115369047Y-132852380D01*
X115369047Y-131852380D01*
X115702380Y-131852380D01*
X115797619Y-131900000D01*
X115845238Y-131947619D01*
X115892857Y-132042857D01*
X115892857Y-132138095D01*
X115845238Y-132233333D01*
X115797619Y-132280952D01*
X115702380Y-132328571D01*
X115369047Y-132328571D01*
X116369047Y-132471428D02*
X117130952Y-132471428D01*
X117940476Y-132328571D02*
X118083333Y-132376190D01*
X118130952Y-132423809D01*
X118178571Y-132519047D01*
X118178571Y-132661904D01*
X118130952Y-132757142D01*
X118083333Y-132804761D01*
X117988095Y-132852380D01*
X117607142Y-132852380D01*
X117607142Y-131852380D01*
X117940476Y-131852380D01*
X118035714Y-131900000D01*
X118083333Y-131947619D01*
X118130952Y-132042857D01*
X118130952Y-132138095D01*
X118083333Y-132233333D01*
X118035714Y-132280952D01*
X117940476Y-132328571D01*
X117607142Y-132328571D01*
%TO.C,JP108*%
X135702380Y-132328571D02*
X135845238Y-132376190D01*
X135892857Y-132423809D01*
X135940476Y-132519047D01*
X135940476Y-132661904D01*
X135892857Y-132757142D01*
X135845238Y-132804761D01*
X135750000Y-132852380D01*
X135369047Y-132852380D01*
X135369047Y-131852380D01*
X135702380Y-131852380D01*
X135797619Y-131900000D01*
X135845238Y-131947619D01*
X135892857Y-132042857D01*
X135892857Y-132138095D01*
X135845238Y-132233333D01*
X135797619Y-132280952D01*
X135702380Y-132328571D01*
X135369047Y-132328571D01*
X136369047Y-132471428D02*
X137130952Y-132471428D01*
X137940476Y-132328571D02*
X138083333Y-132376190D01*
X138130952Y-132423809D01*
X138178571Y-132519047D01*
X138178571Y-132661904D01*
X138130952Y-132757142D01*
X138083333Y-132804761D01*
X137988095Y-132852380D01*
X137607142Y-132852380D01*
X137607142Y-131852380D01*
X137940476Y-131852380D01*
X138035714Y-131900000D01*
X138083333Y-131947619D01*
X138130952Y-132042857D01*
X138130952Y-132138095D01*
X138083333Y-132233333D01*
X138035714Y-132280952D01*
X137940476Y-132328571D01*
X137607142Y-132328571D01*
%TO.C,JP109*%
X118552380Y-115059523D02*
X117552380Y-115059523D01*
X117933333Y-115059523D02*
X117885714Y-114964285D01*
X117885714Y-114773809D01*
X117933333Y-114678571D01*
X117980952Y-114630952D01*
X118076190Y-114583333D01*
X118361904Y-114583333D01*
X118457142Y-114630952D01*
X118504761Y-114678571D01*
X118552380Y-114773809D01*
X118552380Y-114964285D01*
X118504761Y-115059523D01*
X117885714Y-114250000D02*
X118552380Y-114011904D01*
X117885714Y-113773809D02*
X118552380Y-114011904D01*
X118790476Y-114107142D01*
X118838095Y-114154761D01*
X118885714Y-114250000D01*
X117885714Y-113392857D02*
X118885714Y-113392857D01*
X117933333Y-113392857D02*
X117885714Y-113297619D01*
X117885714Y-113107142D01*
X117933333Y-113011904D01*
X117980952Y-112964285D01*
X118076190Y-112916666D01*
X118361904Y-112916666D01*
X118457142Y-112964285D01*
X118504761Y-113011904D01*
X118552380Y-113107142D01*
X118552380Y-113297619D01*
X118504761Y-113392857D01*
X118552380Y-112059523D02*
X118028571Y-112059523D01*
X117933333Y-112107142D01*
X117885714Y-112202380D01*
X117885714Y-112392857D01*
X117933333Y-112488095D01*
X118504761Y-112059523D02*
X118552380Y-112154761D01*
X118552380Y-112392857D01*
X118504761Y-112488095D01*
X118409523Y-112535714D01*
X118314285Y-112535714D01*
X118219047Y-112488095D01*
X118171428Y-112392857D01*
X118171428Y-112154761D01*
X118123809Y-112059523D01*
X118504761Y-111630952D02*
X118552380Y-111535714D01*
X118552380Y-111345238D01*
X118504761Y-111250000D01*
X118409523Y-111202380D01*
X118361904Y-111202380D01*
X118266666Y-111250000D01*
X118219047Y-111345238D01*
X118219047Y-111488095D01*
X118171428Y-111583333D01*
X118076190Y-111630952D01*
X118028571Y-111630952D01*
X117933333Y-111583333D01*
X117885714Y-111488095D01*
X117885714Y-111345238D01*
X117933333Y-111250000D01*
X118504761Y-110821428D02*
X118552380Y-110726190D01*
X118552380Y-110535714D01*
X118504761Y-110440476D01*
X118409523Y-110392857D01*
X118361904Y-110392857D01*
X118266666Y-110440476D01*
X118219047Y-110535714D01*
X118219047Y-110678571D01*
X118171428Y-110773809D01*
X118076190Y-110821428D01*
X118028571Y-110821428D01*
X117933333Y-110773809D01*
X117885714Y-110678571D01*
X117885714Y-110535714D01*
X117933333Y-110440476D01*
%TO.C,JP110*%
X138552380Y-115059523D02*
X137552380Y-115059523D01*
X137933333Y-115059523D02*
X137885714Y-114964285D01*
X137885714Y-114773809D01*
X137933333Y-114678571D01*
X137980952Y-114630952D01*
X138076190Y-114583333D01*
X138361904Y-114583333D01*
X138457142Y-114630952D01*
X138504761Y-114678571D01*
X138552380Y-114773809D01*
X138552380Y-114964285D01*
X138504761Y-115059523D01*
X137885714Y-114250000D02*
X138552380Y-114011904D01*
X137885714Y-113773809D02*
X138552380Y-114011904D01*
X138790476Y-114107142D01*
X138838095Y-114154761D01*
X138885714Y-114250000D01*
X137885714Y-113392857D02*
X138885714Y-113392857D01*
X137933333Y-113392857D02*
X137885714Y-113297619D01*
X137885714Y-113107142D01*
X137933333Y-113011904D01*
X137980952Y-112964285D01*
X138076190Y-112916666D01*
X138361904Y-112916666D01*
X138457142Y-112964285D01*
X138504761Y-113011904D01*
X138552380Y-113107142D01*
X138552380Y-113297619D01*
X138504761Y-113392857D01*
X138552380Y-112059523D02*
X138028571Y-112059523D01*
X137933333Y-112107142D01*
X137885714Y-112202380D01*
X137885714Y-112392857D01*
X137933333Y-112488095D01*
X138504761Y-112059523D02*
X138552380Y-112154761D01*
X138552380Y-112392857D01*
X138504761Y-112488095D01*
X138409523Y-112535714D01*
X138314285Y-112535714D01*
X138219047Y-112488095D01*
X138171428Y-112392857D01*
X138171428Y-112154761D01*
X138123809Y-112059523D01*
X138504761Y-111630952D02*
X138552380Y-111535714D01*
X138552380Y-111345238D01*
X138504761Y-111250000D01*
X138409523Y-111202380D01*
X138361904Y-111202380D01*
X138266666Y-111250000D01*
X138219047Y-111345238D01*
X138219047Y-111488095D01*
X138171428Y-111583333D01*
X138076190Y-111630952D01*
X138028571Y-111630952D01*
X137933333Y-111583333D01*
X137885714Y-111488095D01*
X137885714Y-111345238D01*
X137933333Y-111250000D01*
X138504761Y-110821428D02*
X138552380Y-110726190D01*
X138552380Y-110535714D01*
X138504761Y-110440476D01*
X138409523Y-110392857D01*
X138361904Y-110392857D01*
X138266666Y-110440476D01*
X138219047Y-110535714D01*
X138219047Y-110678571D01*
X138171428Y-110773809D01*
X138076190Y-110821428D01*
X138028571Y-110821428D01*
X137933333Y-110773809D01*
X137885714Y-110678571D01*
X137885714Y-110535714D01*
X137933333Y-110440476D01*
%TO.C,JP111*%
X118552380Y-135059523D02*
X117552380Y-135059523D01*
X117933333Y-135059523D02*
X117885714Y-134964285D01*
X117885714Y-134773809D01*
X117933333Y-134678571D01*
X117980952Y-134630952D01*
X118076190Y-134583333D01*
X118361904Y-134583333D01*
X118457142Y-134630952D01*
X118504761Y-134678571D01*
X118552380Y-134773809D01*
X118552380Y-134964285D01*
X118504761Y-135059523D01*
X117885714Y-134250000D02*
X118552380Y-134011904D01*
X117885714Y-133773809D02*
X118552380Y-134011904D01*
X118790476Y-134107142D01*
X118838095Y-134154761D01*
X118885714Y-134250000D01*
X117885714Y-133392857D02*
X118885714Y-133392857D01*
X117933333Y-133392857D02*
X117885714Y-133297619D01*
X117885714Y-133107142D01*
X117933333Y-133011904D01*
X117980952Y-132964285D01*
X118076190Y-132916666D01*
X118361904Y-132916666D01*
X118457142Y-132964285D01*
X118504761Y-133011904D01*
X118552380Y-133107142D01*
X118552380Y-133297619D01*
X118504761Y-133392857D01*
X118552380Y-132059523D02*
X118028571Y-132059523D01*
X117933333Y-132107142D01*
X117885714Y-132202380D01*
X117885714Y-132392857D01*
X117933333Y-132488095D01*
X118504761Y-132059523D02*
X118552380Y-132154761D01*
X118552380Y-132392857D01*
X118504761Y-132488095D01*
X118409523Y-132535714D01*
X118314285Y-132535714D01*
X118219047Y-132488095D01*
X118171428Y-132392857D01*
X118171428Y-132154761D01*
X118123809Y-132059523D01*
X118504761Y-131630952D02*
X118552380Y-131535714D01*
X118552380Y-131345238D01*
X118504761Y-131250000D01*
X118409523Y-131202380D01*
X118361904Y-131202380D01*
X118266666Y-131250000D01*
X118219047Y-131345238D01*
X118219047Y-131488095D01*
X118171428Y-131583333D01*
X118076190Y-131630952D01*
X118028571Y-131630952D01*
X117933333Y-131583333D01*
X117885714Y-131488095D01*
X117885714Y-131345238D01*
X117933333Y-131250000D01*
X118504761Y-130821428D02*
X118552380Y-130726190D01*
X118552380Y-130535714D01*
X118504761Y-130440476D01*
X118409523Y-130392857D01*
X118361904Y-130392857D01*
X118266666Y-130440476D01*
X118219047Y-130535714D01*
X118219047Y-130678571D01*
X118171428Y-130773809D01*
X118076190Y-130821428D01*
X118028571Y-130821428D01*
X117933333Y-130773809D01*
X117885714Y-130678571D01*
X117885714Y-130535714D01*
X117933333Y-130440476D01*
%TO.C,JP112*%
X138552380Y-135059523D02*
X137552380Y-135059523D01*
X137933333Y-135059523D02*
X137885714Y-134964285D01*
X137885714Y-134773809D01*
X137933333Y-134678571D01*
X137980952Y-134630952D01*
X138076190Y-134583333D01*
X138361904Y-134583333D01*
X138457142Y-134630952D01*
X138504761Y-134678571D01*
X138552380Y-134773809D01*
X138552380Y-134964285D01*
X138504761Y-135059523D01*
X137885714Y-134250000D02*
X138552380Y-134011904D01*
X137885714Y-133773809D02*
X138552380Y-134011904D01*
X138790476Y-134107142D01*
X138838095Y-134154761D01*
X138885714Y-134250000D01*
X137885714Y-133392857D02*
X138885714Y-133392857D01*
X137933333Y-133392857D02*
X137885714Y-133297619D01*
X137885714Y-133107142D01*
X137933333Y-133011904D01*
X137980952Y-132964285D01*
X138076190Y-132916666D01*
X138361904Y-132916666D01*
X138457142Y-132964285D01*
X138504761Y-133011904D01*
X138552380Y-133107142D01*
X138552380Y-133297619D01*
X138504761Y-133392857D01*
X138552380Y-132059523D02*
X138028571Y-132059523D01*
X137933333Y-132107142D01*
X137885714Y-132202380D01*
X137885714Y-132392857D01*
X137933333Y-132488095D01*
X138504761Y-132059523D02*
X138552380Y-132154761D01*
X138552380Y-132392857D01*
X138504761Y-132488095D01*
X138409523Y-132535714D01*
X138314285Y-132535714D01*
X138219047Y-132488095D01*
X138171428Y-132392857D01*
X138171428Y-132154761D01*
X138123809Y-132059523D01*
X138504761Y-131630952D02*
X138552380Y-131535714D01*
X138552380Y-131345238D01*
X138504761Y-131250000D01*
X138409523Y-131202380D01*
X138361904Y-131202380D01*
X138266666Y-131250000D01*
X138219047Y-131345238D01*
X138219047Y-131488095D01*
X138171428Y-131583333D01*
X138076190Y-131630952D01*
X138028571Y-131630952D01*
X137933333Y-131583333D01*
X137885714Y-131488095D01*
X137885714Y-131345238D01*
X137933333Y-131250000D01*
X138504761Y-130821428D02*
X138552380Y-130726190D01*
X138552380Y-130535714D01*
X138504761Y-130440476D01*
X138409523Y-130392857D01*
X138361904Y-130392857D01*
X138266666Y-130440476D01*
X138219047Y-130535714D01*
X138219047Y-130678571D01*
X138171428Y-130773809D01*
X138076190Y-130821428D01*
X138028571Y-130821428D01*
X137933333Y-130773809D01*
X137885714Y-130678571D01*
X137885714Y-130535714D01*
X137933333Y-130440476D01*
%TO.C,R101*%
X112372380Y-113666666D02*
X112372380Y-114238095D01*
X112372380Y-113952380D02*
X111372380Y-113952380D01*
X111515238Y-114047619D01*
X111610476Y-114142857D01*
X111658095Y-114238095D01*
X111372380Y-112761904D02*
X111372380Y-113238095D01*
X111848571Y-113285714D01*
X111800952Y-113238095D01*
X111753333Y-113142857D01*
X111753333Y-112904761D01*
X111800952Y-112809523D01*
X111848571Y-112761904D01*
X111943809Y-112714285D01*
X112181904Y-112714285D01*
X112277142Y-112761904D01*
X112324761Y-112809523D01*
X112372380Y-112904761D01*
X112372380Y-113142857D01*
X112324761Y-113238095D01*
X112277142Y-113285714D01*
X111372380Y-112095238D02*
X111372380Y-112000000D01*
X111420000Y-111904761D01*
X111467619Y-111857142D01*
X111562857Y-111809523D01*
X111753333Y-111761904D01*
X111991428Y-111761904D01*
X112181904Y-111809523D01*
X112277142Y-111857142D01*
X112324761Y-111904761D01*
X112372380Y-112000000D01*
X112372380Y-112095238D01*
X112324761Y-112190476D01*
X112277142Y-112238095D01*
X112181904Y-112285714D01*
X111991428Y-112333333D01*
X111753333Y-112333333D01*
X111562857Y-112285714D01*
X111467619Y-112238095D01*
X111420000Y-112190476D01*
X111372380Y-112095238D01*
D12*
X110867619Y-113290952D02*
X110743809Y-113377619D01*
X110867619Y-113439523D02*
X110607619Y-113439523D01*
X110607619Y-113340476D01*
X110620000Y-113315714D01*
X110632380Y-113303333D01*
X110657142Y-113290952D01*
X110694285Y-113290952D01*
X110719047Y-113303333D01*
X110731428Y-113315714D01*
X110743809Y-113340476D01*
X110743809Y-113439523D01*
X110867619Y-113043333D02*
X110867619Y-113191904D01*
X110867619Y-113117619D02*
X110607619Y-113117619D01*
X110644761Y-113142380D01*
X110669523Y-113167142D01*
X110681904Y-113191904D01*
X110607619Y-112882380D02*
X110607619Y-112857619D01*
X110620000Y-112832857D01*
X110632380Y-112820476D01*
X110657142Y-112808095D01*
X110706666Y-112795714D01*
X110768571Y-112795714D01*
X110818095Y-112808095D01*
X110842857Y-112820476D01*
X110855238Y-112832857D01*
X110867619Y-112857619D01*
X110867619Y-112882380D01*
X110855238Y-112907142D01*
X110842857Y-112919523D01*
X110818095Y-112931904D01*
X110768571Y-112944285D01*
X110706666Y-112944285D01*
X110657142Y-112931904D01*
X110632380Y-112919523D01*
X110620000Y-112907142D01*
X110607619Y-112882380D01*
X110867619Y-112548095D02*
X110867619Y-112696666D01*
X110867619Y-112622380D02*
X110607619Y-112622380D01*
X110644761Y-112647142D01*
X110669523Y-112671904D01*
X110681904Y-112696666D01*
%TO.C,R102*%
D11*
X132372380Y-113666666D02*
X132372380Y-114238095D01*
X132372380Y-113952380D02*
X131372380Y-113952380D01*
X131515238Y-114047619D01*
X131610476Y-114142857D01*
X131658095Y-114238095D01*
X131372380Y-112761904D02*
X131372380Y-113238095D01*
X131848571Y-113285714D01*
X131800952Y-113238095D01*
X131753333Y-113142857D01*
X131753333Y-112904761D01*
X131800952Y-112809523D01*
X131848571Y-112761904D01*
X131943809Y-112714285D01*
X132181904Y-112714285D01*
X132277142Y-112761904D01*
X132324761Y-112809523D01*
X132372380Y-112904761D01*
X132372380Y-113142857D01*
X132324761Y-113238095D01*
X132277142Y-113285714D01*
X131372380Y-112095238D02*
X131372380Y-112000000D01*
X131420000Y-111904761D01*
X131467619Y-111857142D01*
X131562857Y-111809523D01*
X131753333Y-111761904D01*
X131991428Y-111761904D01*
X132181904Y-111809523D01*
X132277142Y-111857142D01*
X132324761Y-111904761D01*
X132372380Y-112000000D01*
X132372380Y-112095238D01*
X132324761Y-112190476D01*
X132277142Y-112238095D01*
X132181904Y-112285714D01*
X131991428Y-112333333D01*
X131753333Y-112333333D01*
X131562857Y-112285714D01*
X131467619Y-112238095D01*
X131420000Y-112190476D01*
X131372380Y-112095238D01*
D12*
X130867619Y-113290952D02*
X130743809Y-113377619D01*
X130867619Y-113439523D02*
X130607619Y-113439523D01*
X130607619Y-113340476D01*
X130620000Y-113315714D01*
X130632380Y-113303333D01*
X130657142Y-113290952D01*
X130694285Y-113290952D01*
X130719047Y-113303333D01*
X130731428Y-113315714D01*
X130743809Y-113340476D01*
X130743809Y-113439523D01*
X130867619Y-113043333D02*
X130867619Y-113191904D01*
X130867619Y-113117619D02*
X130607619Y-113117619D01*
X130644761Y-113142380D01*
X130669523Y-113167142D01*
X130681904Y-113191904D01*
X130607619Y-112882380D02*
X130607619Y-112857619D01*
X130620000Y-112832857D01*
X130632380Y-112820476D01*
X130657142Y-112808095D01*
X130706666Y-112795714D01*
X130768571Y-112795714D01*
X130818095Y-112808095D01*
X130842857Y-112820476D01*
X130855238Y-112832857D01*
X130867619Y-112857619D01*
X130867619Y-112882380D01*
X130855238Y-112907142D01*
X130842857Y-112919523D01*
X130818095Y-112931904D01*
X130768571Y-112944285D01*
X130706666Y-112944285D01*
X130657142Y-112931904D01*
X130632380Y-112919523D01*
X130620000Y-112907142D01*
X130607619Y-112882380D01*
X130632380Y-112696666D02*
X130620000Y-112684285D01*
X130607619Y-112659523D01*
X130607619Y-112597619D01*
X130620000Y-112572857D01*
X130632380Y-112560476D01*
X130657142Y-112548095D01*
X130681904Y-112548095D01*
X130719047Y-112560476D01*
X130867619Y-112709047D01*
X130867619Y-112548095D01*
%TO.C,R103*%
D11*
X112372380Y-133666666D02*
X112372380Y-134238095D01*
X112372380Y-133952380D02*
X111372380Y-133952380D01*
X111515238Y-134047619D01*
X111610476Y-134142857D01*
X111658095Y-134238095D01*
X111372380Y-132761904D02*
X111372380Y-133238095D01*
X111848571Y-133285714D01*
X111800952Y-133238095D01*
X111753333Y-133142857D01*
X111753333Y-132904761D01*
X111800952Y-132809523D01*
X111848571Y-132761904D01*
X111943809Y-132714285D01*
X112181904Y-132714285D01*
X112277142Y-132761904D01*
X112324761Y-132809523D01*
X112372380Y-132904761D01*
X112372380Y-133142857D01*
X112324761Y-133238095D01*
X112277142Y-133285714D01*
X111372380Y-132095238D02*
X111372380Y-132000000D01*
X111420000Y-131904761D01*
X111467619Y-131857142D01*
X111562857Y-131809523D01*
X111753333Y-131761904D01*
X111991428Y-131761904D01*
X112181904Y-131809523D01*
X112277142Y-131857142D01*
X112324761Y-131904761D01*
X112372380Y-132000000D01*
X112372380Y-132095238D01*
X112324761Y-132190476D01*
X112277142Y-132238095D01*
X112181904Y-132285714D01*
X111991428Y-132333333D01*
X111753333Y-132333333D01*
X111562857Y-132285714D01*
X111467619Y-132238095D01*
X111420000Y-132190476D01*
X111372380Y-132095238D01*
D12*
X110867619Y-133290952D02*
X110743809Y-133377619D01*
X110867619Y-133439523D02*
X110607619Y-133439523D01*
X110607619Y-133340476D01*
X110620000Y-133315714D01*
X110632380Y-133303333D01*
X110657142Y-133290952D01*
X110694285Y-133290952D01*
X110719047Y-133303333D01*
X110731428Y-133315714D01*
X110743809Y-133340476D01*
X110743809Y-133439523D01*
X110867619Y-133043333D02*
X110867619Y-133191904D01*
X110867619Y-133117619D02*
X110607619Y-133117619D01*
X110644761Y-133142380D01*
X110669523Y-133167142D01*
X110681904Y-133191904D01*
X110607619Y-132882380D02*
X110607619Y-132857619D01*
X110620000Y-132832857D01*
X110632380Y-132820476D01*
X110657142Y-132808095D01*
X110706666Y-132795714D01*
X110768571Y-132795714D01*
X110818095Y-132808095D01*
X110842857Y-132820476D01*
X110855238Y-132832857D01*
X110867619Y-132857619D01*
X110867619Y-132882380D01*
X110855238Y-132907142D01*
X110842857Y-132919523D01*
X110818095Y-132931904D01*
X110768571Y-132944285D01*
X110706666Y-132944285D01*
X110657142Y-132931904D01*
X110632380Y-132919523D01*
X110620000Y-132907142D01*
X110607619Y-132882380D01*
X110607619Y-132709047D02*
X110607619Y-132548095D01*
X110706666Y-132634761D01*
X110706666Y-132597619D01*
X110719047Y-132572857D01*
X110731428Y-132560476D01*
X110756190Y-132548095D01*
X110818095Y-132548095D01*
X110842857Y-132560476D01*
X110855238Y-132572857D01*
X110867619Y-132597619D01*
X110867619Y-132671904D01*
X110855238Y-132696666D01*
X110842857Y-132709047D01*
%TO.C,R104*%
D11*
X132372380Y-133666666D02*
X132372380Y-134238095D01*
X132372380Y-133952380D02*
X131372380Y-133952380D01*
X131515238Y-134047619D01*
X131610476Y-134142857D01*
X131658095Y-134238095D01*
X131372380Y-132761904D02*
X131372380Y-133238095D01*
X131848571Y-133285714D01*
X131800952Y-133238095D01*
X131753333Y-133142857D01*
X131753333Y-132904761D01*
X131800952Y-132809523D01*
X131848571Y-132761904D01*
X131943809Y-132714285D01*
X132181904Y-132714285D01*
X132277142Y-132761904D01*
X132324761Y-132809523D01*
X132372380Y-132904761D01*
X132372380Y-133142857D01*
X132324761Y-133238095D01*
X132277142Y-133285714D01*
X131372380Y-132095238D02*
X131372380Y-132000000D01*
X131420000Y-131904761D01*
X131467619Y-131857142D01*
X131562857Y-131809523D01*
X131753333Y-131761904D01*
X131991428Y-131761904D01*
X132181904Y-131809523D01*
X132277142Y-131857142D01*
X132324761Y-131904761D01*
X132372380Y-132000000D01*
X132372380Y-132095238D01*
X132324761Y-132190476D01*
X132277142Y-132238095D01*
X132181904Y-132285714D01*
X131991428Y-132333333D01*
X131753333Y-132333333D01*
X131562857Y-132285714D01*
X131467619Y-132238095D01*
X131420000Y-132190476D01*
X131372380Y-132095238D01*
D12*
X130867619Y-133290952D02*
X130743809Y-133377619D01*
X130867619Y-133439523D02*
X130607619Y-133439523D01*
X130607619Y-133340476D01*
X130620000Y-133315714D01*
X130632380Y-133303333D01*
X130657142Y-133290952D01*
X130694285Y-133290952D01*
X130719047Y-133303333D01*
X130731428Y-133315714D01*
X130743809Y-133340476D01*
X130743809Y-133439523D01*
X130867619Y-133043333D02*
X130867619Y-133191904D01*
X130867619Y-133117619D02*
X130607619Y-133117619D01*
X130644761Y-133142380D01*
X130669523Y-133167142D01*
X130681904Y-133191904D01*
X130607619Y-132882380D02*
X130607619Y-132857619D01*
X130620000Y-132832857D01*
X130632380Y-132820476D01*
X130657142Y-132808095D01*
X130706666Y-132795714D01*
X130768571Y-132795714D01*
X130818095Y-132808095D01*
X130842857Y-132820476D01*
X130855238Y-132832857D01*
X130867619Y-132857619D01*
X130867619Y-132882380D01*
X130855238Y-132907142D01*
X130842857Y-132919523D01*
X130818095Y-132931904D01*
X130768571Y-132944285D01*
X130706666Y-132944285D01*
X130657142Y-132931904D01*
X130632380Y-132919523D01*
X130620000Y-132907142D01*
X130607619Y-132882380D01*
X130694285Y-132572857D02*
X130867619Y-132572857D01*
X130595238Y-132634761D02*
X130780952Y-132696666D01*
X130780952Y-132535714D01*
%TO.C,H101*%
D11*
X103585714Y-145452380D02*
X103585714Y-144452380D01*
X103585714Y-144928571D02*
X104157142Y-144928571D01*
X104157142Y-145452380D02*
X104157142Y-144452380D01*
X105157142Y-145452380D02*
X104585714Y-145452380D01*
X104871428Y-145452380D02*
X104871428Y-144452380D01*
X104776190Y-144595238D01*
X104680952Y-144690476D01*
X104585714Y-144738095D01*
X105776190Y-144452380D02*
X105871428Y-144452380D01*
X105966666Y-144500000D01*
X106014285Y-144547619D01*
X106061904Y-144642857D01*
X106109523Y-144833333D01*
X106109523Y-145071428D01*
X106061904Y-145261904D01*
X106014285Y-145357142D01*
X105966666Y-145404761D01*
X105871428Y-145452380D01*
X105776190Y-145452380D01*
X105680952Y-145404761D01*
X105633333Y-145357142D01*
X105585714Y-145261904D01*
X105538095Y-145071428D01*
X105538095Y-144833333D01*
X105585714Y-144642857D01*
X105633333Y-144547619D01*
X105680952Y-144500000D01*
X105776190Y-144452380D01*
X107061904Y-145452380D02*
X106490476Y-145452380D01*
X106776190Y-145452380D02*
X106776190Y-144452380D01*
X106680952Y-144595238D01*
X106585714Y-144690476D01*
X106490476Y-144738095D01*
%TO.C,H102*%
X143585714Y-145452380D02*
X143585714Y-144452380D01*
X143585714Y-144928571D02*
X144157142Y-144928571D01*
X144157142Y-145452380D02*
X144157142Y-144452380D01*
X145157142Y-145452380D02*
X144585714Y-145452380D01*
X144871428Y-145452380D02*
X144871428Y-144452380D01*
X144776190Y-144595238D01*
X144680952Y-144690476D01*
X144585714Y-144738095D01*
X145776190Y-144452380D02*
X145871428Y-144452380D01*
X145966666Y-144500000D01*
X146014285Y-144547619D01*
X146061904Y-144642857D01*
X146109523Y-144833333D01*
X146109523Y-145071428D01*
X146061904Y-145261904D01*
X146014285Y-145357142D01*
X145966666Y-145404761D01*
X145871428Y-145452380D01*
X145776190Y-145452380D01*
X145680952Y-145404761D01*
X145633333Y-145357142D01*
X145585714Y-145261904D01*
X145538095Y-145071428D01*
X145538095Y-144833333D01*
X145585714Y-144642857D01*
X145633333Y-144547619D01*
X145680952Y-144500000D01*
X145776190Y-144452380D01*
X146490476Y-144547619D02*
X146538095Y-144500000D01*
X146633333Y-144452380D01*
X146871428Y-144452380D01*
X146966666Y-144500000D01*
X147014285Y-144547619D01*
X147061904Y-144642857D01*
X147061904Y-144738095D01*
X147014285Y-144880952D01*
X146442857Y-145452380D01*
X147061904Y-145452380D01*
%TO.C,H103*%
X143585714Y-105452380D02*
X143585714Y-104452380D01*
X143585714Y-104928571D02*
X144157142Y-104928571D01*
X144157142Y-105452380D02*
X144157142Y-104452380D01*
X145157142Y-105452380D02*
X144585714Y-105452380D01*
X144871428Y-105452380D02*
X144871428Y-104452380D01*
X144776190Y-104595238D01*
X144680952Y-104690476D01*
X144585714Y-104738095D01*
X145776190Y-104452380D02*
X145871428Y-104452380D01*
X145966666Y-104500000D01*
X146014285Y-104547619D01*
X146061904Y-104642857D01*
X146109523Y-104833333D01*
X146109523Y-105071428D01*
X146061904Y-105261904D01*
X146014285Y-105357142D01*
X145966666Y-105404761D01*
X145871428Y-105452380D01*
X145776190Y-105452380D01*
X145680952Y-105404761D01*
X145633333Y-105357142D01*
X145585714Y-105261904D01*
X145538095Y-105071428D01*
X145538095Y-104833333D01*
X145585714Y-104642857D01*
X145633333Y-104547619D01*
X145680952Y-104500000D01*
X145776190Y-104452380D01*
X146442857Y-104452380D02*
X147061904Y-104452380D01*
X146728571Y-104833333D01*
X146871428Y-104833333D01*
X146966666Y-104880952D01*
X147014285Y-104928571D01*
X147061904Y-105023809D01*
X147061904Y-105261904D01*
X147014285Y-105357142D01*
X146966666Y-105404761D01*
X146871428Y-105452380D01*
X146585714Y-105452380D01*
X146490476Y-105404761D01*
X146442857Y-105357142D01*
%TO.C,H104*%
X103585714Y-105452380D02*
X103585714Y-104452380D01*
X103585714Y-104928571D02*
X104157142Y-104928571D01*
X104157142Y-105452380D02*
X104157142Y-104452380D01*
X105157142Y-105452380D02*
X104585714Y-105452380D01*
X104871428Y-105452380D02*
X104871428Y-104452380D01*
X104776190Y-104595238D01*
X104680952Y-104690476D01*
X104585714Y-104738095D01*
X105776190Y-104452380D02*
X105871428Y-104452380D01*
X105966666Y-104500000D01*
X106014285Y-104547619D01*
X106061904Y-104642857D01*
X106109523Y-104833333D01*
X106109523Y-105071428D01*
X106061904Y-105261904D01*
X106014285Y-105357142D01*
X105966666Y-105404761D01*
X105871428Y-105452380D01*
X105776190Y-105452380D01*
X105680952Y-105404761D01*
X105633333Y-105357142D01*
X105585714Y-105261904D01*
X105538095Y-105071428D01*
X105538095Y-104833333D01*
X105585714Y-104642857D01*
X105633333Y-104547619D01*
X105680952Y-104500000D01*
X105776190Y-104452380D01*
X106966666Y-104785714D02*
X106966666Y-105452380D01*
X106728571Y-104404761D02*
X106490476Y-105119047D01*
X107109523Y-105119047D01*
%TD*%
M02*
