%TF.GenerationSoftware,KiCad,Pcbnew,5.1.9+dfsg1-1~bpo10+1*%
%TF.CreationDate,2021-09-26T17:43:23+00:00*%
%TF.ProjectId,ws2813-breakout,77733238-3133-42d6-9272-65616b6f7574,rev?*%
%TF.SameCoordinates,Original*%
%TF.FileFunction,Copper,L1,Top*%
%TF.FilePolarity,Positive*%
%FSLAX46Y46*%
G04 Gerber Fmt 4.6, Leading zero omitted, Abs format (unit mm)*
G04 Created by KiCad (PCBNEW 5.1.9+dfsg1-1~bpo10+1) date 2021-09-26 17:43:23*
%MOMM*%
%LPD*%
G01*
G04 APERTURE LIST*
%TA.AperFunction,SMDPad,CuDef*%
%ADD10R,1.500000X1.000000*%
%TD*%
%TA.AperFunction,ComponentPad*%
%ADD11R,1.700000X1.700000*%
%TD*%
%TA.AperFunction,ComponentPad*%
%ADD12O,1.700000X1.700000*%
%TD*%
%TA.AperFunction,SMDPad,CuDef*%
%ADD13C,0.100000*%
%TD*%
%TA.AperFunction,ComponentPad*%
%ADD14C,5.500000*%
%TD*%
%TA.AperFunction,ViaPad*%
%ADD15C,0.800000*%
%TD*%
%TA.AperFunction,Conductor*%
%ADD16C,0.500000*%
%TD*%
%TA.AperFunction,Conductor*%
%ADD17C,0.254000*%
%TD*%
%TA.AperFunction,Conductor*%
%ADD18C,0.100000*%
%TD*%
G04 APERTURE END LIST*
%TO.P,C101,2*%
%TO.N,Net-(C101-Pad2)*%
%TA.AperFunction,SMDPad,CuDef*%
G36*
G01*
X109200000Y-110670000D02*
X109200000Y-110330000D01*
G75*
G02*
X109340000Y-110190000I140000J0D01*
G01*
X109620000Y-110190000D01*
G75*
G02*
X109760000Y-110330000I0J-140000D01*
G01*
X109760000Y-110670000D01*
G75*
G02*
X109620000Y-110810000I-140000J0D01*
G01*
X109340000Y-110810000D01*
G75*
G02*
X109200000Y-110670000I0J140000D01*
G01*
G37*
%TD.AperFunction*%
%TO.P,C101,1*%
%TO.N,GND*%
%TA.AperFunction,SMDPad,CuDef*%
G36*
G01*
X108240000Y-110670000D02*
X108240000Y-110330000D01*
G75*
G02*
X108380000Y-110190000I140000J0D01*
G01*
X108660000Y-110190000D01*
G75*
G02*
X108800000Y-110330000I0J-140000D01*
G01*
X108800000Y-110670000D01*
G75*
G02*
X108660000Y-110810000I-140000J0D01*
G01*
X108380000Y-110810000D01*
G75*
G02*
X108240000Y-110670000I0J140000D01*
G01*
G37*
%TD.AperFunction*%
%TD*%
%TO.P,C102,1*%
%TO.N,GND*%
%TA.AperFunction,SMDPad,CuDef*%
G36*
G01*
X128240000Y-110670000D02*
X128240000Y-110330000D01*
G75*
G02*
X128380000Y-110190000I140000J0D01*
G01*
X128660000Y-110190000D01*
G75*
G02*
X128800000Y-110330000I0J-140000D01*
G01*
X128800000Y-110670000D01*
G75*
G02*
X128660000Y-110810000I-140000J0D01*
G01*
X128380000Y-110810000D01*
G75*
G02*
X128240000Y-110670000I0J140000D01*
G01*
G37*
%TD.AperFunction*%
%TO.P,C102,2*%
%TO.N,Net-(C102-Pad2)*%
%TA.AperFunction,SMDPad,CuDef*%
G36*
G01*
X129200000Y-110670000D02*
X129200000Y-110330000D01*
G75*
G02*
X129340000Y-110190000I140000J0D01*
G01*
X129620000Y-110190000D01*
G75*
G02*
X129760000Y-110330000I0J-140000D01*
G01*
X129760000Y-110670000D01*
G75*
G02*
X129620000Y-110810000I-140000J0D01*
G01*
X129340000Y-110810000D01*
G75*
G02*
X129200000Y-110670000I0J140000D01*
G01*
G37*
%TD.AperFunction*%
%TD*%
%TO.P,C103,1*%
%TO.N,GND*%
%TA.AperFunction,SMDPad,CuDef*%
G36*
G01*
X108240000Y-130670000D02*
X108240000Y-130330000D01*
G75*
G02*
X108380000Y-130190000I140000J0D01*
G01*
X108660000Y-130190000D01*
G75*
G02*
X108800000Y-130330000I0J-140000D01*
G01*
X108800000Y-130670000D01*
G75*
G02*
X108660000Y-130810000I-140000J0D01*
G01*
X108380000Y-130810000D01*
G75*
G02*
X108240000Y-130670000I0J140000D01*
G01*
G37*
%TD.AperFunction*%
%TO.P,C103,2*%
%TO.N,Net-(C103-Pad2)*%
%TA.AperFunction,SMDPad,CuDef*%
G36*
G01*
X109200000Y-130670000D02*
X109200000Y-130330000D01*
G75*
G02*
X109340000Y-130190000I140000J0D01*
G01*
X109620000Y-130190000D01*
G75*
G02*
X109760000Y-130330000I0J-140000D01*
G01*
X109760000Y-130670000D01*
G75*
G02*
X109620000Y-130810000I-140000J0D01*
G01*
X109340000Y-130810000D01*
G75*
G02*
X109200000Y-130670000I0J140000D01*
G01*
G37*
%TD.AperFunction*%
%TD*%
%TO.P,C104,2*%
%TO.N,Net-(C104-Pad2)*%
%TA.AperFunction,SMDPad,CuDef*%
G36*
G01*
X129200000Y-130670000D02*
X129200000Y-130330000D01*
G75*
G02*
X129340000Y-130190000I140000J0D01*
G01*
X129620000Y-130190000D01*
G75*
G02*
X129760000Y-130330000I0J-140000D01*
G01*
X129760000Y-130670000D01*
G75*
G02*
X129620000Y-130810000I-140000J0D01*
G01*
X129340000Y-130810000D01*
G75*
G02*
X129200000Y-130670000I0J140000D01*
G01*
G37*
%TD.AperFunction*%
%TO.P,C104,1*%
%TO.N,GND*%
%TA.AperFunction,SMDPad,CuDef*%
G36*
G01*
X128240000Y-130670000D02*
X128240000Y-130330000D01*
G75*
G02*
X128380000Y-130190000I140000J0D01*
G01*
X128660000Y-130190000D01*
G75*
G02*
X128800000Y-130330000I0J-140000D01*
G01*
X128800000Y-130670000D01*
G75*
G02*
X128660000Y-130810000I-140000J0D01*
G01*
X128380000Y-130810000D01*
G75*
G02*
X128240000Y-130670000I0J140000D01*
G01*
G37*
%TD.AperFunction*%
%TD*%
D10*
%TO.P,D101,1*%
%TO.N,Net-(D101-Pad1)*%
X112550000Y-113400000D03*
%TO.P,D101,2*%
%TO.N,+5V*%
X112550000Y-115000000D03*
%TO.P,D101,3*%
%TO.N,Net-(D101-Pad3)*%
X112550000Y-116600000D03*
%TO.P,D101,6*%
%TO.N,/BI*%
X117450000Y-113400000D03*
%TO.P,D101,5*%
%TO.N,GND*%
X117450000Y-115000000D03*
%TO.P,D101,4*%
%TO.N,/DI*%
X117450000Y-116600000D03*
%TD*%
%TO.P,D102,4*%
%TO.N,Net-(D101-Pad3)*%
X137450000Y-116600000D03*
%TO.P,D102,5*%
%TO.N,GND*%
X137450000Y-115000000D03*
%TO.P,D102,6*%
%TO.N,Net-(D102-Pad6)*%
X137450000Y-113400000D03*
%TO.P,D102,3*%
%TO.N,Net-(D102-Pad3)*%
X132550000Y-116600000D03*
%TO.P,D102,2*%
%TO.N,+5V*%
X132550000Y-115000000D03*
%TO.P,D102,1*%
%TO.N,Net-(D102-Pad1)*%
X132550000Y-113400000D03*
%TD*%
%TO.P,D103,1*%
%TO.N,Net-(D103-Pad1)*%
X112550000Y-133400000D03*
%TO.P,D103,2*%
%TO.N,+5V*%
X112550000Y-135000000D03*
%TO.P,D103,3*%
%TO.N,Net-(D103-Pad3)*%
X112550000Y-136600000D03*
%TO.P,D103,6*%
%TO.N,Net-(D103-Pad6)*%
X117450000Y-133400000D03*
%TO.P,D103,5*%
%TO.N,GND*%
X117450000Y-135000000D03*
%TO.P,D103,4*%
%TO.N,Net-(D102-Pad3)*%
X117450000Y-136600000D03*
%TD*%
%TO.P,D104,4*%
%TO.N,Net-(D103-Pad3)*%
X137450000Y-136600000D03*
%TO.P,D104,5*%
%TO.N,GND*%
X137450000Y-135000000D03*
%TO.P,D104,6*%
%TO.N,Net-(D104-Pad6)*%
X137450000Y-133400000D03*
%TO.P,D104,3*%
%TO.N,/DO*%
X132550000Y-136600000D03*
%TO.P,D104,2*%
%TO.N,+5V*%
X132550000Y-135000000D03*
%TO.P,D104,1*%
%TO.N,Net-(D104-Pad1)*%
X132550000Y-133400000D03*
%TD*%
D11*
%TO.P,J101,1*%
%TO.N,+5V*%
X105500000Y-120000000D03*
D12*
%TO.P,J101,2*%
%TO.N,/DI*%
X105500000Y-122540000D03*
%TO.P,J101,3*%
%TO.N,/DO*%
X105500000Y-125080000D03*
%TO.P,J101,4*%
%TO.N,/BI*%
X105500000Y-127620000D03*
%TO.P,J101,5*%
%TO.N,/BO*%
X105500000Y-130160000D03*
%TO.P,J101,6*%
%TO.N,GND*%
X105500000Y-132700000D03*
%TD*%
%TA.AperFunction,SMDPad,CuDef*%
D13*
%TO.P,JP101,2*%
%TO.N,Net-(D101-Pad1)*%
G36*
X112400000Y-109750602D02*
G01*
X112424534Y-109750602D01*
X112473365Y-109755412D01*
X112521490Y-109764984D01*
X112568445Y-109779228D01*
X112613778Y-109798005D01*
X112657051Y-109821136D01*
X112697850Y-109848396D01*
X112735779Y-109879524D01*
X112770476Y-109914221D01*
X112801604Y-109952150D01*
X112828864Y-109992949D01*
X112851995Y-110036222D01*
X112870772Y-110081555D01*
X112885016Y-110128510D01*
X112894588Y-110176635D01*
X112899398Y-110225466D01*
X112899398Y-110250000D01*
X112900000Y-110250000D01*
X112900000Y-110750000D01*
X112899398Y-110750000D01*
X112899398Y-110774534D01*
X112894588Y-110823365D01*
X112885016Y-110871490D01*
X112870772Y-110918445D01*
X112851995Y-110963778D01*
X112828864Y-111007051D01*
X112801604Y-111047850D01*
X112770476Y-111085779D01*
X112735779Y-111120476D01*
X112697850Y-111151604D01*
X112657051Y-111178864D01*
X112613778Y-111201995D01*
X112568445Y-111220772D01*
X112521490Y-111235016D01*
X112473365Y-111244588D01*
X112424534Y-111249398D01*
X112400000Y-111249398D01*
X112400000Y-111250000D01*
X111900000Y-111250000D01*
X111900000Y-109750000D01*
X112400000Y-109750000D01*
X112400000Y-109750602D01*
G37*
%TD.AperFunction*%
%TA.AperFunction,SMDPad,CuDef*%
%TO.P,JP101,1*%
%TO.N,Net-(C101-Pad2)*%
G36*
X111600000Y-111250000D02*
G01*
X111100000Y-111250000D01*
X111100000Y-111249398D01*
X111075466Y-111249398D01*
X111026635Y-111244588D01*
X110978510Y-111235016D01*
X110931555Y-111220772D01*
X110886222Y-111201995D01*
X110842949Y-111178864D01*
X110802150Y-111151604D01*
X110764221Y-111120476D01*
X110729524Y-111085779D01*
X110698396Y-111047850D01*
X110671136Y-111007051D01*
X110648005Y-110963778D01*
X110629228Y-110918445D01*
X110614984Y-110871490D01*
X110605412Y-110823365D01*
X110600602Y-110774534D01*
X110600602Y-110750000D01*
X110600000Y-110750000D01*
X110600000Y-110250000D01*
X110600602Y-110250000D01*
X110600602Y-110225466D01*
X110605412Y-110176635D01*
X110614984Y-110128510D01*
X110629228Y-110081555D01*
X110648005Y-110036222D01*
X110671136Y-109992949D01*
X110698396Y-109952150D01*
X110729524Y-109914221D01*
X110764221Y-109879524D01*
X110802150Y-109848396D01*
X110842949Y-109821136D01*
X110886222Y-109798005D01*
X110931555Y-109779228D01*
X110978510Y-109764984D01*
X111026635Y-109755412D01*
X111075466Y-109750602D01*
X111100000Y-109750602D01*
X111100000Y-109750000D01*
X111600000Y-109750000D01*
X111600000Y-111250000D01*
G37*
%TD.AperFunction*%
%TD*%
%TA.AperFunction,SMDPad,CuDef*%
%TO.P,JP102,1*%
%TO.N,Net-(C102-Pad2)*%
G36*
X131600000Y-111250000D02*
G01*
X131100000Y-111250000D01*
X131100000Y-111249398D01*
X131075466Y-111249398D01*
X131026635Y-111244588D01*
X130978510Y-111235016D01*
X130931555Y-111220772D01*
X130886222Y-111201995D01*
X130842949Y-111178864D01*
X130802150Y-111151604D01*
X130764221Y-111120476D01*
X130729524Y-111085779D01*
X130698396Y-111047850D01*
X130671136Y-111007051D01*
X130648005Y-110963778D01*
X130629228Y-110918445D01*
X130614984Y-110871490D01*
X130605412Y-110823365D01*
X130600602Y-110774534D01*
X130600602Y-110750000D01*
X130600000Y-110750000D01*
X130600000Y-110250000D01*
X130600602Y-110250000D01*
X130600602Y-110225466D01*
X130605412Y-110176635D01*
X130614984Y-110128510D01*
X130629228Y-110081555D01*
X130648005Y-110036222D01*
X130671136Y-109992949D01*
X130698396Y-109952150D01*
X130729524Y-109914221D01*
X130764221Y-109879524D01*
X130802150Y-109848396D01*
X130842949Y-109821136D01*
X130886222Y-109798005D01*
X130931555Y-109779228D01*
X130978510Y-109764984D01*
X131026635Y-109755412D01*
X131075466Y-109750602D01*
X131100000Y-109750602D01*
X131100000Y-109750000D01*
X131600000Y-109750000D01*
X131600000Y-111250000D01*
G37*
%TD.AperFunction*%
%TA.AperFunction,SMDPad,CuDef*%
%TO.P,JP102,2*%
%TO.N,Net-(D102-Pad1)*%
G36*
X132400000Y-109750602D02*
G01*
X132424534Y-109750602D01*
X132473365Y-109755412D01*
X132521490Y-109764984D01*
X132568445Y-109779228D01*
X132613778Y-109798005D01*
X132657051Y-109821136D01*
X132697850Y-109848396D01*
X132735779Y-109879524D01*
X132770476Y-109914221D01*
X132801604Y-109952150D01*
X132828864Y-109992949D01*
X132851995Y-110036222D01*
X132870772Y-110081555D01*
X132885016Y-110128510D01*
X132894588Y-110176635D01*
X132899398Y-110225466D01*
X132899398Y-110250000D01*
X132900000Y-110250000D01*
X132900000Y-110750000D01*
X132899398Y-110750000D01*
X132899398Y-110774534D01*
X132894588Y-110823365D01*
X132885016Y-110871490D01*
X132870772Y-110918445D01*
X132851995Y-110963778D01*
X132828864Y-111007051D01*
X132801604Y-111047850D01*
X132770476Y-111085779D01*
X132735779Y-111120476D01*
X132697850Y-111151604D01*
X132657051Y-111178864D01*
X132613778Y-111201995D01*
X132568445Y-111220772D01*
X132521490Y-111235016D01*
X132473365Y-111244588D01*
X132424534Y-111249398D01*
X132400000Y-111249398D01*
X132400000Y-111250000D01*
X131900000Y-111250000D01*
X131900000Y-109750000D01*
X132400000Y-109750000D01*
X132400000Y-109750602D01*
G37*
%TD.AperFunction*%
%TD*%
%TA.AperFunction,SMDPad,CuDef*%
%TO.P,JP103,2*%
%TO.N,Net-(D103-Pad1)*%
G36*
X112400000Y-129750602D02*
G01*
X112424534Y-129750602D01*
X112473365Y-129755412D01*
X112521490Y-129764984D01*
X112568445Y-129779228D01*
X112613778Y-129798005D01*
X112657051Y-129821136D01*
X112697850Y-129848396D01*
X112735779Y-129879524D01*
X112770476Y-129914221D01*
X112801604Y-129952150D01*
X112828864Y-129992949D01*
X112851995Y-130036222D01*
X112870772Y-130081555D01*
X112885016Y-130128510D01*
X112894588Y-130176635D01*
X112899398Y-130225466D01*
X112899398Y-130250000D01*
X112900000Y-130250000D01*
X112900000Y-130750000D01*
X112899398Y-130750000D01*
X112899398Y-130774534D01*
X112894588Y-130823365D01*
X112885016Y-130871490D01*
X112870772Y-130918445D01*
X112851995Y-130963778D01*
X112828864Y-131007051D01*
X112801604Y-131047850D01*
X112770476Y-131085779D01*
X112735779Y-131120476D01*
X112697850Y-131151604D01*
X112657051Y-131178864D01*
X112613778Y-131201995D01*
X112568445Y-131220772D01*
X112521490Y-131235016D01*
X112473365Y-131244588D01*
X112424534Y-131249398D01*
X112400000Y-131249398D01*
X112400000Y-131250000D01*
X111900000Y-131250000D01*
X111900000Y-129750000D01*
X112400000Y-129750000D01*
X112400000Y-129750602D01*
G37*
%TD.AperFunction*%
%TA.AperFunction,SMDPad,CuDef*%
%TO.P,JP103,1*%
%TO.N,Net-(C103-Pad2)*%
G36*
X111600000Y-131250000D02*
G01*
X111100000Y-131250000D01*
X111100000Y-131249398D01*
X111075466Y-131249398D01*
X111026635Y-131244588D01*
X110978510Y-131235016D01*
X110931555Y-131220772D01*
X110886222Y-131201995D01*
X110842949Y-131178864D01*
X110802150Y-131151604D01*
X110764221Y-131120476D01*
X110729524Y-131085779D01*
X110698396Y-131047850D01*
X110671136Y-131007051D01*
X110648005Y-130963778D01*
X110629228Y-130918445D01*
X110614984Y-130871490D01*
X110605412Y-130823365D01*
X110600602Y-130774534D01*
X110600602Y-130750000D01*
X110600000Y-130750000D01*
X110600000Y-130250000D01*
X110600602Y-130250000D01*
X110600602Y-130225466D01*
X110605412Y-130176635D01*
X110614984Y-130128510D01*
X110629228Y-130081555D01*
X110648005Y-130036222D01*
X110671136Y-129992949D01*
X110698396Y-129952150D01*
X110729524Y-129914221D01*
X110764221Y-129879524D01*
X110802150Y-129848396D01*
X110842949Y-129821136D01*
X110886222Y-129798005D01*
X110931555Y-129779228D01*
X110978510Y-129764984D01*
X111026635Y-129755412D01*
X111075466Y-129750602D01*
X111100000Y-129750602D01*
X111100000Y-129750000D01*
X111600000Y-129750000D01*
X111600000Y-131250000D01*
G37*
%TD.AperFunction*%
%TD*%
%TA.AperFunction,SMDPad,CuDef*%
%TO.P,JP104,1*%
%TO.N,Net-(C104-Pad2)*%
G36*
X131600000Y-131250000D02*
G01*
X131100000Y-131250000D01*
X131100000Y-131249398D01*
X131075466Y-131249398D01*
X131026635Y-131244588D01*
X130978510Y-131235016D01*
X130931555Y-131220772D01*
X130886222Y-131201995D01*
X130842949Y-131178864D01*
X130802150Y-131151604D01*
X130764221Y-131120476D01*
X130729524Y-131085779D01*
X130698396Y-131047850D01*
X130671136Y-131007051D01*
X130648005Y-130963778D01*
X130629228Y-130918445D01*
X130614984Y-130871490D01*
X130605412Y-130823365D01*
X130600602Y-130774534D01*
X130600602Y-130750000D01*
X130600000Y-130750000D01*
X130600000Y-130250000D01*
X130600602Y-130250000D01*
X130600602Y-130225466D01*
X130605412Y-130176635D01*
X130614984Y-130128510D01*
X130629228Y-130081555D01*
X130648005Y-130036222D01*
X130671136Y-129992949D01*
X130698396Y-129952150D01*
X130729524Y-129914221D01*
X130764221Y-129879524D01*
X130802150Y-129848396D01*
X130842949Y-129821136D01*
X130886222Y-129798005D01*
X130931555Y-129779228D01*
X130978510Y-129764984D01*
X131026635Y-129755412D01*
X131075466Y-129750602D01*
X131100000Y-129750602D01*
X131100000Y-129750000D01*
X131600000Y-129750000D01*
X131600000Y-131250000D01*
G37*
%TD.AperFunction*%
%TA.AperFunction,SMDPad,CuDef*%
%TO.P,JP104,2*%
%TO.N,Net-(D104-Pad1)*%
G36*
X132400000Y-129750602D02*
G01*
X132424534Y-129750602D01*
X132473365Y-129755412D01*
X132521490Y-129764984D01*
X132568445Y-129779228D01*
X132613778Y-129798005D01*
X132657051Y-129821136D01*
X132697850Y-129848396D01*
X132735779Y-129879524D01*
X132770476Y-129914221D01*
X132801604Y-129952150D01*
X132828864Y-129992949D01*
X132851995Y-130036222D01*
X132870772Y-130081555D01*
X132885016Y-130128510D01*
X132894588Y-130176635D01*
X132899398Y-130225466D01*
X132899398Y-130250000D01*
X132900000Y-130250000D01*
X132900000Y-130750000D01*
X132899398Y-130750000D01*
X132899398Y-130774534D01*
X132894588Y-130823365D01*
X132885016Y-130871490D01*
X132870772Y-130918445D01*
X132851995Y-130963778D01*
X132828864Y-131007051D01*
X132801604Y-131047850D01*
X132770476Y-131085779D01*
X132735779Y-131120476D01*
X132697850Y-131151604D01*
X132657051Y-131178864D01*
X132613778Y-131201995D01*
X132568445Y-131220772D01*
X132521490Y-131235016D01*
X132473365Y-131244588D01*
X132424534Y-131249398D01*
X132400000Y-131249398D01*
X132400000Y-131250000D01*
X131900000Y-131250000D01*
X131900000Y-129750000D01*
X132400000Y-129750000D01*
X132400000Y-129750602D01*
G37*
%TD.AperFunction*%
%TD*%
%TA.AperFunction,SMDPad,CuDef*%
%TO.P,JP105,2*%
%TO.N,Net-(D102-Pad6)*%
G36*
X117400000Y-109750602D02*
G01*
X117424534Y-109750602D01*
X117473365Y-109755412D01*
X117521490Y-109764984D01*
X117568445Y-109779228D01*
X117613778Y-109798005D01*
X117657051Y-109821136D01*
X117697850Y-109848396D01*
X117735779Y-109879524D01*
X117770476Y-109914221D01*
X117801604Y-109952150D01*
X117828864Y-109992949D01*
X117851995Y-110036222D01*
X117870772Y-110081555D01*
X117885016Y-110128510D01*
X117894588Y-110176635D01*
X117899398Y-110225466D01*
X117899398Y-110250000D01*
X117900000Y-110250000D01*
X117900000Y-110750000D01*
X117899398Y-110750000D01*
X117899398Y-110774534D01*
X117894588Y-110823365D01*
X117885016Y-110871490D01*
X117870772Y-110918445D01*
X117851995Y-110963778D01*
X117828864Y-111007051D01*
X117801604Y-111047850D01*
X117770476Y-111085779D01*
X117735779Y-111120476D01*
X117697850Y-111151604D01*
X117657051Y-111178864D01*
X117613778Y-111201995D01*
X117568445Y-111220772D01*
X117521490Y-111235016D01*
X117473365Y-111244588D01*
X117424534Y-111249398D01*
X117400000Y-111249398D01*
X117400000Y-111250000D01*
X116900000Y-111250000D01*
X116900000Y-109750000D01*
X117400000Y-109750000D01*
X117400000Y-109750602D01*
G37*
%TD.AperFunction*%
%TA.AperFunction,SMDPad,CuDef*%
%TO.P,JP105,1*%
%TO.N,Net-(D101-Pad1)*%
G36*
X116600000Y-111250000D02*
G01*
X116100000Y-111250000D01*
X116100000Y-111249398D01*
X116075466Y-111249398D01*
X116026635Y-111244588D01*
X115978510Y-111235016D01*
X115931555Y-111220772D01*
X115886222Y-111201995D01*
X115842949Y-111178864D01*
X115802150Y-111151604D01*
X115764221Y-111120476D01*
X115729524Y-111085779D01*
X115698396Y-111047850D01*
X115671136Y-111007051D01*
X115648005Y-110963778D01*
X115629228Y-110918445D01*
X115614984Y-110871490D01*
X115605412Y-110823365D01*
X115600602Y-110774534D01*
X115600602Y-110750000D01*
X115600000Y-110750000D01*
X115600000Y-110250000D01*
X115600602Y-110250000D01*
X115600602Y-110225466D01*
X115605412Y-110176635D01*
X115614984Y-110128510D01*
X115629228Y-110081555D01*
X115648005Y-110036222D01*
X115671136Y-109992949D01*
X115698396Y-109952150D01*
X115729524Y-109914221D01*
X115764221Y-109879524D01*
X115802150Y-109848396D01*
X115842949Y-109821136D01*
X115886222Y-109798005D01*
X115931555Y-109779228D01*
X115978510Y-109764984D01*
X116026635Y-109755412D01*
X116075466Y-109750602D01*
X116100000Y-109750602D01*
X116100000Y-109750000D01*
X116600000Y-109750000D01*
X116600000Y-111250000D01*
G37*
%TD.AperFunction*%
%TD*%
%TA.AperFunction,SMDPad,CuDef*%
%TO.P,JP106,1*%
%TO.N,Net-(D102-Pad1)*%
G36*
X136600000Y-111250000D02*
G01*
X136100000Y-111250000D01*
X136100000Y-111249398D01*
X136075466Y-111249398D01*
X136026635Y-111244588D01*
X135978510Y-111235016D01*
X135931555Y-111220772D01*
X135886222Y-111201995D01*
X135842949Y-111178864D01*
X135802150Y-111151604D01*
X135764221Y-111120476D01*
X135729524Y-111085779D01*
X135698396Y-111047850D01*
X135671136Y-111007051D01*
X135648005Y-110963778D01*
X135629228Y-110918445D01*
X135614984Y-110871490D01*
X135605412Y-110823365D01*
X135600602Y-110774534D01*
X135600602Y-110750000D01*
X135600000Y-110750000D01*
X135600000Y-110250000D01*
X135600602Y-110250000D01*
X135600602Y-110225466D01*
X135605412Y-110176635D01*
X135614984Y-110128510D01*
X135629228Y-110081555D01*
X135648005Y-110036222D01*
X135671136Y-109992949D01*
X135698396Y-109952150D01*
X135729524Y-109914221D01*
X135764221Y-109879524D01*
X135802150Y-109848396D01*
X135842949Y-109821136D01*
X135886222Y-109798005D01*
X135931555Y-109779228D01*
X135978510Y-109764984D01*
X136026635Y-109755412D01*
X136075466Y-109750602D01*
X136100000Y-109750602D01*
X136100000Y-109750000D01*
X136600000Y-109750000D01*
X136600000Y-111250000D01*
G37*
%TD.AperFunction*%
%TA.AperFunction,SMDPad,CuDef*%
%TO.P,JP106,2*%
%TO.N,Net-(D103-Pad6)*%
G36*
X137400000Y-109750602D02*
G01*
X137424534Y-109750602D01*
X137473365Y-109755412D01*
X137521490Y-109764984D01*
X137568445Y-109779228D01*
X137613778Y-109798005D01*
X137657051Y-109821136D01*
X137697850Y-109848396D01*
X137735779Y-109879524D01*
X137770476Y-109914221D01*
X137801604Y-109952150D01*
X137828864Y-109992949D01*
X137851995Y-110036222D01*
X137870772Y-110081555D01*
X137885016Y-110128510D01*
X137894588Y-110176635D01*
X137899398Y-110225466D01*
X137899398Y-110250000D01*
X137900000Y-110250000D01*
X137900000Y-110750000D01*
X137899398Y-110750000D01*
X137899398Y-110774534D01*
X137894588Y-110823365D01*
X137885016Y-110871490D01*
X137870772Y-110918445D01*
X137851995Y-110963778D01*
X137828864Y-111007051D01*
X137801604Y-111047850D01*
X137770476Y-111085779D01*
X137735779Y-111120476D01*
X137697850Y-111151604D01*
X137657051Y-111178864D01*
X137613778Y-111201995D01*
X137568445Y-111220772D01*
X137521490Y-111235016D01*
X137473365Y-111244588D01*
X137424534Y-111249398D01*
X137400000Y-111249398D01*
X137400000Y-111250000D01*
X136900000Y-111250000D01*
X136900000Y-109750000D01*
X137400000Y-109750000D01*
X137400000Y-109750602D01*
G37*
%TD.AperFunction*%
%TD*%
%TA.AperFunction,SMDPad,CuDef*%
%TO.P,JP107,2*%
%TO.N,Net-(D104-Pad6)*%
G36*
X117400000Y-129750602D02*
G01*
X117424534Y-129750602D01*
X117473365Y-129755412D01*
X117521490Y-129764984D01*
X117568445Y-129779228D01*
X117613778Y-129798005D01*
X117657051Y-129821136D01*
X117697850Y-129848396D01*
X117735779Y-129879524D01*
X117770476Y-129914221D01*
X117801604Y-129952150D01*
X117828864Y-129992949D01*
X117851995Y-130036222D01*
X117870772Y-130081555D01*
X117885016Y-130128510D01*
X117894588Y-130176635D01*
X117899398Y-130225466D01*
X117899398Y-130250000D01*
X117900000Y-130250000D01*
X117900000Y-130750000D01*
X117899398Y-130750000D01*
X117899398Y-130774534D01*
X117894588Y-130823365D01*
X117885016Y-130871490D01*
X117870772Y-130918445D01*
X117851995Y-130963778D01*
X117828864Y-131007051D01*
X117801604Y-131047850D01*
X117770476Y-131085779D01*
X117735779Y-131120476D01*
X117697850Y-131151604D01*
X117657051Y-131178864D01*
X117613778Y-131201995D01*
X117568445Y-131220772D01*
X117521490Y-131235016D01*
X117473365Y-131244588D01*
X117424534Y-131249398D01*
X117400000Y-131249398D01*
X117400000Y-131250000D01*
X116900000Y-131250000D01*
X116900000Y-129750000D01*
X117400000Y-129750000D01*
X117400000Y-129750602D01*
G37*
%TD.AperFunction*%
%TA.AperFunction,SMDPad,CuDef*%
%TO.P,JP107,1*%
%TO.N,Net-(D103-Pad1)*%
G36*
X116600000Y-131250000D02*
G01*
X116100000Y-131250000D01*
X116100000Y-131249398D01*
X116075466Y-131249398D01*
X116026635Y-131244588D01*
X115978510Y-131235016D01*
X115931555Y-131220772D01*
X115886222Y-131201995D01*
X115842949Y-131178864D01*
X115802150Y-131151604D01*
X115764221Y-131120476D01*
X115729524Y-131085779D01*
X115698396Y-131047850D01*
X115671136Y-131007051D01*
X115648005Y-130963778D01*
X115629228Y-130918445D01*
X115614984Y-130871490D01*
X115605412Y-130823365D01*
X115600602Y-130774534D01*
X115600602Y-130750000D01*
X115600000Y-130750000D01*
X115600000Y-130250000D01*
X115600602Y-130250000D01*
X115600602Y-130225466D01*
X115605412Y-130176635D01*
X115614984Y-130128510D01*
X115629228Y-130081555D01*
X115648005Y-130036222D01*
X115671136Y-129992949D01*
X115698396Y-129952150D01*
X115729524Y-129914221D01*
X115764221Y-129879524D01*
X115802150Y-129848396D01*
X115842949Y-129821136D01*
X115886222Y-129798005D01*
X115931555Y-129779228D01*
X115978510Y-129764984D01*
X116026635Y-129755412D01*
X116075466Y-129750602D01*
X116100000Y-129750602D01*
X116100000Y-129750000D01*
X116600000Y-129750000D01*
X116600000Y-131250000D01*
G37*
%TD.AperFunction*%
%TD*%
%TA.AperFunction,SMDPad,CuDef*%
%TO.P,JP108,1*%
%TO.N,Net-(D104-Pad1)*%
G36*
X136600000Y-131250000D02*
G01*
X136100000Y-131250000D01*
X136100000Y-131249398D01*
X136075466Y-131249398D01*
X136026635Y-131244588D01*
X135978510Y-131235016D01*
X135931555Y-131220772D01*
X135886222Y-131201995D01*
X135842949Y-131178864D01*
X135802150Y-131151604D01*
X135764221Y-131120476D01*
X135729524Y-131085779D01*
X135698396Y-131047850D01*
X135671136Y-131007051D01*
X135648005Y-130963778D01*
X135629228Y-130918445D01*
X135614984Y-130871490D01*
X135605412Y-130823365D01*
X135600602Y-130774534D01*
X135600602Y-130750000D01*
X135600000Y-130750000D01*
X135600000Y-130250000D01*
X135600602Y-130250000D01*
X135600602Y-130225466D01*
X135605412Y-130176635D01*
X135614984Y-130128510D01*
X135629228Y-130081555D01*
X135648005Y-130036222D01*
X135671136Y-129992949D01*
X135698396Y-129952150D01*
X135729524Y-129914221D01*
X135764221Y-129879524D01*
X135802150Y-129848396D01*
X135842949Y-129821136D01*
X135886222Y-129798005D01*
X135931555Y-129779228D01*
X135978510Y-129764984D01*
X136026635Y-129755412D01*
X136075466Y-129750602D01*
X136100000Y-129750602D01*
X136100000Y-129750000D01*
X136600000Y-129750000D01*
X136600000Y-131250000D01*
G37*
%TD.AperFunction*%
%TA.AperFunction,SMDPad,CuDef*%
%TO.P,JP108,2*%
%TO.N,/BO*%
G36*
X137400000Y-129750602D02*
G01*
X137424534Y-129750602D01*
X137473365Y-129755412D01*
X137521490Y-129764984D01*
X137568445Y-129779228D01*
X137613778Y-129798005D01*
X137657051Y-129821136D01*
X137697850Y-129848396D01*
X137735779Y-129879524D01*
X137770476Y-129914221D01*
X137801604Y-129952150D01*
X137828864Y-129992949D01*
X137851995Y-130036222D01*
X137870772Y-130081555D01*
X137885016Y-130128510D01*
X137894588Y-130176635D01*
X137899398Y-130225466D01*
X137899398Y-130250000D01*
X137900000Y-130250000D01*
X137900000Y-130750000D01*
X137899398Y-130750000D01*
X137899398Y-130774534D01*
X137894588Y-130823365D01*
X137885016Y-130871490D01*
X137870772Y-130918445D01*
X137851995Y-130963778D01*
X137828864Y-131007051D01*
X137801604Y-131047850D01*
X137770476Y-131085779D01*
X137735779Y-131120476D01*
X137697850Y-131151604D01*
X137657051Y-131178864D01*
X137613778Y-131201995D01*
X137568445Y-131220772D01*
X137521490Y-131235016D01*
X137473365Y-131244588D01*
X137424534Y-131249398D01*
X137400000Y-131249398D01*
X137400000Y-131250000D01*
X136900000Y-131250000D01*
X136900000Y-129750000D01*
X137400000Y-129750000D01*
X137400000Y-129750602D01*
G37*
%TD.AperFunction*%
%TD*%
%TA.AperFunction,SMDPad,CuDef*%
%TO.P,JP109,2*%
%TO.N,/BI*%
G36*
X120749398Y-113400000D02*
G01*
X120749398Y-113424534D01*
X120744588Y-113473365D01*
X120735016Y-113521490D01*
X120720772Y-113568445D01*
X120701995Y-113613778D01*
X120678864Y-113657051D01*
X120651604Y-113697850D01*
X120620476Y-113735779D01*
X120585779Y-113770476D01*
X120547850Y-113801604D01*
X120507051Y-113828864D01*
X120463778Y-113851995D01*
X120418445Y-113870772D01*
X120371490Y-113885016D01*
X120323365Y-113894588D01*
X120274534Y-113899398D01*
X120250000Y-113899398D01*
X120250000Y-113900000D01*
X119750000Y-113900000D01*
X119750000Y-113899398D01*
X119725466Y-113899398D01*
X119676635Y-113894588D01*
X119628510Y-113885016D01*
X119581555Y-113870772D01*
X119536222Y-113851995D01*
X119492949Y-113828864D01*
X119452150Y-113801604D01*
X119414221Y-113770476D01*
X119379524Y-113735779D01*
X119348396Y-113697850D01*
X119321136Y-113657051D01*
X119298005Y-113613778D01*
X119279228Y-113568445D01*
X119264984Y-113521490D01*
X119255412Y-113473365D01*
X119250602Y-113424534D01*
X119250602Y-113400000D01*
X119250000Y-113400000D01*
X119250000Y-112900000D01*
X120750000Y-112900000D01*
X120750000Y-113400000D01*
X120749398Y-113400000D01*
G37*
%TD.AperFunction*%
%TA.AperFunction,SMDPad,CuDef*%
%TO.P,JP109,1*%
%TO.N,Net-(D102-Pad6)*%
G36*
X119250000Y-112600000D02*
G01*
X119250000Y-112100000D01*
X119250602Y-112100000D01*
X119250602Y-112075466D01*
X119255412Y-112026635D01*
X119264984Y-111978510D01*
X119279228Y-111931555D01*
X119298005Y-111886222D01*
X119321136Y-111842949D01*
X119348396Y-111802150D01*
X119379524Y-111764221D01*
X119414221Y-111729524D01*
X119452150Y-111698396D01*
X119492949Y-111671136D01*
X119536222Y-111648005D01*
X119581555Y-111629228D01*
X119628510Y-111614984D01*
X119676635Y-111605412D01*
X119725466Y-111600602D01*
X119750000Y-111600602D01*
X119750000Y-111600000D01*
X120250000Y-111600000D01*
X120250000Y-111600602D01*
X120274534Y-111600602D01*
X120323365Y-111605412D01*
X120371490Y-111614984D01*
X120418445Y-111629228D01*
X120463778Y-111648005D01*
X120507051Y-111671136D01*
X120547850Y-111698396D01*
X120585779Y-111729524D01*
X120620476Y-111764221D01*
X120651604Y-111802150D01*
X120678864Y-111842949D01*
X120701995Y-111886222D01*
X120720772Y-111931555D01*
X120735016Y-111978510D01*
X120744588Y-112026635D01*
X120749398Y-112075466D01*
X120749398Y-112100000D01*
X120750000Y-112100000D01*
X120750000Y-112600000D01*
X119250000Y-112600000D01*
G37*
%TD.AperFunction*%
%TD*%
%TA.AperFunction,SMDPad,CuDef*%
%TO.P,JP110,1*%
%TO.N,Net-(D103-Pad6)*%
G36*
X139250000Y-112600000D02*
G01*
X139250000Y-112100000D01*
X139250602Y-112100000D01*
X139250602Y-112075466D01*
X139255412Y-112026635D01*
X139264984Y-111978510D01*
X139279228Y-111931555D01*
X139298005Y-111886222D01*
X139321136Y-111842949D01*
X139348396Y-111802150D01*
X139379524Y-111764221D01*
X139414221Y-111729524D01*
X139452150Y-111698396D01*
X139492949Y-111671136D01*
X139536222Y-111648005D01*
X139581555Y-111629228D01*
X139628510Y-111614984D01*
X139676635Y-111605412D01*
X139725466Y-111600602D01*
X139750000Y-111600602D01*
X139750000Y-111600000D01*
X140250000Y-111600000D01*
X140250000Y-111600602D01*
X140274534Y-111600602D01*
X140323365Y-111605412D01*
X140371490Y-111614984D01*
X140418445Y-111629228D01*
X140463778Y-111648005D01*
X140507051Y-111671136D01*
X140547850Y-111698396D01*
X140585779Y-111729524D01*
X140620476Y-111764221D01*
X140651604Y-111802150D01*
X140678864Y-111842949D01*
X140701995Y-111886222D01*
X140720772Y-111931555D01*
X140735016Y-111978510D01*
X140744588Y-112026635D01*
X140749398Y-112075466D01*
X140749398Y-112100000D01*
X140750000Y-112100000D01*
X140750000Y-112600000D01*
X139250000Y-112600000D01*
G37*
%TD.AperFunction*%
%TA.AperFunction,SMDPad,CuDef*%
%TO.P,JP110,2*%
%TO.N,Net-(D101-Pad3)*%
G36*
X140749398Y-113400000D02*
G01*
X140749398Y-113424534D01*
X140744588Y-113473365D01*
X140735016Y-113521490D01*
X140720772Y-113568445D01*
X140701995Y-113613778D01*
X140678864Y-113657051D01*
X140651604Y-113697850D01*
X140620476Y-113735779D01*
X140585779Y-113770476D01*
X140547850Y-113801604D01*
X140507051Y-113828864D01*
X140463778Y-113851995D01*
X140418445Y-113870772D01*
X140371490Y-113885016D01*
X140323365Y-113894588D01*
X140274534Y-113899398D01*
X140250000Y-113899398D01*
X140250000Y-113900000D01*
X139750000Y-113900000D01*
X139750000Y-113899398D01*
X139725466Y-113899398D01*
X139676635Y-113894588D01*
X139628510Y-113885016D01*
X139581555Y-113870772D01*
X139536222Y-113851995D01*
X139492949Y-113828864D01*
X139452150Y-113801604D01*
X139414221Y-113770476D01*
X139379524Y-113735779D01*
X139348396Y-113697850D01*
X139321136Y-113657051D01*
X139298005Y-113613778D01*
X139279228Y-113568445D01*
X139264984Y-113521490D01*
X139255412Y-113473365D01*
X139250602Y-113424534D01*
X139250602Y-113400000D01*
X139250000Y-113400000D01*
X139250000Y-112900000D01*
X140750000Y-112900000D01*
X140750000Y-113400000D01*
X140749398Y-113400000D01*
G37*
%TD.AperFunction*%
%TD*%
%TA.AperFunction,SMDPad,CuDef*%
%TO.P,JP111,2*%
%TO.N,Net-(D102-Pad3)*%
G36*
X120749398Y-133400000D02*
G01*
X120749398Y-133424534D01*
X120744588Y-133473365D01*
X120735016Y-133521490D01*
X120720772Y-133568445D01*
X120701995Y-133613778D01*
X120678864Y-133657051D01*
X120651604Y-133697850D01*
X120620476Y-133735779D01*
X120585779Y-133770476D01*
X120547850Y-133801604D01*
X120507051Y-133828864D01*
X120463778Y-133851995D01*
X120418445Y-133870772D01*
X120371490Y-133885016D01*
X120323365Y-133894588D01*
X120274534Y-133899398D01*
X120250000Y-133899398D01*
X120250000Y-133900000D01*
X119750000Y-133900000D01*
X119750000Y-133899398D01*
X119725466Y-133899398D01*
X119676635Y-133894588D01*
X119628510Y-133885016D01*
X119581555Y-133870772D01*
X119536222Y-133851995D01*
X119492949Y-133828864D01*
X119452150Y-133801604D01*
X119414221Y-133770476D01*
X119379524Y-133735779D01*
X119348396Y-133697850D01*
X119321136Y-133657051D01*
X119298005Y-133613778D01*
X119279228Y-133568445D01*
X119264984Y-133521490D01*
X119255412Y-133473365D01*
X119250602Y-133424534D01*
X119250602Y-133400000D01*
X119250000Y-133400000D01*
X119250000Y-132900000D01*
X120750000Y-132900000D01*
X120750000Y-133400000D01*
X120749398Y-133400000D01*
G37*
%TD.AperFunction*%
%TA.AperFunction,SMDPad,CuDef*%
%TO.P,JP111,1*%
%TO.N,Net-(D104-Pad6)*%
G36*
X119250000Y-132600000D02*
G01*
X119250000Y-132100000D01*
X119250602Y-132100000D01*
X119250602Y-132075466D01*
X119255412Y-132026635D01*
X119264984Y-131978510D01*
X119279228Y-131931555D01*
X119298005Y-131886222D01*
X119321136Y-131842949D01*
X119348396Y-131802150D01*
X119379524Y-131764221D01*
X119414221Y-131729524D01*
X119452150Y-131698396D01*
X119492949Y-131671136D01*
X119536222Y-131648005D01*
X119581555Y-131629228D01*
X119628510Y-131614984D01*
X119676635Y-131605412D01*
X119725466Y-131600602D01*
X119750000Y-131600602D01*
X119750000Y-131600000D01*
X120250000Y-131600000D01*
X120250000Y-131600602D01*
X120274534Y-131600602D01*
X120323365Y-131605412D01*
X120371490Y-131614984D01*
X120418445Y-131629228D01*
X120463778Y-131648005D01*
X120507051Y-131671136D01*
X120547850Y-131698396D01*
X120585779Y-131729524D01*
X120620476Y-131764221D01*
X120651604Y-131802150D01*
X120678864Y-131842949D01*
X120701995Y-131886222D01*
X120720772Y-131931555D01*
X120735016Y-131978510D01*
X120744588Y-132026635D01*
X120749398Y-132075466D01*
X120749398Y-132100000D01*
X120750000Y-132100000D01*
X120750000Y-132600000D01*
X119250000Y-132600000D01*
G37*
%TD.AperFunction*%
%TD*%
%TA.AperFunction,SMDPad,CuDef*%
%TO.P,JP112,1*%
%TO.N,/BO*%
G36*
X139250000Y-132600000D02*
G01*
X139250000Y-132100000D01*
X139250602Y-132100000D01*
X139250602Y-132075466D01*
X139255412Y-132026635D01*
X139264984Y-131978510D01*
X139279228Y-131931555D01*
X139298005Y-131886222D01*
X139321136Y-131842949D01*
X139348396Y-131802150D01*
X139379524Y-131764221D01*
X139414221Y-131729524D01*
X139452150Y-131698396D01*
X139492949Y-131671136D01*
X139536222Y-131648005D01*
X139581555Y-131629228D01*
X139628510Y-131614984D01*
X139676635Y-131605412D01*
X139725466Y-131600602D01*
X139750000Y-131600602D01*
X139750000Y-131600000D01*
X140250000Y-131600000D01*
X140250000Y-131600602D01*
X140274534Y-131600602D01*
X140323365Y-131605412D01*
X140371490Y-131614984D01*
X140418445Y-131629228D01*
X140463778Y-131648005D01*
X140507051Y-131671136D01*
X140547850Y-131698396D01*
X140585779Y-131729524D01*
X140620476Y-131764221D01*
X140651604Y-131802150D01*
X140678864Y-131842949D01*
X140701995Y-131886222D01*
X140720772Y-131931555D01*
X140735016Y-131978510D01*
X140744588Y-132026635D01*
X140749398Y-132075466D01*
X140749398Y-132100000D01*
X140750000Y-132100000D01*
X140750000Y-132600000D01*
X139250000Y-132600000D01*
G37*
%TD.AperFunction*%
%TA.AperFunction,SMDPad,CuDef*%
%TO.P,JP112,2*%
%TO.N,Net-(D103-Pad3)*%
G36*
X140749398Y-133400000D02*
G01*
X140749398Y-133424534D01*
X140744588Y-133473365D01*
X140735016Y-133521490D01*
X140720772Y-133568445D01*
X140701995Y-133613778D01*
X140678864Y-133657051D01*
X140651604Y-133697850D01*
X140620476Y-133735779D01*
X140585779Y-133770476D01*
X140547850Y-133801604D01*
X140507051Y-133828864D01*
X140463778Y-133851995D01*
X140418445Y-133870772D01*
X140371490Y-133885016D01*
X140323365Y-133894588D01*
X140274534Y-133899398D01*
X140250000Y-133899398D01*
X140250000Y-133900000D01*
X139750000Y-133900000D01*
X139750000Y-133899398D01*
X139725466Y-133899398D01*
X139676635Y-133894588D01*
X139628510Y-133885016D01*
X139581555Y-133870772D01*
X139536222Y-133851995D01*
X139492949Y-133828864D01*
X139452150Y-133801604D01*
X139414221Y-133770476D01*
X139379524Y-133735779D01*
X139348396Y-133697850D01*
X139321136Y-133657051D01*
X139298005Y-133613778D01*
X139279228Y-133568445D01*
X139264984Y-133521490D01*
X139255412Y-133473365D01*
X139250602Y-133424534D01*
X139250602Y-133400000D01*
X139250000Y-133400000D01*
X139250000Y-132900000D01*
X140750000Y-132900000D01*
X140750000Y-133400000D01*
X140749398Y-133400000D01*
G37*
%TD.AperFunction*%
%TD*%
%TO.P,R101,2*%
%TO.N,Net-(C101-Pad2)*%
%TA.AperFunction,SMDPad,CuDef*%
G36*
G01*
X110935000Y-112760000D02*
X110565000Y-112760000D01*
G75*
G02*
X110430000Y-112625000I0J135000D01*
G01*
X110430000Y-112355000D01*
G75*
G02*
X110565000Y-112220000I135000J0D01*
G01*
X110935000Y-112220000D01*
G75*
G02*
X111070000Y-112355000I0J-135000D01*
G01*
X111070000Y-112625000D01*
G75*
G02*
X110935000Y-112760000I-135000J0D01*
G01*
G37*
%TD.AperFunction*%
%TO.P,R101,1*%
%TO.N,+5V*%
%TA.AperFunction,SMDPad,CuDef*%
G36*
G01*
X110935000Y-113780000D02*
X110565000Y-113780000D01*
G75*
G02*
X110430000Y-113645000I0J135000D01*
G01*
X110430000Y-113375000D01*
G75*
G02*
X110565000Y-113240000I135000J0D01*
G01*
X110935000Y-113240000D01*
G75*
G02*
X111070000Y-113375000I0J-135000D01*
G01*
X111070000Y-113645000D01*
G75*
G02*
X110935000Y-113780000I-135000J0D01*
G01*
G37*
%TD.AperFunction*%
%TD*%
%TO.P,R102,2*%
%TO.N,Net-(C102-Pad2)*%
%TA.AperFunction,SMDPad,CuDef*%
G36*
G01*
X130935000Y-112760000D02*
X130565000Y-112760000D01*
G75*
G02*
X130430000Y-112625000I0J135000D01*
G01*
X130430000Y-112355000D01*
G75*
G02*
X130565000Y-112220000I135000J0D01*
G01*
X130935000Y-112220000D01*
G75*
G02*
X131070000Y-112355000I0J-135000D01*
G01*
X131070000Y-112625000D01*
G75*
G02*
X130935000Y-112760000I-135000J0D01*
G01*
G37*
%TD.AperFunction*%
%TO.P,R102,1*%
%TO.N,+5V*%
%TA.AperFunction,SMDPad,CuDef*%
G36*
G01*
X130935000Y-113780000D02*
X130565000Y-113780000D01*
G75*
G02*
X130430000Y-113645000I0J135000D01*
G01*
X130430000Y-113375000D01*
G75*
G02*
X130565000Y-113240000I135000J0D01*
G01*
X130935000Y-113240000D01*
G75*
G02*
X131070000Y-113375000I0J-135000D01*
G01*
X131070000Y-113645000D01*
G75*
G02*
X130935000Y-113780000I-135000J0D01*
G01*
G37*
%TD.AperFunction*%
%TD*%
%TO.P,R103,1*%
%TO.N,+5V*%
%TA.AperFunction,SMDPad,CuDef*%
G36*
G01*
X110935000Y-133780000D02*
X110565000Y-133780000D01*
G75*
G02*
X110430000Y-133645000I0J135000D01*
G01*
X110430000Y-133375000D01*
G75*
G02*
X110565000Y-133240000I135000J0D01*
G01*
X110935000Y-133240000D01*
G75*
G02*
X111070000Y-133375000I0J-135000D01*
G01*
X111070000Y-133645000D01*
G75*
G02*
X110935000Y-133780000I-135000J0D01*
G01*
G37*
%TD.AperFunction*%
%TO.P,R103,2*%
%TO.N,Net-(C103-Pad2)*%
%TA.AperFunction,SMDPad,CuDef*%
G36*
G01*
X110935000Y-132760000D02*
X110565000Y-132760000D01*
G75*
G02*
X110430000Y-132625000I0J135000D01*
G01*
X110430000Y-132355000D01*
G75*
G02*
X110565000Y-132220000I135000J0D01*
G01*
X110935000Y-132220000D01*
G75*
G02*
X111070000Y-132355000I0J-135000D01*
G01*
X111070000Y-132625000D01*
G75*
G02*
X110935000Y-132760000I-135000J0D01*
G01*
G37*
%TD.AperFunction*%
%TD*%
%TO.P,R104,1*%
%TO.N,+5V*%
%TA.AperFunction,SMDPad,CuDef*%
G36*
G01*
X130935000Y-133780000D02*
X130565000Y-133780000D01*
G75*
G02*
X130430000Y-133645000I0J135000D01*
G01*
X130430000Y-133375000D01*
G75*
G02*
X130565000Y-133240000I135000J0D01*
G01*
X130935000Y-133240000D01*
G75*
G02*
X131070000Y-133375000I0J-135000D01*
G01*
X131070000Y-133645000D01*
G75*
G02*
X130935000Y-133780000I-135000J0D01*
G01*
G37*
%TD.AperFunction*%
%TO.P,R104,2*%
%TO.N,Net-(C104-Pad2)*%
%TA.AperFunction,SMDPad,CuDef*%
G36*
G01*
X130935000Y-132760000D02*
X130565000Y-132760000D01*
G75*
G02*
X130430000Y-132625000I0J135000D01*
G01*
X130430000Y-132355000D01*
G75*
G02*
X130565000Y-132220000I135000J0D01*
G01*
X130935000Y-132220000D01*
G75*
G02*
X131070000Y-132355000I0J-135000D01*
G01*
X131070000Y-132625000D01*
G75*
G02*
X130935000Y-132760000I-135000J0D01*
G01*
G37*
%TD.AperFunction*%
%TD*%
D14*
%TO.P,H101,1*%
%TO.N,GND*%
X105000000Y-145000000D03*
%TD*%
%TO.P,H102,1*%
%TO.N,GND*%
X145000000Y-145000000D03*
%TD*%
%TO.P,H103,1*%
%TO.N,GND*%
X145000000Y-105000000D03*
%TD*%
%TO.P,H104,1*%
%TO.N,GND*%
X105000000Y-105000000D03*
%TD*%
D15*
%TO.N,GND*%
X115750000Y-135000000D03*
X135750000Y-135000000D03*
X135750000Y-115000000D03*
X115750000Y-115000000D03*
%TO.N,/BI*%
X115750000Y-113500000D03*
%TO.N,/DI*%
X119000000Y-116500000D03*
%TO.N,Net-(D102-Pad6)*%
X122500000Y-112250000D03*
X136000000Y-113500000D03*
%TO.N,Net-(D102-Pad3)*%
X126250000Y-132000000D03*
X131021040Y-117271040D03*
%TO.N,Net-(D103-Pad6)*%
X115750000Y-133250000D03*
X137500000Y-112000000D03*
%TO.N,Net-(D104-Pad6)*%
X122500000Y-132250000D03*
X135750000Y-133500000D03*
%TO.N,/DO*%
X134000000Y-136500000D03*
%TD*%
D16*
%TO.N,Net-(C101-Pad2)*%
X109480000Y-110500000D02*
X111100000Y-110500000D01*
X110750000Y-110850000D02*
X111100000Y-110500000D01*
X110750000Y-112490000D02*
X110750000Y-110850000D01*
%TO.N,Net-(C102-Pad2)*%
X129480000Y-110500000D02*
X131100000Y-110500000D01*
X130750000Y-110850000D02*
X131100000Y-110500000D01*
X130750000Y-112490000D02*
X130750000Y-110850000D01*
%TO.N,Net-(C103-Pad2)*%
X109480000Y-130500000D02*
X111100000Y-130500000D01*
X110750000Y-130850000D02*
X111100000Y-130500000D01*
X110750000Y-132490000D02*
X110750000Y-130850000D01*
%TO.N,Net-(C104-Pad2)*%
X129480000Y-130500000D02*
X131100000Y-130500000D01*
X130750000Y-130850000D02*
X131100000Y-130500000D01*
X130750000Y-132490000D02*
X130750000Y-130850000D01*
%TO.N,Net-(D101-Pad1)*%
X112400000Y-113250000D02*
X112550000Y-113400000D01*
X112400000Y-110500000D02*
X112400000Y-113250000D01*
X112400000Y-110500000D02*
X116100000Y-110500000D01*
%TO.N,+5V*%
X112240000Y-115000000D02*
X110750000Y-113510000D01*
X112550000Y-115000000D02*
X112240000Y-115000000D01*
X132240000Y-115000000D02*
X132550000Y-115000000D01*
X130750000Y-113510000D02*
X132240000Y-115000000D01*
X132240000Y-135000000D02*
X132550000Y-135000000D01*
X130750000Y-133510000D02*
X132240000Y-135000000D01*
X111850000Y-115000000D02*
X112550000Y-115000000D01*
X106850000Y-120000000D02*
X111850000Y-115000000D01*
X105500000Y-120000000D02*
X106850000Y-120000000D01*
X132089998Y-115000000D02*
X132550000Y-115000000D01*
X129539997Y-117550001D02*
X132089998Y-115000000D01*
X115560003Y-117550001D02*
X129539997Y-117550001D01*
X113010002Y-115000000D02*
X115560003Y-117550001D01*
X112550000Y-115000000D02*
X113010002Y-115000000D01*
X132089998Y-135000000D02*
X132550000Y-135000000D01*
X129539997Y-137550001D02*
X132089998Y-135000000D01*
X116350001Y-137550001D02*
X129539997Y-137550001D01*
X113800000Y-135000000D02*
X116350001Y-137550001D01*
X112550000Y-135000000D02*
X113800000Y-135000000D01*
X112240000Y-135000000D02*
X112550000Y-135000000D01*
X110750000Y-133510000D02*
X112240000Y-135000000D01*
X110750000Y-133510000D02*
X109839962Y-133510000D01*
X106800001Y-121300001D02*
X105500000Y-120000000D01*
X106800001Y-130470039D02*
X106800001Y-121300001D01*
X109839962Y-133510000D02*
X106800001Y-130470039D01*
%TO.N,Net-(D101-Pad3)*%
X140000000Y-114510002D02*
X140000000Y-113400000D01*
X137910002Y-116600000D02*
X140000000Y-114510002D01*
X137450000Y-116600000D02*
X137910002Y-116600000D01*
X135799989Y-118250011D02*
X137450000Y-116600000D01*
X114200011Y-118250011D02*
X135799989Y-118250011D01*
X112550000Y-116600000D02*
X114200011Y-118250011D01*
%TO.N,/BI*%
X120000000Y-113400000D02*
X117450000Y-113400000D01*
X115850000Y-113400000D02*
X115750000Y-113500000D01*
X117450000Y-113400000D02*
X115850000Y-113400000D01*
%TO.N,/DI*%
X118900000Y-116600000D02*
X119000000Y-116500000D01*
X117450000Y-116600000D02*
X118900000Y-116600000D01*
%TO.N,Net-(D102-Pad6)*%
X118400000Y-110500000D02*
X120000000Y-112100000D01*
X117400000Y-110500000D02*
X118400000Y-110500000D01*
X122350000Y-112100000D02*
X122500000Y-112250000D01*
X120000000Y-112100000D02*
X122350000Y-112100000D01*
X137350000Y-113500000D02*
X137450000Y-113400000D01*
X136000000Y-113500000D02*
X137350000Y-113500000D01*
%TO.N,Net-(D102-Pad3)*%
X121650000Y-136600000D02*
X126250000Y-132000000D01*
X117450000Y-136600000D02*
X121650000Y-136600000D01*
X131878960Y-117271040D02*
X132550000Y-116600000D01*
X131021040Y-117271040D02*
X131878960Y-117271040D01*
X124850000Y-133400000D02*
X126250000Y-132000000D01*
X120000000Y-133400000D02*
X124850000Y-133400000D01*
%TO.N,Net-(D102-Pad1)*%
X132400000Y-110500000D02*
X136100000Y-110500000D01*
X132550000Y-110650000D02*
X132400000Y-110500000D01*
X132550000Y-113400000D02*
X132550000Y-110650000D01*
%TO.N,Net-(D103-Pad1)*%
X116100000Y-130500000D02*
X112400000Y-130500000D01*
X112400000Y-133250000D02*
X112550000Y-133400000D01*
X112400000Y-130500000D02*
X112400000Y-133250000D01*
%TO.N,Net-(D103-Pad3)*%
X140000000Y-134510002D02*
X140000000Y-133400000D01*
X137910002Y-136600000D02*
X140000000Y-134510002D01*
X137450000Y-136600000D02*
X137910002Y-136600000D01*
X135799989Y-138250011D02*
X137450000Y-136600000D01*
X113200011Y-138250011D02*
X135799989Y-138250011D01*
X112550000Y-137600000D02*
X113200011Y-138250011D01*
X112550000Y-136600000D02*
X112550000Y-137600000D01*
%TO.N,Net-(D103-Pad6)*%
X138400000Y-110500000D02*
X140000000Y-112100000D01*
X137400000Y-110500000D02*
X138400000Y-110500000D01*
X115900000Y-133400000D02*
X115750000Y-133250000D01*
X117450000Y-133400000D02*
X115900000Y-133400000D01*
X137500000Y-110600000D02*
X137400000Y-110500000D01*
X137500000Y-112000000D02*
X137500000Y-110600000D01*
%TO.N,Net-(D104-Pad6)*%
X118400000Y-130500000D02*
X120000000Y-132100000D01*
X117400000Y-130500000D02*
X118400000Y-130500000D01*
X122350000Y-132100000D02*
X122500000Y-132250000D01*
X120000000Y-132100000D02*
X122350000Y-132100000D01*
X137350000Y-133500000D02*
X137450000Y-133400000D01*
X135750000Y-133500000D02*
X137350000Y-133500000D01*
%TO.N,/DO*%
X133900000Y-136600000D02*
X134000000Y-136500000D01*
X132550000Y-136600000D02*
X133900000Y-136600000D01*
%TO.N,Net-(D104-Pad1)*%
X132400000Y-130500000D02*
X136100000Y-130500000D01*
X132550000Y-130650000D02*
X132400000Y-130500000D01*
X132550000Y-133400000D02*
X132550000Y-130650000D01*
%TO.N,/BO*%
X138400000Y-130500000D02*
X140000000Y-132100000D01*
X137400000Y-130500000D02*
X138400000Y-130500000D01*
X140747592Y-132100000D02*
X140000000Y-132100000D01*
X141200010Y-132552418D02*
X140747592Y-132100000D01*
X141200010Y-134909992D02*
X141200010Y-132552418D01*
X137159981Y-138950021D02*
X141200010Y-134909992D01*
X112910058Y-138950021D02*
X137159981Y-138950021D01*
X106800001Y-132839963D02*
X112910058Y-138950021D01*
X106800001Y-131460001D02*
X106800001Y-132839963D01*
X105500000Y-130160000D02*
X106800001Y-131460001D01*
%TD*%
D17*
%TO.N,GND*%
X149340001Y-149340000D02*
X100660000Y-149340000D01*
X100660000Y-119150000D01*
X104011928Y-119150000D01*
X104011928Y-120850000D01*
X104024188Y-120974482D01*
X104060498Y-121094180D01*
X104119463Y-121204494D01*
X104198815Y-121301185D01*
X104295506Y-121380537D01*
X104405820Y-121439502D01*
X104478380Y-121461513D01*
X104346525Y-121593368D01*
X104184010Y-121836589D01*
X104072068Y-122106842D01*
X104015000Y-122393740D01*
X104015000Y-122686260D01*
X104072068Y-122973158D01*
X104184010Y-123243411D01*
X104346525Y-123486632D01*
X104553368Y-123693475D01*
X104727760Y-123810000D01*
X104553368Y-123926525D01*
X104346525Y-124133368D01*
X104184010Y-124376589D01*
X104072068Y-124646842D01*
X104015000Y-124933740D01*
X104015000Y-125226260D01*
X104072068Y-125513158D01*
X104184010Y-125783411D01*
X104346525Y-126026632D01*
X104553368Y-126233475D01*
X104727760Y-126350000D01*
X104553368Y-126466525D01*
X104346525Y-126673368D01*
X104184010Y-126916589D01*
X104072068Y-127186842D01*
X104015000Y-127473740D01*
X104015000Y-127766260D01*
X104072068Y-128053158D01*
X104184010Y-128323411D01*
X104346525Y-128566632D01*
X104553368Y-128773475D01*
X104727760Y-128890000D01*
X104553368Y-129006525D01*
X104346525Y-129213368D01*
X104184010Y-129456589D01*
X104072068Y-129726842D01*
X104015000Y-130013740D01*
X104015000Y-130306260D01*
X104072068Y-130593158D01*
X104184010Y-130863411D01*
X104346525Y-131106632D01*
X104553368Y-131313475D01*
X104796589Y-131475990D01*
X105066842Y-131587932D01*
X105353740Y-131645000D01*
X105646260Y-131645000D01*
X105718960Y-131630539D01*
X105915001Y-131826580D01*
X105915002Y-132796487D01*
X105910720Y-132839963D01*
X105927806Y-133013452D01*
X105975201Y-133169687D01*
X105978413Y-133180276D01*
X106060591Y-133334022D01*
X106107997Y-133391786D01*
X106143469Y-133435009D01*
X106143472Y-133435012D01*
X106171185Y-133468780D01*
X106204952Y-133496492D01*
X112253528Y-139545070D01*
X112281241Y-139578838D01*
X112315009Y-139606551D01*
X112315011Y-139606553D01*
X112386510Y-139665231D01*
X112415999Y-139689432D01*
X112569745Y-139771610D01*
X112736568Y-139822216D01*
X112866581Y-139835021D01*
X112866591Y-139835021D01*
X112910057Y-139839302D01*
X112953523Y-139835021D01*
X137116512Y-139835021D01*
X137159981Y-139839302D01*
X137203450Y-139835021D01*
X137203458Y-139835021D01*
X137333471Y-139822216D01*
X137500294Y-139771610D01*
X137654040Y-139689432D01*
X137788798Y-139578838D01*
X137816515Y-139545065D01*
X141795060Y-135566520D01*
X141828827Y-135538809D01*
X141939421Y-135404051D01*
X142021599Y-135250305D01*
X142072205Y-135083482D01*
X142085010Y-134953469D01*
X142085010Y-134953461D01*
X142089291Y-134909992D01*
X142085010Y-134866523D01*
X142085010Y-132595887D01*
X142089291Y-132552418D01*
X142085010Y-132508949D01*
X142085010Y-132508941D01*
X142072205Y-132378928D01*
X142060491Y-132340314D01*
X142021599Y-132212104D01*
X141970515Y-132116533D01*
X141939421Y-132058359D01*
X141828827Y-131923601D01*
X141795054Y-131895884D01*
X141404126Y-131504956D01*
X141376409Y-131471183D01*
X141241651Y-131360589D01*
X141087905Y-131278411D01*
X141008738Y-131254396D01*
X140921691Y-131182958D01*
X140840192Y-131128502D01*
X140729875Y-131069536D01*
X140639319Y-131032027D01*
X140519623Y-130995718D01*
X140423490Y-130976596D01*
X140299009Y-130964336D01*
X140274450Y-130964336D01*
X140250000Y-130961928D01*
X140113507Y-130961928D01*
X139056534Y-129904956D01*
X139028817Y-129871183D01*
X138894059Y-129760589D01*
X138740313Y-129678411D01*
X138573490Y-129627805D01*
X138443477Y-129615000D01*
X138443469Y-129615000D01*
X138400000Y-129610719D01*
X138356531Y-129615000D01*
X138341558Y-129615000D01*
X138317042Y-129578309D01*
X138237690Y-129481618D01*
X138168382Y-129412310D01*
X138071691Y-129332958D01*
X137990192Y-129278502D01*
X137879875Y-129219536D01*
X137789319Y-129182027D01*
X137669623Y-129145718D01*
X137573490Y-129126596D01*
X137449009Y-129114336D01*
X137424450Y-129114336D01*
X137400000Y-129111928D01*
X136900000Y-129111928D01*
X136775518Y-129124188D01*
X136750000Y-129131929D01*
X136724482Y-129124188D01*
X136600000Y-129111928D01*
X136100000Y-129111928D01*
X136075550Y-129114336D01*
X136050991Y-129114336D01*
X135926510Y-129126596D01*
X135830377Y-129145718D01*
X135710681Y-129182027D01*
X135620125Y-129219536D01*
X135509808Y-129278502D01*
X135428309Y-129332958D01*
X135331618Y-129412310D01*
X135262310Y-129481618D01*
X135182958Y-129578309D01*
X135158442Y-129615000D01*
X133341558Y-129615000D01*
X133317042Y-129578309D01*
X133237690Y-129481618D01*
X133168382Y-129412310D01*
X133071691Y-129332958D01*
X132990192Y-129278502D01*
X132879875Y-129219536D01*
X132789319Y-129182027D01*
X132669623Y-129145718D01*
X132573490Y-129126596D01*
X132449009Y-129114336D01*
X132424450Y-129114336D01*
X132400000Y-129111928D01*
X131900000Y-129111928D01*
X131775518Y-129124188D01*
X131750000Y-129131929D01*
X131724482Y-129124188D01*
X131600000Y-129111928D01*
X131100000Y-129111928D01*
X131075550Y-129114336D01*
X131050991Y-129114336D01*
X130926510Y-129126596D01*
X130830377Y-129145718D01*
X130710681Y-129182027D01*
X130620125Y-129219536D01*
X130509808Y-129278502D01*
X130428309Y-129332958D01*
X130331618Y-129412310D01*
X130262310Y-129481618D01*
X130182958Y-129578309D01*
X130158442Y-129615000D01*
X129924948Y-129615000D01*
X129917755Y-129611155D01*
X129771794Y-129566878D01*
X129620000Y-129551928D01*
X129340000Y-129551928D01*
X129188206Y-129566878D01*
X129042245Y-129611155D01*
X128907726Y-129683057D01*
X128789820Y-129779820D01*
X128693057Y-129897726D01*
X128621155Y-130032245D01*
X128576878Y-130178206D01*
X128561928Y-130330000D01*
X128561928Y-130670000D01*
X128576878Y-130821794D01*
X128621155Y-130967755D01*
X128693057Y-131102274D01*
X128789820Y-131220180D01*
X128907726Y-131316943D01*
X129042245Y-131388845D01*
X129188206Y-131433122D01*
X129340000Y-131448072D01*
X129620000Y-131448072D01*
X129771794Y-131433122D01*
X129865001Y-131404848D01*
X129865000Y-132032544D01*
X129850775Y-132059158D01*
X129806782Y-132204181D01*
X129791928Y-132355000D01*
X129791928Y-132625000D01*
X129806782Y-132775819D01*
X129850775Y-132920842D01*
X129893086Y-133000000D01*
X129850775Y-133079158D01*
X129806782Y-133224181D01*
X129791928Y-133375000D01*
X129791928Y-133645000D01*
X129806782Y-133795819D01*
X129850775Y-133940842D01*
X129922214Y-134074496D01*
X130018356Y-134191644D01*
X130135504Y-134287786D01*
X130269158Y-134359225D01*
X130381824Y-134393403D01*
X130913420Y-134924999D01*
X129173419Y-136665001D01*
X122836577Y-136665001D01*
X125445048Y-134056531D01*
X125478817Y-134028817D01*
X125506531Y-133995048D01*
X126495044Y-133006535D01*
X126551898Y-132995226D01*
X126740256Y-132917205D01*
X126909774Y-132803937D01*
X127053937Y-132659774D01*
X127167205Y-132490256D01*
X127245226Y-132301898D01*
X127285000Y-132101939D01*
X127285000Y-131898061D01*
X127245226Y-131698102D01*
X127167205Y-131509744D01*
X127053937Y-131340226D01*
X126909774Y-131196063D01*
X126740256Y-131082795D01*
X126551898Y-131004774D01*
X126351939Y-130965000D01*
X126148061Y-130965000D01*
X125948102Y-131004774D01*
X125759744Y-131082795D01*
X125590226Y-131196063D01*
X125446063Y-131340226D01*
X125332795Y-131509744D01*
X125254774Y-131698102D01*
X125243465Y-131754956D01*
X124483421Y-132515000D01*
X123502565Y-132515000D01*
X123535000Y-132351939D01*
X123535000Y-132148061D01*
X123495226Y-131948102D01*
X123417205Y-131759744D01*
X123303937Y-131590226D01*
X123159774Y-131446063D01*
X122990256Y-131332795D01*
X122801898Y-131254774D01*
X122601939Y-131215000D01*
X122398061Y-131215000D01*
X122396543Y-131215302D01*
X122393477Y-131215000D01*
X122393469Y-131215000D01*
X122350000Y-131210719D01*
X122306531Y-131215000D01*
X120960734Y-131215000D01*
X120921691Y-131182958D01*
X120840192Y-131128502D01*
X120729875Y-131069536D01*
X120639319Y-131032027D01*
X120519623Y-130995718D01*
X120423490Y-130976596D01*
X120299009Y-130964336D01*
X120274450Y-130964336D01*
X120250000Y-130961928D01*
X120113507Y-130961928D01*
X119056534Y-129904956D01*
X119028817Y-129871183D01*
X118894059Y-129760589D01*
X118740313Y-129678411D01*
X118573490Y-129627805D01*
X118443477Y-129615000D01*
X118443469Y-129615000D01*
X118400000Y-129610719D01*
X118356531Y-129615000D01*
X118341558Y-129615000D01*
X118317042Y-129578309D01*
X118237690Y-129481618D01*
X118168382Y-129412310D01*
X118071691Y-129332958D01*
X117990192Y-129278502D01*
X117879875Y-129219536D01*
X117789319Y-129182027D01*
X117669623Y-129145718D01*
X117573490Y-129126596D01*
X117449009Y-129114336D01*
X117424450Y-129114336D01*
X117400000Y-129111928D01*
X116900000Y-129111928D01*
X116775518Y-129124188D01*
X116750000Y-129131929D01*
X116724482Y-129124188D01*
X116600000Y-129111928D01*
X116100000Y-129111928D01*
X116075550Y-129114336D01*
X116050991Y-129114336D01*
X115926510Y-129126596D01*
X115830377Y-129145718D01*
X115710681Y-129182027D01*
X115620125Y-129219536D01*
X115509808Y-129278502D01*
X115428309Y-129332958D01*
X115331618Y-129412310D01*
X115262310Y-129481618D01*
X115182958Y-129578309D01*
X115158442Y-129615000D01*
X113341558Y-129615000D01*
X113317042Y-129578309D01*
X113237690Y-129481618D01*
X113168382Y-129412310D01*
X113071691Y-129332958D01*
X112990192Y-129278502D01*
X112879875Y-129219536D01*
X112789319Y-129182027D01*
X112669623Y-129145718D01*
X112573490Y-129126596D01*
X112449009Y-129114336D01*
X112424450Y-129114336D01*
X112400000Y-129111928D01*
X111900000Y-129111928D01*
X111775518Y-129124188D01*
X111750000Y-129131929D01*
X111724482Y-129124188D01*
X111600000Y-129111928D01*
X111100000Y-129111928D01*
X111075550Y-129114336D01*
X111050991Y-129114336D01*
X110926510Y-129126596D01*
X110830377Y-129145718D01*
X110710681Y-129182027D01*
X110620125Y-129219536D01*
X110509808Y-129278502D01*
X110428309Y-129332958D01*
X110331618Y-129412310D01*
X110262310Y-129481618D01*
X110182958Y-129578309D01*
X110158442Y-129615000D01*
X109924948Y-129615000D01*
X109917755Y-129611155D01*
X109771794Y-129566878D01*
X109620000Y-129551928D01*
X109340000Y-129551928D01*
X109188206Y-129566878D01*
X109042245Y-129611155D01*
X108907726Y-129683057D01*
X108789820Y-129779820D01*
X108693057Y-129897726D01*
X108621155Y-130032245D01*
X108576878Y-130178206D01*
X108561928Y-130330000D01*
X108561928Y-130670000D01*
X108576878Y-130821794D01*
X108621155Y-130967755D01*
X108693057Y-131102274D01*
X108735357Y-131153816D01*
X107685001Y-130103461D01*
X107685001Y-121343467D01*
X107689282Y-121300000D01*
X107685001Y-121256534D01*
X107685001Y-121256524D01*
X107672196Y-121126511D01*
X107621590Y-120959688D01*
X107539412Y-120805942D01*
X107428818Y-120671184D01*
X107428006Y-120670517D01*
X107478817Y-120628817D01*
X107506534Y-120595044D01*
X111161928Y-116939651D01*
X111161928Y-117100000D01*
X111174188Y-117224482D01*
X111210498Y-117344180D01*
X111269463Y-117454494D01*
X111348815Y-117551185D01*
X111445506Y-117630537D01*
X111555820Y-117689502D01*
X111675518Y-117725812D01*
X111800000Y-117738072D01*
X112436494Y-117738072D01*
X113543481Y-118845060D01*
X113571194Y-118878828D01*
X113604962Y-118906541D01*
X113604964Y-118906543D01*
X113705951Y-118989421D01*
X113705952Y-118989422D01*
X113859698Y-119071600D01*
X113975914Y-119106854D01*
X114026520Y-119122206D01*
X114041317Y-119123663D01*
X114156534Y-119135011D01*
X114156542Y-119135011D01*
X114200011Y-119139292D01*
X114243480Y-119135011D01*
X135756520Y-119135011D01*
X135799989Y-119139292D01*
X135843458Y-119135011D01*
X135843466Y-119135011D01*
X135973479Y-119122206D01*
X136140302Y-119071600D01*
X136294048Y-118989422D01*
X136428806Y-118878828D01*
X136456523Y-118845055D01*
X137563507Y-117738072D01*
X138200000Y-117738072D01*
X138324482Y-117725812D01*
X138444180Y-117689502D01*
X138554494Y-117630537D01*
X138651185Y-117551185D01*
X138730537Y-117454494D01*
X138789502Y-117344180D01*
X138825812Y-117224482D01*
X138838072Y-117100000D01*
X138838072Y-116923508D01*
X140595050Y-115166531D01*
X140628817Y-115138819D01*
X140739411Y-115004061D01*
X140741582Y-114999999D01*
X140821589Y-114850316D01*
X140872195Y-114683492D01*
X140872195Y-114683491D01*
X140885000Y-114553479D01*
X140885000Y-114553471D01*
X140889281Y-114510002D01*
X140885000Y-114466533D01*
X140885000Y-114341558D01*
X140921691Y-114317042D01*
X141018382Y-114237690D01*
X141087690Y-114168382D01*
X141167042Y-114071691D01*
X141221498Y-113990192D01*
X141280464Y-113879875D01*
X141317973Y-113789319D01*
X141354282Y-113669623D01*
X141373404Y-113573490D01*
X141385664Y-113449009D01*
X141385664Y-113424450D01*
X141388072Y-113400000D01*
X141388072Y-112900000D01*
X141375812Y-112775518D01*
X141368071Y-112750000D01*
X141375812Y-112724482D01*
X141388072Y-112600000D01*
X141388072Y-112100000D01*
X141385664Y-112075550D01*
X141385664Y-112050991D01*
X141373404Y-111926510D01*
X141354282Y-111830377D01*
X141317973Y-111710681D01*
X141280464Y-111620125D01*
X141221498Y-111509808D01*
X141167042Y-111428309D01*
X141087690Y-111331618D01*
X141018382Y-111262310D01*
X140921691Y-111182958D01*
X140840192Y-111128502D01*
X140729875Y-111069536D01*
X140639319Y-111032027D01*
X140519623Y-110995718D01*
X140423490Y-110976596D01*
X140299009Y-110964336D01*
X140274450Y-110964336D01*
X140250000Y-110961928D01*
X140113507Y-110961928D01*
X139056534Y-109904956D01*
X139028817Y-109871183D01*
X138894059Y-109760589D01*
X138740313Y-109678411D01*
X138573490Y-109627805D01*
X138443477Y-109615000D01*
X138443469Y-109615000D01*
X138400000Y-109610719D01*
X138356531Y-109615000D01*
X138341558Y-109615000D01*
X138317042Y-109578309D01*
X138237690Y-109481618D01*
X138168382Y-109412310D01*
X138071691Y-109332958D01*
X137990192Y-109278502D01*
X137879875Y-109219536D01*
X137789319Y-109182027D01*
X137669623Y-109145718D01*
X137573490Y-109126596D01*
X137449009Y-109114336D01*
X137424450Y-109114336D01*
X137400000Y-109111928D01*
X136900000Y-109111928D01*
X136775518Y-109124188D01*
X136750000Y-109131929D01*
X136724482Y-109124188D01*
X136600000Y-109111928D01*
X136100000Y-109111928D01*
X136075550Y-109114336D01*
X136050991Y-109114336D01*
X135926510Y-109126596D01*
X135830377Y-109145718D01*
X135710681Y-109182027D01*
X135620125Y-109219536D01*
X135509808Y-109278502D01*
X135428309Y-109332958D01*
X135331618Y-109412310D01*
X135262310Y-109481618D01*
X135182958Y-109578309D01*
X135158442Y-109615000D01*
X133341558Y-109615000D01*
X133317042Y-109578309D01*
X133237690Y-109481618D01*
X133168382Y-109412310D01*
X133071691Y-109332958D01*
X132990192Y-109278502D01*
X132879875Y-109219536D01*
X132789319Y-109182027D01*
X132669623Y-109145718D01*
X132573490Y-109126596D01*
X132449009Y-109114336D01*
X132424450Y-109114336D01*
X132400000Y-109111928D01*
X131900000Y-109111928D01*
X131775518Y-109124188D01*
X131750000Y-109131929D01*
X131724482Y-109124188D01*
X131600000Y-109111928D01*
X131100000Y-109111928D01*
X131075550Y-109114336D01*
X131050991Y-109114336D01*
X130926510Y-109126596D01*
X130830377Y-109145718D01*
X130710681Y-109182027D01*
X130620125Y-109219536D01*
X130509808Y-109278502D01*
X130428309Y-109332958D01*
X130331618Y-109412310D01*
X130262310Y-109481618D01*
X130182958Y-109578309D01*
X130158442Y-109615000D01*
X129924948Y-109615000D01*
X129917755Y-109611155D01*
X129771794Y-109566878D01*
X129620000Y-109551928D01*
X129340000Y-109551928D01*
X129188206Y-109566878D01*
X129042245Y-109611155D01*
X128907726Y-109683057D01*
X128789820Y-109779820D01*
X128693057Y-109897726D01*
X128621155Y-110032245D01*
X128576878Y-110178206D01*
X128561928Y-110330000D01*
X128561928Y-110670000D01*
X128576878Y-110821794D01*
X128621155Y-110967755D01*
X128693057Y-111102274D01*
X128789820Y-111220180D01*
X128907726Y-111316943D01*
X129042245Y-111388845D01*
X129188206Y-111433122D01*
X129340000Y-111448072D01*
X129620000Y-111448072D01*
X129771794Y-111433122D01*
X129865001Y-111404848D01*
X129865000Y-112032544D01*
X129850775Y-112059158D01*
X129806782Y-112204181D01*
X129791928Y-112355000D01*
X129791928Y-112625000D01*
X129806782Y-112775819D01*
X129850775Y-112920842D01*
X129893086Y-113000000D01*
X129850775Y-113079158D01*
X129806782Y-113224181D01*
X129791928Y-113375000D01*
X129791928Y-113645000D01*
X129806782Y-113795819D01*
X129850775Y-113940842D01*
X129922214Y-114074496D01*
X130018356Y-114191644D01*
X130135504Y-114287786D01*
X130269158Y-114359225D01*
X130381824Y-114393403D01*
X130913420Y-114924999D01*
X129173419Y-116665001D01*
X120022456Y-116665001D01*
X120035000Y-116601939D01*
X120035000Y-116398061D01*
X119995226Y-116198102D01*
X119917205Y-116009744D01*
X119803937Y-115840226D01*
X119659774Y-115696063D01*
X119490256Y-115582795D01*
X119301898Y-115504774D01*
X119101939Y-115465000D01*
X118898061Y-115465000D01*
X118698102Y-115504774D01*
X118549009Y-115566531D01*
X118444180Y-115510498D01*
X118324482Y-115474188D01*
X118200000Y-115461928D01*
X116700000Y-115461928D01*
X116575518Y-115474188D01*
X116455820Y-115510498D01*
X116345506Y-115569463D01*
X116248815Y-115648815D01*
X116169463Y-115745506D01*
X116110498Y-115855820D01*
X116074188Y-115975518D01*
X116061928Y-116100000D01*
X116061928Y-116665001D01*
X115926582Y-116665001D01*
X113938072Y-114676492D01*
X113938072Y-114500000D01*
X113925812Y-114375518D01*
X113889502Y-114255820D01*
X113859665Y-114200000D01*
X113889502Y-114144180D01*
X113925812Y-114024482D01*
X113938072Y-113900000D01*
X113938072Y-112900000D01*
X113925812Y-112775518D01*
X113889502Y-112655820D01*
X113830537Y-112545506D01*
X113751185Y-112448815D01*
X113654494Y-112369463D01*
X113544180Y-112310498D01*
X113424482Y-112274188D01*
X113300000Y-112261928D01*
X113285000Y-112261928D01*
X113285000Y-111460734D01*
X113317042Y-111421691D01*
X113341558Y-111385000D01*
X115158442Y-111385000D01*
X115182958Y-111421691D01*
X115262310Y-111518382D01*
X115331618Y-111587690D01*
X115428309Y-111667042D01*
X115509808Y-111721498D01*
X115620125Y-111780464D01*
X115710681Y-111817973D01*
X115830377Y-111854282D01*
X115926510Y-111873404D01*
X116050991Y-111885664D01*
X116075550Y-111885664D01*
X116100000Y-111888072D01*
X116600000Y-111888072D01*
X116724482Y-111875812D01*
X116750000Y-111868071D01*
X116775518Y-111875812D01*
X116900000Y-111888072D01*
X117400000Y-111888072D01*
X117424450Y-111885664D01*
X117449009Y-111885664D01*
X117573490Y-111873404D01*
X117669623Y-111854282D01*
X117789319Y-111817973D01*
X117879875Y-111780464D01*
X117990192Y-111721498D01*
X118071691Y-111667042D01*
X118168382Y-111587690D01*
X118202247Y-111553825D01*
X118621964Y-111973542D01*
X118614336Y-112050991D01*
X118614336Y-112075550D01*
X118611928Y-112100000D01*
X118611928Y-112416598D01*
X118554494Y-112369463D01*
X118444180Y-112310498D01*
X118324482Y-112274188D01*
X118200000Y-112261928D01*
X116700000Y-112261928D01*
X116575518Y-112274188D01*
X116455820Y-112310498D01*
X116345506Y-112369463D01*
X116248815Y-112448815D01*
X116194499Y-112515000D01*
X116076586Y-112515000D01*
X116051898Y-112504774D01*
X115851939Y-112465000D01*
X115648061Y-112465000D01*
X115448102Y-112504774D01*
X115259744Y-112582795D01*
X115090226Y-112696063D01*
X114946063Y-112840226D01*
X114832795Y-113009744D01*
X114754774Y-113198102D01*
X114715000Y-113398061D01*
X114715000Y-113601939D01*
X114754774Y-113801898D01*
X114832795Y-113990256D01*
X114946063Y-114159774D01*
X115090226Y-114303937D01*
X115259744Y-114417205D01*
X115448102Y-114495226D01*
X115648061Y-114535000D01*
X115851939Y-114535000D01*
X116051898Y-114495226D01*
X116240256Y-114417205D01*
X116289317Y-114384424D01*
X116345506Y-114430537D01*
X116455820Y-114489502D01*
X116575518Y-114525812D01*
X116700000Y-114538072D01*
X118200000Y-114538072D01*
X118324482Y-114525812D01*
X118444180Y-114489502D01*
X118554494Y-114430537D01*
X118651185Y-114351185D01*
X118705501Y-114285000D01*
X119039266Y-114285000D01*
X119078309Y-114317042D01*
X119159808Y-114371498D01*
X119270125Y-114430464D01*
X119360681Y-114467973D01*
X119480377Y-114504282D01*
X119576510Y-114523404D01*
X119700991Y-114535664D01*
X119725550Y-114535664D01*
X119750000Y-114538072D01*
X120250000Y-114538072D01*
X120274450Y-114535664D01*
X120299009Y-114535664D01*
X120423490Y-114523404D01*
X120519623Y-114504282D01*
X120639319Y-114467973D01*
X120729875Y-114430464D01*
X120840192Y-114371498D01*
X120921691Y-114317042D01*
X121018382Y-114237690D01*
X121087690Y-114168382D01*
X121167042Y-114071691D01*
X121221498Y-113990192D01*
X121280464Y-113879875D01*
X121317973Y-113789319D01*
X121354282Y-113669623D01*
X121373404Y-113573490D01*
X121385664Y-113449009D01*
X121385664Y-113424450D01*
X121388072Y-113400000D01*
X121388072Y-112985000D01*
X121771289Y-112985000D01*
X121840226Y-113053937D01*
X122009744Y-113167205D01*
X122198102Y-113245226D01*
X122398061Y-113285000D01*
X122601939Y-113285000D01*
X122801898Y-113245226D01*
X122990256Y-113167205D01*
X123159774Y-113053937D01*
X123303937Y-112909774D01*
X123417205Y-112740256D01*
X123495226Y-112551898D01*
X123535000Y-112351939D01*
X123535000Y-112148061D01*
X123495226Y-111948102D01*
X123417205Y-111759744D01*
X123303937Y-111590226D01*
X123159774Y-111446063D01*
X122990256Y-111332795D01*
X122801898Y-111254774D01*
X122601939Y-111215000D01*
X122398061Y-111215000D01*
X122396543Y-111215302D01*
X122393477Y-111215000D01*
X122393469Y-111215000D01*
X122350000Y-111210719D01*
X122306531Y-111215000D01*
X120960734Y-111215000D01*
X120921691Y-111182958D01*
X120840192Y-111128502D01*
X120729875Y-111069536D01*
X120639319Y-111032027D01*
X120519623Y-110995718D01*
X120423490Y-110976596D01*
X120299009Y-110964336D01*
X120274450Y-110964336D01*
X120250000Y-110961928D01*
X120113507Y-110961928D01*
X119056534Y-109904956D01*
X119028817Y-109871183D01*
X118894059Y-109760589D01*
X118740313Y-109678411D01*
X118573490Y-109627805D01*
X118443477Y-109615000D01*
X118443469Y-109615000D01*
X118400000Y-109610719D01*
X118356531Y-109615000D01*
X118341558Y-109615000D01*
X118317042Y-109578309D01*
X118237690Y-109481618D01*
X118168382Y-109412310D01*
X118071691Y-109332958D01*
X117990192Y-109278502D01*
X117879875Y-109219536D01*
X117789319Y-109182027D01*
X117669623Y-109145718D01*
X117573490Y-109126596D01*
X117449009Y-109114336D01*
X117424450Y-109114336D01*
X117400000Y-109111928D01*
X116900000Y-109111928D01*
X116775518Y-109124188D01*
X116750000Y-109131929D01*
X116724482Y-109124188D01*
X116600000Y-109111928D01*
X116100000Y-109111928D01*
X116075550Y-109114336D01*
X116050991Y-109114336D01*
X115926510Y-109126596D01*
X115830377Y-109145718D01*
X115710681Y-109182027D01*
X115620125Y-109219536D01*
X115509808Y-109278502D01*
X115428309Y-109332958D01*
X115331618Y-109412310D01*
X115262310Y-109481618D01*
X115182958Y-109578309D01*
X115158442Y-109615000D01*
X113341558Y-109615000D01*
X113317042Y-109578309D01*
X113237690Y-109481618D01*
X113168382Y-109412310D01*
X113071691Y-109332958D01*
X112990192Y-109278502D01*
X112879875Y-109219536D01*
X112789319Y-109182027D01*
X112669623Y-109145718D01*
X112573490Y-109126596D01*
X112449009Y-109114336D01*
X112424450Y-109114336D01*
X112400000Y-109111928D01*
X111900000Y-109111928D01*
X111775518Y-109124188D01*
X111750000Y-109131929D01*
X111724482Y-109124188D01*
X111600000Y-109111928D01*
X111100000Y-109111928D01*
X111075550Y-109114336D01*
X111050991Y-109114336D01*
X110926510Y-109126596D01*
X110830377Y-109145718D01*
X110710681Y-109182027D01*
X110620125Y-109219536D01*
X110509808Y-109278502D01*
X110428309Y-109332958D01*
X110331618Y-109412310D01*
X110262310Y-109481618D01*
X110182958Y-109578309D01*
X110158442Y-109615000D01*
X109924948Y-109615000D01*
X109917755Y-109611155D01*
X109771794Y-109566878D01*
X109620000Y-109551928D01*
X109340000Y-109551928D01*
X109188206Y-109566878D01*
X109042245Y-109611155D01*
X108907726Y-109683057D01*
X108789820Y-109779820D01*
X108693057Y-109897726D01*
X108621155Y-110032245D01*
X108576878Y-110178206D01*
X108561928Y-110330000D01*
X108561928Y-110670000D01*
X108576878Y-110821794D01*
X108621155Y-110967755D01*
X108693057Y-111102274D01*
X108789820Y-111220180D01*
X108907726Y-111316943D01*
X109042245Y-111388845D01*
X109188206Y-111433122D01*
X109340000Y-111448072D01*
X109620000Y-111448072D01*
X109771794Y-111433122D01*
X109865001Y-111404848D01*
X109865000Y-112032544D01*
X109850775Y-112059158D01*
X109806782Y-112204181D01*
X109791928Y-112355000D01*
X109791928Y-112625000D01*
X109806782Y-112775819D01*
X109850775Y-112920842D01*
X109893086Y-113000000D01*
X109850775Y-113079158D01*
X109806782Y-113224181D01*
X109791928Y-113375000D01*
X109791928Y-113645000D01*
X109806782Y-113795819D01*
X109850775Y-113940842D01*
X109922214Y-114074496D01*
X110018356Y-114191644D01*
X110135504Y-114287786D01*
X110269158Y-114359225D01*
X110381824Y-114393403D01*
X110793421Y-114805000D01*
X106845549Y-118752873D01*
X106801185Y-118698815D01*
X106704494Y-118619463D01*
X106594180Y-118560498D01*
X106474482Y-118524188D01*
X106350000Y-118511928D01*
X104650000Y-118511928D01*
X104525518Y-118524188D01*
X104405820Y-118560498D01*
X104295506Y-118619463D01*
X104198815Y-118698815D01*
X104119463Y-118795506D01*
X104060498Y-118905820D01*
X104024188Y-119025518D01*
X104011928Y-119150000D01*
X100660000Y-119150000D01*
X100660000Y-100660000D01*
X149340000Y-100660000D01*
X149340001Y-149340000D01*
%TA.AperFunction,Conductor*%
D18*
G36*
X149340001Y-149340000D02*
G01*
X100660000Y-149340000D01*
X100660000Y-119150000D01*
X104011928Y-119150000D01*
X104011928Y-120850000D01*
X104024188Y-120974482D01*
X104060498Y-121094180D01*
X104119463Y-121204494D01*
X104198815Y-121301185D01*
X104295506Y-121380537D01*
X104405820Y-121439502D01*
X104478380Y-121461513D01*
X104346525Y-121593368D01*
X104184010Y-121836589D01*
X104072068Y-122106842D01*
X104015000Y-122393740D01*
X104015000Y-122686260D01*
X104072068Y-122973158D01*
X104184010Y-123243411D01*
X104346525Y-123486632D01*
X104553368Y-123693475D01*
X104727760Y-123810000D01*
X104553368Y-123926525D01*
X104346525Y-124133368D01*
X104184010Y-124376589D01*
X104072068Y-124646842D01*
X104015000Y-124933740D01*
X104015000Y-125226260D01*
X104072068Y-125513158D01*
X104184010Y-125783411D01*
X104346525Y-126026632D01*
X104553368Y-126233475D01*
X104727760Y-126350000D01*
X104553368Y-126466525D01*
X104346525Y-126673368D01*
X104184010Y-126916589D01*
X104072068Y-127186842D01*
X104015000Y-127473740D01*
X104015000Y-127766260D01*
X104072068Y-128053158D01*
X104184010Y-128323411D01*
X104346525Y-128566632D01*
X104553368Y-128773475D01*
X104727760Y-128890000D01*
X104553368Y-129006525D01*
X104346525Y-129213368D01*
X104184010Y-129456589D01*
X104072068Y-129726842D01*
X104015000Y-130013740D01*
X104015000Y-130306260D01*
X104072068Y-130593158D01*
X104184010Y-130863411D01*
X104346525Y-131106632D01*
X104553368Y-131313475D01*
X104796589Y-131475990D01*
X105066842Y-131587932D01*
X105353740Y-131645000D01*
X105646260Y-131645000D01*
X105718960Y-131630539D01*
X105915001Y-131826580D01*
X105915002Y-132796487D01*
X105910720Y-132839963D01*
X105927806Y-133013452D01*
X105975201Y-133169687D01*
X105978413Y-133180276D01*
X106060591Y-133334022D01*
X106107997Y-133391786D01*
X106143469Y-133435009D01*
X106143472Y-133435012D01*
X106171185Y-133468780D01*
X106204952Y-133496492D01*
X112253528Y-139545070D01*
X112281241Y-139578838D01*
X112315009Y-139606551D01*
X112315011Y-139606553D01*
X112386510Y-139665231D01*
X112415999Y-139689432D01*
X112569745Y-139771610D01*
X112736568Y-139822216D01*
X112866581Y-139835021D01*
X112866591Y-139835021D01*
X112910057Y-139839302D01*
X112953523Y-139835021D01*
X137116512Y-139835021D01*
X137159981Y-139839302D01*
X137203450Y-139835021D01*
X137203458Y-139835021D01*
X137333471Y-139822216D01*
X137500294Y-139771610D01*
X137654040Y-139689432D01*
X137788798Y-139578838D01*
X137816515Y-139545065D01*
X141795060Y-135566520D01*
X141828827Y-135538809D01*
X141939421Y-135404051D01*
X142021599Y-135250305D01*
X142072205Y-135083482D01*
X142085010Y-134953469D01*
X142085010Y-134953461D01*
X142089291Y-134909992D01*
X142085010Y-134866523D01*
X142085010Y-132595887D01*
X142089291Y-132552418D01*
X142085010Y-132508949D01*
X142085010Y-132508941D01*
X142072205Y-132378928D01*
X142060491Y-132340314D01*
X142021599Y-132212104D01*
X141970515Y-132116533D01*
X141939421Y-132058359D01*
X141828827Y-131923601D01*
X141795054Y-131895884D01*
X141404126Y-131504956D01*
X141376409Y-131471183D01*
X141241651Y-131360589D01*
X141087905Y-131278411D01*
X141008738Y-131254396D01*
X140921691Y-131182958D01*
X140840192Y-131128502D01*
X140729875Y-131069536D01*
X140639319Y-131032027D01*
X140519623Y-130995718D01*
X140423490Y-130976596D01*
X140299009Y-130964336D01*
X140274450Y-130964336D01*
X140250000Y-130961928D01*
X140113507Y-130961928D01*
X139056534Y-129904956D01*
X139028817Y-129871183D01*
X138894059Y-129760589D01*
X138740313Y-129678411D01*
X138573490Y-129627805D01*
X138443477Y-129615000D01*
X138443469Y-129615000D01*
X138400000Y-129610719D01*
X138356531Y-129615000D01*
X138341558Y-129615000D01*
X138317042Y-129578309D01*
X138237690Y-129481618D01*
X138168382Y-129412310D01*
X138071691Y-129332958D01*
X137990192Y-129278502D01*
X137879875Y-129219536D01*
X137789319Y-129182027D01*
X137669623Y-129145718D01*
X137573490Y-129126596D01*
X137449009Y-129114336D01*
X137424450Y-129114336D01*
X137400000Y-129111928D01*
X136900000Y-129111928D01*
X136775518Y-129124188D01*
X136750000Y-129131929D01*
X136724482Y-129124188D01*
X136600000Y-129111928D01*
X136100000Y-129111928D01*
X136075550Y-129114336D01*
X136050991Y-129114336D01*
X135926510Y-129126596D01*
X135830377Y-129145718D01*
X135710681Y-129182027D01*
X135620125Y-129219536D01*
X135509808Y-129278502D01*
X135428309Y-129332958D01*
X135331618Y-129412310D01*
X135262310Y-129481618D01*
X135182958Y-129578309D01*
X135158442Y-129615000D01*
X133341558Y-129615000D01*
X133317042Y-129578309D01*
X133237690Y-129481618D01*
X133168382Y-129412310D01*
X133071691Y-129332958D01*
X132990192Y-129278502D01*
X132879875Y-129219536D01*
X132789319Y-129182027D01*
X132669623Y-129145718D01*
X132573490Y-129126596D01*
X132449009Y-129114336D01*
X132424450Y-129114336D01*
X132400000Y-129111928D01*
X131900000Y-129111928D01*
X131775518Y-129124188D01*
X131750000Y-129131929D01*
X131724482Y-129124188D01*
X131600000Y-129111928D01*
X131100000Y-129111928D01*
X131075550Y-129114336D01*
X131050991Y-129114336D01*
X130926510Y-129126596D01*
X130830377Y-129145718D01*
X130710681Y-129182027D01*
X130620125Y-129219536D01*
X130509808Y-129278502D01*
X130428309Y-129332958D01*
X130331618Y-129412310D01*
X130262310Y-129481618D01*
X130182958Y-129578309D01*
X130158442Y-129615000D01*
X129924948Y-129615000D01*
X129917755Y-129611155D01*
X129771794Y-129566878D01*
X129620000Y-129551928D01*
X129340000Y-129551928D01*
X129188206Y-129566878D01*
X129042245Y-129611155D01*
X128907726Y-129683057D01*
X128789820Y-129779820D01*
X128693057Y-129897726D01*
X128621155Y-130032245D01*
X128576878Y-130178206D01*
X128561928Y-130330000D01*
X128561928Y-130670000D01*
X128576878Y-130821794D01*
X128621155Y-130967755D01*
X128693057Y-131102274D01*
X128789820Y-131220180D01*
X128907726Y-131316943D01*
X129042245Y-131388845D01*
X129188206Y-131433122D01*
X129340000Y-131448072D01*
X129620000Y-131448072D01*
X129771794Y-131433122D01*
X129865001Y-131404848D01*
X129865000Y-132032544D01*
X129850775Y-132059158D01*
X129806782Y-132204181D01*
X129791928Y-132355000D01*
X129791928Y-132625000D01*
X129806782Y-132775819D01*
X129850775Y-132920842D01*
X129893086Y-133000000D01*
X129850775Y-133079158D01*
X129806782Y-133224181D01*
X129791928Y-133375000D01*
X129791928Y-133645000D01*
X129806782Y-133795819D01*
X129850775Y-133940842D01*
X129922214Y-134074496D01*
X130018356Y-134191644D01*
X130135504Y-134287786D01*
X130269158Y-134359225D01*
X130381824Y-134393403D01*
X130913420Y-134924999D01*
X129173419Y-136665001D01*
X122836577Y-136665001D01*
X125445048Y-134056531D01*
X125478817Y-134028817D01*
X125506531Y-133995048D01*
X126495044Y-133006535D01*
X126551898Y-132995226D01*
X126740256Y-132917205D01*
X126909774Y-132803937D01*
X127053937Y-132659774D01*
X127167205Y-132490256D01*
X127245226Y-132301898D01*
X127285000Y-132101939D01*
X127285000Y-131898061D01*
X127245226Y-131698102D01*
X127167205Y-131509744D01*
X127053937Y-131340226D01*
X126909774Y-131196063D01*
X126740256Y-131082795D01*
X126551898Y-131004774D01*
X126351939Y-130965000D01*
X126148061Y-130965000D01*
X125948102Y-131004774D01*
X125759744Y-131082795D01*
X125590226Y-131196063D01*
X125446063Y-131340226D01*
X125332795Y-131509744D01*
X125254774Y-131698102D01*
X125243465Y-131754956D01*
X124483421Y-132515000D01*
X123502565Y-132515000D01*
X123535000Y-132351939D01*
X123535000Y-132148061D01*
X123495226Y-131948102D01*
X123417205Y-131759744D01*
X123303937Y-131590226D01*
X123159774Y-131446063D01*
X122990256Y-131332795D01*
X122801898Y-131254774D01*
X122601939Y-131215000D01*
X122398061Y-131215000D01*
X122396543Y-131215302D01*
X122393477Y-131215000D01*
X122393469Y-131215000D01*
X122350000Y-131210719D01*
X122306531Y-131215000D01*
X120960734Y-131215000D01*
X120921691Y-131182958D01*
X120840192Y-131128502D01*
X120729875Y-131069536D01*
X120639319Y-131032027D01*
X120519623Y-130995718D01*
X120423490Y-130976596D01*
X120299009Y-130964336D01*
X120274450Y-130964336D01*
X120250000Y-130961928D01*
X120113507Y-130961928D01*
X119056534Y-129904956D01*
X119028817Y-129871183D01*
X118894059Y-129760589D01*
X118740313Y-129678411D01*
X118573490Y-129627805D01*
X118443477Y-129615000D01*
X118443469Y-129615000D01*
X118400000Y-129610719D01*
X118356531Y-129615000D01*
X118341558Y-129615000D01*
X118317042Y-129578309D01*
X118237690Y-129481618D01*
X118168382Y-129412310D01*
X118071691Y-129332958D01*
X117990192Y-129278502D01*
X117879875Y-129219536D01*
X117789319Y-129182027D01*
X117669623Y-129145718D01*
X117573490Y-129126596D01*
X117449009Y-129114336D01*
X117424450Y-129114336D01*
X117400000Y-129111928D01*
X116900000Y-129111928D01*
X116775518Y-129124188D01*
X116750000Y-129131929D01*
X116724482Y-129124188D01*
X116600000Y-129111928D01*
X116100000Y-129111928D01*
X116075550Y-129114336D01*
X116050991Y-129114336D01*
X115926510Y-129126596D01*
X115830377Y-129145718D01*
X115710681Y-129182027D01*
X115620125Y-129219536D01*
X115509808Y-129278502D01*
X115428309Y-129332958D01*
X115331618Y-129412310D01*
X115262310Y-129481618D01*
X115182958Y-129578309D01*
X115158442Y-129615000D01*
X113341558Y-129615000D01*
X113317042Y-129578309D01*
X113237690Y-129481618D01*
X113168382Y-129412310D01*
X113071691Y-129332958D01*
X112990192Y-129278502D01*
X112879875Y-129219536D01*
X112789319Y-129182027D01*
X112669623Y-129145718D01*
X112573490Y-129126596D01*
X112449009Y-129114336D01*
X112424450Y-129114336D01*
X112400000Y-129111928D01*
X111900000Y-129111928D01*
X111775518Y-129124188D01*
X111750000Y-129131929D01*
X111724482Y-129124188D01*
X111600000Y-129111928D01*
X111100000Y-129111928D01*
X111075550Y-129114336D01*
X111050991Y-129114336D01*
X110926510Y-129126596D01*
X110830377Y-129145718D01*
X110710681Y-129182027D01*
X110620125Y-129219536D01*
X110509808Y-129278502D01*
X110428309Y-129332958D01*
X110331618Y-129412310D01*
X110262310Y-129481618D01*
X110182958Y-129578309D01*
X110158442Y-129615000D01*
X109924948Y-129615000D01*
X109917755Y-129611155D01*
X109771794Y-129566878D01*
X109620000Y-129551928D01*
X109340000Y-129551928D01*
X109188206Y-129566878D01*
X109042245Y-129611155D01*
X108907726Y-129683057D01*
X108789820Y-129779820D01*
X108693057Y-129897726D01*
X108621155Y-130032245D01*
X108576878Y-130178206D01*
X108561928Y-130330000D01*
X108561928Y-130670000D01*
X108576878Y-130821794D01*
X108621155Y-130967755D01*
X108693057Y-131102274D01*
X108735357Y-131153816D01*
X107685001Y-130103461D01*
X107685001Y-121343467D01*
X107689282Y-121300000D01*
X107685001Y-121256534D01*
X107685001Y-121256524D01*
X107672196Y-121126511D01*
X107621590Y-120959688D01*
X107539412Y-120805942D01*
X107428818Y-120671184D01*
X107428006Y-120670517D01*
X107478817Y-120628817D01*
X107506534Y-120595044D01*
X111161928Y-116939651D01*
X111161928Y-117100000D01*
X111174188Y-117224482D01*
X111210498Y-117344180D01*
X111269463Y-117454494D01*
X111348815Y-117551185D01*
X111445506Y-117630537D01*
X111555820Y-117689502D01*
X111675518Y-117725812D01*
X111800000Y-117738072D01*
X112436494Y-117738072D01*
X113543481Y-118845060D01*
X113571194Y-118878828D01*
X113604962Y-118906541D01*
X113604964Y-118906543D01*
X113705951Y-118989421D01*
X113705952Y-118989422D01*
X113859698Y-119071600D01*
X113975914Y-119106854D01*
X114026520Y-119122206D01*
X114041317Y-119123663D01*
X114156534Y-119135011D01*
X114156542Y-119135011D01*
X114200011Y-119139292D01*
X114243480Y-119135011D01*
X135756520Y-119135011D01*
X135799989Y-119139292D01*
X135843458Y-119135011D01*
X135843466Y-119135011D01*
X135973479Y-119122206D01*
X136140302Y-119071600D01*
X136294048Y-118989422D01*
X136428806Y-118878828D01*
X136456523Y-118845055D01*
X137563507Y-117738072D01*
X138200000Y-117738072D01*
X138324482Y-117725812D01*
X138444180Y-117689502D01*
X138554494Y-117630537D01*
X138651185Y-117551185D01*
X138730537Y-117454494D01*
X138789502Y-117344180D01*
X138825812Y-117224482D01*
X138838072Y-117100000D01*
X138838072Y-116923508D01*
X140595050Y-115166531D01*
X140628817Y-115138819D01*
X140739411Y-115004061D01*
X140741582Y-114999999D01*
X140821589Y-114850316D01*
X140872195Y-114683492D01*
X140872195Y-114683491D01*
X140885000Y-114553479D01*
X140885000Y-114553471D01*
X140889281Y-114510002D01*
X140885000Y-114466533D01*
X140885000Y-114341558D01*
X140921691Y-114317042D01*
X141018382Y-114237690D01*
X141087690Y-114168382D01*
X141167042Y-114071691D01*
X141221498Y-113990192D01*
X141280464Y-113879875D01*
X141317973Y-113789319D01*
X141354282Y-113669623D01*
X141373404Y-113573490D01*
X141385664Y-113449009D01*
X141385664Y-113424450D01*
X141388072Y-113400000D01*
X141388072Y-112900000D01*
X141375812Y-112775518D01*
X141368071Y-112750000D01*
X141375812Y-112724482D01*
X141388072Y-112600000D01*
X141388072Y-112100000D01*
X141385664Y-112075550D01*
X141385664Y-112050991D01*
X141373404Y-111926510D01*
X141354282Y-111830377D01*
X141317973Y-111710681D01*
X141280464Y-111620125D01*
X141221498Y-111509808D01*
X141167042Y-111428309D01*
X141087690Y-111331618D01*
X141018382Y-111262310D01*
X140921691Y-111182958D01*
X140840192Y-111128502D01*
X140729875Y-111069536D01*
X140639319Y-111032027D01*
X140519623Y-110995718D01*
X140423490Y-110976596D01*
X140299009Y-110964336D01*
X140274450Y-110964336D01*
X140250000Y-110961928D01*
X140113507Y-110961928D01*
X139056534Y-109904956D01*
X139028817Y-109871183D01*
X138894059Y-109760589D01*
X138740313Y-109678411D01*
X138573490Y-109627805D01*
X138443477Y-109615000D01*
X138443469Y-109615000D01*
X138400000Y-109610719D01*
X138356531Y-109615000D01*
X138341558Y-109615000D01*
X138317042Y-109578309D01*
X138237690Y-109481618D01*
X138168382Y-109412310D01*
X138071691Y-109332958D01*
X137990192Y-109278502D01*
X137879875Y-109219536D01*
X137789319Y-109182027D01*
X137669623Y-109145718D01*
X137573490Y-109126596D01*
X137449009Y-109114336D01*
X137424450Y-109114336D01*
X137400000Y-109111928D01*
X136900000Y-109111928D01*
X136775518Y-109124188D01*
X136750000Y-109131929D01*
X136724482Y-109124188D01*
X136600000Y-109111928D01*
X136100000Y-109111928D01*
X136075550Y-109114336D01*
X136050991Y-109114336D01*
X135926510Y-109126596D01*
X135830377Y-109145718D01*
X135710681Y-109182027D01*
X135620125Y-109219536D01*
X135509808Y-109278502D01*
X135428309Y-109332958D01*
X135331618Y-109412310D01*
X135262310Y-109481618D01*
X135182958Y-109578309D01*
X135158442Y-109615000D01*
X133341558Y-109615000D01*
X133317042Y-109578309D01*
X133237690Y-109481618D01*
X133168382Y-109412310D01*
X133071691Y-109332958D01*
X132990192Y-109278502D01*
X132879875Y-109219536D01*
X132789319Y-109182027D01*
X132669623Y-109145718D01*
X132573490Y-109126596D01*
X132449009Y-109114336D01*
X132424450Y-109114336D01*
X132400000Y-109111928D01*
X131900000Y-109111928D01*
X131775518Y-109124188D01*
X131750000Y-109131929D01*
X131724482Y-109124188D01*
X131600000Y-109111928D01*
X131100000Y-109111928D01*
X131075550Y-109114336D01*
X131050991Y-109114336D01*
X130926510Y-109126596D01*
X130830377Y-109145718D01*
X130710681Y-109182027D01*
X130620125Y-109219536D01*
X130509808Y-109278502D01*
X130428309Y-109332958D01*
X130331618Y-109412310D01*
X130262310Y-109481618D01*
X130182958Y-109578309D01*
X130158442Y-109615000D01*
X129924948Y-109615000D01*
X129917755Y-109611155D01*
X129771794Y-109566878D01*
X129620000Y-109551928D01*
X129340000Y-109551928D01*
X129188206Y-109566878D01*
X129042245Y-109611155D01*
X128907726Y-109683057D01*
X128789820Y-109779820D01*
X128693057Y-109897726D01*
X128621155Y-110032245D01*
X128576878Y-110178206D01*
X128561928Y-110330000D01*
X128561928Y-110670000D01*
X128576878Y-110821794D01*
X128621155Y-110967755D01*
X128693057Y-111102274D01*
X128789820Y-111220180D01*
X128907726Y-111316943D01*
X129042245Y-111388845D01*
X129188206Y-111433122D01*
X129340000Y-111448072D01*
X129620000Y-111448072D01*
X129771794Y-111433122D01*
X129865001Y-111404848D01*
X129865000Y-112032544D01*
X129850775Y-112059158D01*
X129806782Y-112204181D01*
X129791928Y-112355000D01*
X129791928Y-112625000D01*
X129806782Y-112775819D01*
X129850775Y-112920842D01*
X129893086Y-113000000D01*
X129850775Y-113079158D01*
X129806782Y-113224181D01*
X129791928Y-113375000D01*
X129791928Y-113645000D01*
X129806782Y-113795819D01*
X129850775Y-113940842D01*
X129922214Y-114074496D01*
X130018356Y-114191644D01*
X130135504Y-114287786D01*
X130269158Y-114359225D01*
X130381824Y-114393403D01*
X130913420Y-114924999D01*
X129173419Y-116665001D01*
X120022456Y-116665001D01*
X120035000Y-116601939D01*
X120035000Y-116398061D01*
X119995226Y-116198102D01*
X119917205Y-116009744D01*
X119803937Y-115840226D01*
X119659774Y-115696063D01*
X119490256Y-115582795D01*
X119301898Y-115504774D01*
X119101939Y-115465000D01*
X118898061Y-115465000D01*
X118698102Y-115504774D01*
X118549009Y-115566531D01*
X118444180Y-115510498D01*
X118324482Y-115474188D01*
X118200000Y-115461928D01*
X116700000Y-115461928D01*
X116575518Y-115474188D01*
X116455820Y-115510498D01*
X116345506Y-115569463D01*
X116248815Y-115648815D01*
X116169463Y-115745506D01*
X116110498Y-115855820D01*
X116074188Y-115975518D01*
X116061928Y-116100000D01*
X116061928Y-116665001D01*
X115926582Y-116665001D01*
X113938072Y-114676492D01*
X113938072Y-114500000D01*
X113925812Y-114375518D01*
X113889502Y-114255820D01*
X113859665Y-114200000D01*
X113889502Y-114144180D01*
X113925812Y-114024482D01*
X113938072Y-113900000D01*
X113938072Y-112900000D01*
X113925812Y-112775518D01*
X113889502Y-112655820D01*
X113830537Y-112545506D01*
X113751185Y-112448815D01*
X113654494Y-112369463D01*
X113544180Y-112310498D01*
X113424482Y-112274188D01*
X113300000Y-112261928D01*
X113285000Y-112261928D01*
X113285000Y-111460734D01*
X113317042Y-111421691D01*
X113341558Y-111385000D01*
X115158442Y-111385000D01*
X115182958Y-111421691D01*
X115262310Y-111518382D01*
X115331618Y-111587690D01*
X115428309Y-111667042D01*
X115509808Y-111721498D01*
X115620125Y-111780464D01*
X115710681Y-111817973D01*
X115830377Y-111854282D01*
X115926510Y-111873404D01*
X116050991Y-111885664D01*
X116075550Y-111885664D01*
X116100000Y-111888072D01*
X116600000Y-111888072D01*
X116724482Y-111875812D01*
X116750000Y-111868071D01*
X116775518Y-111875812D01*
X116900000Y-111888072D01*
X117400000Y-111888072D01*
X117424450Y-111885664D01*
X117449009Y-111885664D01*
X117573490Y-111873404D01*
X117669623Y-111854282D01*
X117789319Y-111817973D01*
X117879875Y-111780464D01*
X117990192Y-111721498D01*
X118071691Y-111667042D01*
X118168382Y-111587690D01*
X118202247Y-111553825D01*
X118621964Y-111973542D01*
X118614336Y-112050991D01*
X118614336Y-112075550D01*
X118611928Y-112100000D01*
X118611928Y-112416598D01*
X118554494Y-112369463D01*
X118444180Y-112310498D01*
X118324482Y-112274188D01*
X118200000Y-112261928D01*
X116700000Y-112261928D01*
X116575518Y-112274188D01*
X116455820Y-112310498D01*
X116345506Y-112369463D01*
X116248815Y-112448815D01*
X116194499Y-112515000D01*
X116076586Y-112515000D01*
X116051898Y-112504774D01*
X115851939Y-112465000D01*
X115648061Y-112465000D01*
X115448102Y-112504774D01*
X115259744Y-112582795D01*
X115090226Y-112696063D01*
X114946063Y-112840226D01*
X114832795Y-113009744D01*
X114754774Y-113198102D01*
X114715000Y-113398061D01*
X114715000Y-113601939D01*
X114754774Y-113801898D01*
X114832795Y-113990256D01*
X114946063Y-114159774D01*
X115090226Y-114303937D01*
X115259744Y-114417205D01*
X115448102Y-114495226D01*
X115648061Y-114535000D01*
X115851939Y-114535000D01*
X116051898Y-114495226D01*
X116240256Y-114417205D01*
X116289317Y-114384424D01*
X116345506Y-114430537D01*
X116455820Y-114489502D01*
X116575518Y-114525812D01*
X116700000Y-114538072D01*
X118200000Y-114538072D01*
X118324482Y-114525812D01*
X118444180Y-114489502D01*
X118554494Y-114430537D01*
X118651185Y-114351185D01*
X118705501Y-114285000D01*
X119039266Y-114285000D01*
X119078309Y-114317042D01*
X119159808Y-114371498D01*
X119270125Y-114430464D01*
X119360681Y-114467973D01*
X119480377Y-114504282D01*
X119576510Y-114523404D01*
X119700991Y-114535664D01*
X119725550Y-114535664D01*
X119750000Y-114538072D01*
X120250000Y-114538072D01*
X120274450Y-114535664D01*
X120299009Y-114535664D01*
X120423490Y-114523404D01*
X120519623Y-114504282D01*
X120639319Y-114467973D01*
X120729875Y-114430464D01*
X120840192Y-114371498D01*
X120921691Y-114317042D01*
X121018382Y-114237690D01*
X121087690Y-114168382D01*
X121167042Y-114071691D01*
X121221498Y-113990192D01*
X121280464Y-113879875D01*
X121317973Y-113789319D01*
X121354282Y-113669623D01*
X121373404Y-113573490D01*
X121385664Y-113449009D01*
X121385664Y-113424450D01*
X121388072Y-113400000D01*
X121388072Y-112985000D01*
X121771289Y-112985000D01*
X121840226Y-113053937D01*
X122009744Y-113167205D01*
X122198102Y-113245226D01*
X122398061Y-113285000D01*
X122601939Y-113285000D01*
X122801898Y-113245226D01*
X122990256Y-113167205D01*
X123159774Y-113053937D01*
X123303937Y-112909774D01*
X123417205Y-112740256D01*
X123495226Y-112551898D01*
X123535000Y-112351939D01*
X123535000Y-112148061D01*
X123495226Y-111948102D01*
X123417205Y-111759744D01*
X123303937Y-111590226D01*
X123159774Y-111446063D01*
X122990256Y-111332795D01*
X122801898Y-111254774D01*
X122601939Y-111215000D01*
X122398061Y-111215000D01*
X122396543Y-111215302D01*
X122393477Y-111215000D01*
X122393469Y-111215000D01*
X122350000Y-111210719D01*
X122306531Y-111215000D01*
X120960734Y-111215000D01*
X120921691Y-111182958D01*
X120840192Y-111128502D01*
X120729875Y-111069536D01*
X120639319Y-111032027D01*
X120519623Y-110995718D01*
X120423490Y-110976596D01*
X120299009Y-110964336D01*
X120274450Y-110964336D01*
X120250000Y-110961928D01*
X120113507Y-110961928D01*
X119056534Y-109904956D01*
X119028817Y-109871183D01*
X118894059Y-109760589D01*
X118740313Y-109678411D01*
X118573490Y-109627805D01*
X118443477Y-109615000D01*
X118443469Y-109615000D01*
X118400000Y-109610719D01*
X118356531Y-109615000D01*
X118341558Y-109615000D01*
X118317042Y-109578309D01*
X118237690Y-109481618D01*
X118168382Y-109412310D01*
X118071691Y-109332958D01*
X117990192Y-109278502D01*
X117879875Y-109219536D01*
X117789319Y-109182027D01*
X117669623Y-109145718D01*
X117573490Y-109126596D01*
X117449009Y-109114336D01*
X117424450Y-109114336D01*
X117400000Y-109111928D01*
X116900000Y-109111928D01*
X116775518Y-109124188D01*
X116750000Y-109131929D01*
X116724482Y-109124188D01*
X116600000Y-109111928D01*
X116100000Y-109111928D01*
X116075550Y-109114336D01*
X116050991Y-109114336D01*
X115926510Y-109126596D01*
X115830377Y-109145718D01*
X115710681Y-109182027D01*
X115620125Y-109219536D01*
X115509808Y-109278502D01*
X115428309Y-109332958D01*
X115331618Y-109412310D01*
X115262310Y-109481618D01*
X115182958Y-109578309D01*
X115158442Y-109615000D01*
X113341558Y-109615000D01*
X113317042Y-109578309D01*
X113237690Y-109481618D01*
X113168382Y-109412310D01*
X113071691Y-109332958D01*
X112990192Y-109278502D01*
X112879875Y-109219536D01*
X112789319Y-109182027D01*
X112669623Y-109145718D01*
X112573490Y-109126596D01*
X112449009Y-109114336D01*
X112424450Y-109114336D01*
X112400000Y-109111928D01*
X111900000Y-109111928D01*
X111775518Y-109124188D01*
X111750000Y-109131929D01*
X111724482Y-109124188D01*
X111600000Y-109111928D01*
X111100000Y-109111928D01*
X111075550Y-109114336D01*
X111050991Y-109114336D01*
X110926510Y-109126596D01*
X110830377Y-109145718D01*
X110710681Y-109182027D01*
X110620125Y-109219536D01*
X110509808Y-109278502D01*
X110428309Y-109332958D01*
X110331618Y-109412310D01*
X110262310Y-109481618D01*
X110182958Y-109578309D01*
X110158442Y-109615000D01*
X109924948Y-109615000D01*
X109917755Y-109611155D01*
X109771794Y-109566878D01*
X109620000Y-109551928D01*
X109340000Y-109551928D01*
X109188206Y-109566878D01*
X109042245Y-109611155D01*
X108907726Y-109683057D01*
X108789820Y-109779820D01*
X108693057Y-109897726D01*
X108621155Y-110032245D01*
X108576878Y-110178206D01*
X108561928Y-110330000D01*
X108561928Y-110670000D01*
X108576878Y-110821794D01*
X108621155Y-110967755D01*
X108693057Y-111102274D01*
X108789820Y-111220180D01*
X108907726Y-111316943D01*
X109042245Y-111388845D01*
X109188206Y-111433122D01*
X109340000Y-111448072D01*
X109620000Y-111448072D01*
X109771794Y-111433122D01*
X109865001Y-111404848D01*
X109865000Y-112032544D01*
X109850775Y-112059158D01*
X109806782Y-112204181D01*
X109791928Y-112355000D01*
X109791928Y-112625000D01*
X109806782Y-112775819D01*
X109850775Y-112920842D01*
X109893086Y-113000000D01*
X109850775Y-113079158D01*
X109806782Y-113224181D01*
X109791928Y-113375000D01*
X109791928Y-113645000D01*
X109806782Y-113795819D01*
X109850775Y-113940842D01*
X109922214Y-114074496D01*
X110018356Y-114191644D01*
X110135504Y-114287786D01*
X110269158Y-114359225D01*
X110381824Y-114393403D01*
X110793421Y-114805000D01*
X106845549Y-118752873D01*
X106801185Y-118698815D01*
X106704494Y-118619463D01*
X106594180Y-118560498D01*
X106474482Y-118524188D01*
X106350000Y-118511928D01*
X104650000Y-118511928D01*
X104525518Y-118524188D01*
X104405820Y-118560498D01*
X104295506Y-118619463D01*
X104198815Y-118698815D01*
X104119463Y-118795506D01*
X104060498Y-118905820D01*
X104024188Y-119025518D01*
X104011928Y-119150000D01*
X100660000Y-119150000D01*
X100660000Y-100660000D01*
X149340000Y-100660000D01*
X149340001Y-149340000D01*
G37*
%TD.AperFunction*%
D17*
X135182958Y-131421691D02*
X135262310Y-131518382D01*
X135331618Y-131587690D01*
X135428309Y-131667042D01*
X135509808Y-131721498D01*
X135620125Y-131780464D01*
X135710681Y-131817973D01*
X135830377Y-131854282D01*
X135926510Y-131873404D01*
X136050991Y-131885664D01*
X136075550Y-131885664D01*
X136100000Y-131888072D01*
X136600000Y-131888072D01*
X136724482Y-131875812D01*
X136750000Y-131868071D01*
X136775518Y-131875812D01*
X136900000Y-131888072D01*
X137400000Y-131888072D01*
X137424450Y-131885664D01*
X137449009Y-131885664D01*
X137573490Y-131873404D01*
X137669623Y-131854282D01*
X137789319Y-131817973D01*
X137879875Y-131780464D01*
X137990192Y-131721498D01*
X138071691Y-131667042D01*
X138168382Y-131587690D01*
X138202247Y-131553825D01*
X138621964Y-131973542D01*
X138614336Y-132050991D01*
X138614336Y-132075550D01*
X138611928Y-132100000D01*
X138611928Y-132416598D01*
X138554494Y-132369463D01*
X138444180Y-132310498D01*
X138324482Y-132274188D01*
X138200000Y-132261928D01*
X136700000Y-132261928D01*
X136575518Y-132274188D01*
X136455820Y-132310498D01*
X136345506Y-132369463D01*
X136248815Y-132448815D01*
X136169463Y-132545506D01*
X136165977Y-132552027D01*
X136051898Y-132504774D01*
X135851939Y-132465000D01*
X135648061Y-132465000D01*
X135448102Y-132504774D01*
X135259744Y-132582795D01*
X135090226Y-132696063D01*
X134946063Y-132840226D01*
X134832795Y-133009744D01*
X134754774Y-133198102D01*
X134715000Y-133398061D01*
X134715000Y-133601939D01*
X134754774Y-133801898D01*
X134832795Y-133990256D01*
X134946063Y-134159774D01*
X135090226Y-134303937D01*
X135259744Y-134417205D01*
X135448102Y-134495226D01*
X135648061Y-134535000D01*
X135851939Y-134535000D01*
X136051898Y-134495226D01*
X136240256Y-134417205D01*
X136288454Y-134385000D01*
X136290019Y-134385000D01*
X136345506Y-134430537D01*
X136455820Y-134489502D01*
X136575518Y-134525812D01*
X136700000Y-134538072D01*
X138200000Y-134538072D01*
X138324482Y-134525812D01*
X138444180Y-134489502D01*
X138554494Y-134430537D01*
X138651185Y-134351185D01*
X138730537Y-134254494D01*
X138789502Y-134144180D01*
X138818194Y-134049595D01*
X138832958Y-134071691D01*
X138912310Y-134168382D01*
X138981618Y-134237690D01*
X139003102Y-134255321D01*
X137796496Y-135461928D01*
X136700000Y-135461928D01*
X136575518Y-135474188D01*
X136455820Y-135510498D01*
X136345506Y-135569463D01*
X136248815Y-135648815D01*
X136169463Y-135745506D01*
X136110498Y-135855820D01*
X136074188Y-135975518D01*
X136061928Y-136100000D01*
X136061928Y-136736493D01*
X135433411Y-137365011D01*
X134568370Y-137365011D01*
X134659774Y-137303937D01*
X134803937Y-137159774D01*
X134917205Y-136990256D01*
X134995226Y-136801898D01*
X135035000Y-136601939D01*
X135035000Y-136398061D01*
X134995226Y-136198102D01*
X134917205Y-136009744D01*
X134803937Y-135840226D01*
X134659774Y-135696063D01*
X134490256Y-135582795D01*
X134301898Y-135504774D01*
X134101939Y-135465000D01*
X133938072Y-135465000D01*
X133938072Y-134500000D01*
X133925812Y-134375518D01*
X133889502Y-134255820D01*
X133859665Y-134200000D01*
X133889502Y-134144180D01*
X133925812Y-134024482D01*
X133938072Y-133900000D01*
X133938072Y-132900000D01*
X133925812Y-132775518D01*
X133889502Y-132655820D01*
X133830537Y-132545506D01*
X133751185Y-132448815D01*
X133654494Y-132369463D01*
X133544180Y-132310498D01*
X133435000Y-132277379D01*
X133435000Y-131385000D01*
X135158442Y-131385000D01*
X135182958Y-131421691D01*
%TA.AperFunction,Conductor*%
D18*
G36*
X135182958Y-131421691D02*
G01*
X135262310Y-131518382D01*
X135331618Y-131587690D01*
X135428309Y-131667042D01*
X135509808Y-131721498D01*
X135620125Y-131780464D01*
X135710681Y-131817973D01*
X135830377Y-131854282D01*
X135926510Y-131873404D01*
X136050991Y-131885664D01*
X136075550Y-131885664D01*
X136100000Y-131888072D01*
X136600000Y-131888072D01*
X136724482Y-131875812D01*
X136750000Y-131868071D01*
X136775518Y-131875812D01*
X136900000Y-131888072D01*
X137400000Y-131888072D01*
X137424450Y-131885664D01*
X137449009Y-131885664D01*
X137573490Y-131873404D01*
X137669623Y-131854282D01*
X137789319Y-131817973D01*
X137879875Y-131780464D01*
X137990192Y-131721498D01*
X138071691Y-131667042D01*
X138168382Y-131587690D01*
X138202247Y-131553825D01*
X138621964Y-131973542D01*
X138614336Y-132050991D01*
X138614336Y-132075550D01*
X138611928Y-132100000D01*
X138611928Y-132416598D01*
X138554494Y-132369463D01*
X138444180Y-132310498D01*
X138324482Y-132274188D01*
X138200000Y-132261928D01*
X136700000Y-132261928D01*
X136575518Y-132274188D01*
X136455820Y-132310498D01*
X136345506Y-132369463D01*
X136248815Y-132448815D01*
X136169463Y-132545506D01*
X136165977Y-132552027D01*
X136051898Y-132504774D01*
X135851939Y-132465000D01*
X135648061Y-132465000D01*
X135448102Y-132504774D01*
X135259744Y-132582795D01*
X135090226Y-132696063D01*
X134946063Y-132840226D01*
X134832795Y-133009744D01*
X134754774Y-133198102D01*
X134715000Y-133398061D01*
X134715000Y-133601939D01*
X134754774Y-133801898D01*
X134832795Y-133990256D01*
X134946063Y-134159774D01*
X135090226Y-134303937D01*
X135259744Y-134417205D01*
X135448102Y-134495226D01*
X135648061Y-134535000D01*
X135851939Y-134535000D01*
X136051898Y-134495226D01*
X136240256Y-134417205D01*
X136288454Y-134385000D01*
X136290019Y-134385000D01*
X136345506Y-134430537D01*
X136455820Y-134489502D01*
X136575518Y-134525812D01*
X136700000Y-134538072D01*
X138200000Y-134538072D01*
X138324482Y-134525812D01*
X138444180Y-134489502D01*
X138554494Y-134430537D01*
X138651185Y-134351185D01*
X138730537Y-134254494D01*
X138789502Y-134144180D01*
X138818194Y-134049595D01*
X138832958Y-134071691D01*
X138912310Y-134168382D01*
X138981618Y-134237690D01*
X139003102Y-134255321D01*
X137796496Y-135461928D01*
X136700000Y-135461928D01*
X136575518Y-135474188D01*
X136455820Y-135510498D01*
X136345506Y-135569463D01*
X136248815Y-135648815D01*
X136169463Y-135745506D01*
X136110498Y-135855820D01*
X136074188Y-135975518D01*
X136061928Y-136100000D01*
X136061928Y-136736493D01*
X135433411Y-137365011D01*
X134568370Y-137365011D01*
X134659774Y-137303937D01*
X134803937Y-137159774D01*
X134917205Y-136990256D01*
X134995226Y-136801898D01*
X135035000Y-136601939D01*
X135035000Y-136398061D01*
X134995226Y-136198102D01*
X134917205Y-136009744D01*
X134803937Y-135840226D01*
X134659774Y-135696063D01*
X134490256Y-135582795D01*
X134301898Y-135504774D01*
X134101939Y-135465000D01*
X133938072Y-135465000D01*
X133938072Y-134500000D01*
X133925812Y-134375518D01*
X133889502Y-134255820D01*
X133859665Y-134200000D01*
X133889502Y-134144180D01*
X133925812Y-134024482D01*
X133938072Y-133900000D01*
X133938072Y-132900000D01*
X133925812Y-132775518D01*
X133889502Y-132655820D01*
X133830537Y-132545506D01*
X133751185Y-132448815D01*
X133654494Y-132369463D01*
X133544180Y-132310498D01*
X133435000Y-132277379D01*
X133435000Y-131385000D01*
X135158442Y-131385000D01*
X135182958Y-131421691D01*
G37*
%TD.AperFunction*%
D17*
X115182958Y-131421691D02*
X115262310Y-131518382D01*
X115331618Y-131587690D01*
X115428309Y-131667042D01*
X115509808Y-131721498D01*
X115620125Y-131780464D01*
X115710681Y-131817973D01*
X115830377Y-131854282D01*
X115926510Y-131873404D01*
X116050991Y-131885664D01*
X116075550Y-131885664D01*
X116100000Y-131888072D01*
X116600000Y-131888072D01*
X116724482Y-131875812D01*
X116750000Y-131868071D01*
X116775518Y-131875812D01*
X116900000Y-131888072D01*
X117400000Y-131888072D01*
X117424450Y-131885664D01*
X117449009Y-131885664D01*
X117573490Y-131873404D01*
X117669623Y-131854282D01*
X117789319Y-131817973D01*
X117879875Y-131780464D01*
X117990192Y-131721498D01*
X118071691Y-131667042D01*
X118168382Y-131587690D01*
X118202247Y-131553825D01*
X118621964Y-131973542D01*
X118614336Y-132050991D01*
X118614336Y-132075550D01*
X118611928Y-132100000D01*
X118611928Y-132416598D01*
X118554494Y-132369463D01*
X118444180Y-132310498D01*
X118324482Y-132274188D01*
X118200000Y-132261928D01*
X116700000Y-132261928D01*
X116575518Y-132274188D01*
X116455820Y-132310498D01*
X116345506Y-132369463D01*
X116322900Y-132388016D01*
X116240256Y-132332795D01*
X116051898Y-132254774D01*
X115851939Y-132215000D01*
X115648061Y-132215000D01*
X115448102Y-132254774D01*
X115259744Y-132332795D01*
X115090226Y-132446063D01*
X114946063Y-132590226D01*
X114832795Y-132759744D01*
X114754774Y-132948102D01*
X114715000Y-133148061D01*
X114715000Y-133351939D01*
X114754774Y-133551898D01*
X114832795Y-133740256D01*
X114946063Y-133909774D01*
X115090226Y-134053937D01*
X115259744Y-134167205D01*
X115448102Y-134245226D01*
X115648061Y-134285000D01*
X115851939Y-134285000D01*
X115853457Y-134284698D01*
X115856523Y-134285000D01*
X115856533Y-134285000D01*
X115899999Y-134289281D01*
X115943466Y-134285000D01*
X116194499Y-134285000D01*
X116248815Y-134351185D01*
X116345506Y-134430537D01*
X116455820Y-134489502D01*
X116575518Y-134525812D01*
X116700000Y-134538072D01*
X118200000Y-134538072D01*
X118324482Y-134525812D01*
X118444180Y-134489502D01*
X118554494Y-134430537D01*
X118651185Y-134351185D01*
X118730537Y-134254494D01*
X118789502Y-134144180D01*
X118818194Y-134049595D01*
X118832958Y-134071691D01*
X118912310Y-134168382D01*
X118981618Y-134237690D01*
X119078309Y-134317042D01*
X119159808Y-134371498D01*
X119270125Y-134430464D01*
X119360681Y-134467973D01*
X119480377Y-134504282D01*
X119576510Y-134523404D01*
X119700991Y-134535664D01*
X119725550Y-134535664D01*
X119750000Y-134538072D01*
X120250000Y-134538072D01*
X120274450Y-134535664D01*
X120299009Y-134535664D01*
X120423490Y-134523404D01*
X120519623Y-134504282D01*
X120639319Y-134467973D01*
X120729875Y-134430464D01*
X120840192Y-134371498D01*
X120921691Y-134317042D01*
X120960734Y-134285000D01*
X122713422Y-134285000D01*
X121283422Y-135715000D01*
X118705501Y-135715000D01*
X118651185Y-135648815D01*
X118554494Y-135569463D01*
X118444180Y-135510498D01*
X118324482Y-135474188D01*
X118200000Y-135461928D01*
X116700000Y-135461928D01*
X116575518Y-135474188D01*
X116455820Y-135510498D01*
X116345506Y-135569463D01*
X116248815Y-135648815D01*
X116169463Y-135745506D01*
X116110498Y-135855820D01*
X116074188Y-135975518D01*
X116069966Y-136018387D01*
X114456534Y-134404956D01*
X114428817Y-134371183D01*
X114294059Y-134260589D01*
X114140313Y-134178411D01*
X113973490Y-134127805D01*
X113896762Y-134120248D01*
X113925812Y-134024482D01*
X113938072Y-133900000D01*
X113938072Y-132900000D01*
X113925812Y-132775518D01*
X113889502Y-132655820D01*
X113830537Y-132545506D01*
X113751185Y-132448815D01*
X113654494Y-132369463D01*
X113544180Y-132310498D01*
X113424482Y-132274188D01*
X113300000Y-132261928D01*
X113285000Y-132261928D01*
X113285000Y-131460734D01*
X113317042Y-131421691D01*
X113341558Y-131385000D01*
X115158442Y-131385000D01*
X115182958Y-131421691D01*
%TA.AperFunction,Conductor*%
D18*
G36*
X115182958Y-131421691D02*
G01*
X115262310Y-131518382D01*
X115331618Y-131587690D01*
X115428309Y-131667042D01*
X115509808Y-131721498D01*
X115620125Y-131780464D01*
X115710681Y-131817973D01*
X115830377Y-131854282D01*
X115926510Y-131873404D01*
X116050991Y-131885664D01*
X116075550Y-131885664D01*
X116100000Y-131888072D01*
X116600000Y-131888072D01*
X116724482Y-131875812D01*
X116750000Y-131868071D01*
X116775518Y-131875812D01*
X116900000Y-131888072D01*
X117400000Y-131888072D01*
X117424450Y-131885664D01*
X117449009Y-131885664D01*
X117573490Y-131873404D01*
X117669623Y-131854282D01*
X117789319Y-131817973D01*
X117879875Y-131780464D01*
X117990192Y-131721498D01*
X118071691Y-131667042D01*
X118168382Y-131587690D01*
X118202247Y-131553825D01*
X118621964Y-131973542D01*
X118614336Y-132050991D01*
X118614336Y-132075550D01*
X118611928Y-132100000D01*
X118611928Y-132416598D01*
X118554494Y-132369463D01*
X118444180Y-132310498D01*
X118324482Y-132274188D01*
X118200000Y-132261928D01*
X116700000Y-132261928D01*
X116575518Y-132274188D01*
X116455820Y-132310498D01*
X116345506Y-132369463D01*
X116322900Y-132388016D01*
X116240256Y-132332795D01*
X116051898Y-132254774D01*
X115851939Y-132215000D01*
X115648061Y-132215000D01*
X115448102Y-132254774D01*
X115259744Y-132332795D01*
X115090226Y-132446063D01*
X114946063Y-132590226D01*
X114832795Y-132759744D01*
X114754774Y-132948102D01*
X114715000Y-133148061D01*
X114715000Y-133351939D01*
X114754774Y-133551898D01*
X114832795Y-133740256D01*
X114946063Y-133909774D01*
X115090226Y-134053937D01*
X115259744Y-134167205D01*
X115448102Y-134245226D01*
X115648061Y-134285000D01*
X115851939Y-134285000D01*
X115853457Y-134284698D01*
X115856523Y-134285000D01*
X115856533Y-134285000D01*
X115899999Y-134289281D01*
X115943466Y-134285000D01*
X116194499Y-134285000D01*
X116248815Y-134351185D01*
X116345506Y-134430537D01*
X116455820Y-134489502D01*
X116575518Y-134525812D01*
X116700000Y-134538072D01*
X118200000Y-134538072D01*
X118324482Y-134525812D01*
X118444180Y-134489502D01*
X118554494Y-134430537D01*
X118651185Y-134351185D01*
X118730537Y-134254494D01*
X118789502Y-134144180D01*
X118818194Y-134049595D01*
X118832958Y-134071691D01*
X118912310Y-134168382D01*
X118981618Y-134237690D01*
X119078309Y-134317042D01*
X119159808Y-134371498D01*
X119270125Y-134430464D01*
X119360681Y-134467973D01*
X119480377Y-134504282D01*
X119576510Y-134523404D01*
X119700991Y-134535664D01*
X119725550Y-134535664D01*
X119750000Y-134538072D01*
X120250000Y-134538072D01*
X120274450Y-134535664D01*
X120299009Y-134535664D01*
X120423490Y-134523404D01*
X120519623Y-134504282D01*
X120639319Y-134467973D01*
X120729875Y-134430464D01*
X120840192Y-134371498D01*
X120921691Y-134317042D01*
X120960734Y-134285000D01*
X122713422Y-134285000D01*
X121283422Y-135715000D01*
X118705501Y-135715000D01*
X118651185Y-135648815D01*
X118554494Y-135569463D01*
X118444180Y-135510498D01*
X118324482Y-135474188D01*
X118200000Y-135461928D01*
X116700000Y-135461928D01*
X116575518Y-135474188D01*
X116455820Y-135510498D01*
X116345506Y-135569463D01*
X116248815Y-135648815D01*
X116169463Y-135745506D01*
X116110498Y-135855820D01*
X116074188Y-135975518D01*
X116069966Y-136018387D01*
X114456534Y-134404956D01*
X114428817Y-134371183D01*
X114294059Y-134260589D01*
X114140313Y-134178411D01*
X113973490Y-134127805D01*
X113896762Y-134120248D01*
X113925812Y-134024482D01*
X113938072Y-133900000D01*
X113938072Y-132900000D01*
X113925812Y-132775518D01*
X113889502Y-132655820D01*
X113830537Y-132545506D01*
X113751185Y-132448815D01*
X113654494Y-132369463D01*
X113544180Y-132310498D01*
X113424482Y-132274188D01*
X113300000Y-132261928D01*
X113285000Y-132261928D01*
X113285000Y-131460734D01*
X113317042Y-131421691D01*
X113341558Y-131385000D01*
X115158442Y-131385000D01*
X115182958Y-131421691D01*
G37*
%TD.AperFunction*%
D17*
X135182958Y-111421691D02*
X135262310Y-111518382D01*
X135331618Y-111587690D01*
X135428309Y-111667042D01*
X135509808Y-111721498D01*
X135620125Y-111780464D01*
X135710681Y-111817973D01*
X135830377Y-111854282D01*
X135926510Y-111873404D01*
X136050991Y-111885664D01*
X136075550Y-111885664D01*
X136100000Y-111888072D01*
X136466987Y-111888072D01*
X136465000Y-111898061D01*
X136465000Y-112101939D01*
X136503602Y-112296004D01*
X136455820Y-112310498D01*
X136345506Y-112369463D01*
X136248815Y-112448815D01*
X136216785Y-112487844D01*
X136101939Y-112465000D01*
X135898061Y-112465000D01*
X135698102Y-112504774D01*
X135509744Y-112582795D01*
X135340226Y-112696063D01*
X135196063Y-112840226D01*
X135082795Y-113009744D01*
X135004774Y-113198102D01*
X134965000Y-113398061D01*
X134965000Y-113601939D01*
X135004774Y-113801898D01*
X135082795Y-113990256D01*
X135196063Y-114159774D01*
X135340226Y-114303937D01*
X135509744Y-114417205D01*
X135698102Y-114495226D01*
X135898061Y-114535000D01*
X136101939Y-114535000D01*
X136301898Y-114495226D01*
X136394651Y-114456806D01*
X136455820Y-114489502D01*
X136575518Y-114525812D01*
X136700000Y-114538072D01*
X138200000Y-114538072D01*
X138324482Y-114525812D01*
X138444180Y-114489502D01*
X138554494Y-114430537D01*
X138651185Y-114351185D01*
X138730537Y-114254494D01*
X138789502Y-114144180D01*
X138818194Y-114049595D01*
X138832958Y-114071691D01*
X138912310Y-114168382D01*
X138981618Y-114237690D01*
X139003102Y-114255321D01*
X137796496Y-115461928D01*
X136700000Y-115461928D01*
X136575518Y-115474188D01*
X136455820Y-115510498D01*
X136345506Y-115569463D01*
X136248815Y-115648815D01*
X136169463Y-115745506D01*
X136110498Y-115855820D01*
X136074188Y-115975518D01*
X136061928Y-116100000D01*
X136061928Y-116736493D01*
X135433411Y-117365011D01*
X133878367Y-117365011D01*
X133889502Y-117344180D01*
X133925812Y-117224482D01*
X133938072Y-117100000D01*
X133938072Y-116100000D01*
X133925812Y-115975518D01*
X133889502Y-115855820D01*
X133859665Y-115800000D01*
X133889502Y-115744180D01*
X133925812Y-115624482D01*
X133938072Y-115500000D01*
X133938072Y-114500000D01*
X133925812Y-114375518D01*
X133889502Y-114255820D01*
X133859665Y-114200000D01*
X133889502Y-114144180D01*
X133925812Y-114024482D01*
X133938072Y-113900000D01*
X133938072Y-112900000D01*
X133925812Y-112775518D01*
X133889502Y-112655820D01*
X133830537Y-112545506D01*
X133751185Y-112448815D01*
X133654494Y-112369463D01*
X133544180Y-112310498D01*
X133435000Y-112277379D01*
X133435000Y-111385000D01*
X135158442Y-111385000D01*
X135182958Y-111421691D01*
%TA.AperFunction,Conductor*%
D18*
G36*
X135182958Y-111421691D02*
G01*
X135262310Y-111518382D01*
X135331618Y-111587690D01*
X135428309Y-111667042D01*
X135509808Y-111721498D01*
X135620125Y-111780464D01*
X135710681Y-111817973D01*
X135830377Y-111854282D01*
X135926510Y-111873404D01*
X136050991Y-111885664D01*
X136075550Y-111885664D01*
X136100000Y-111888072D01*
X136466987Y-111888072D01*
X136465000Y-111898061D01*
X136465000Y-112101939D01*
X136503602Y-112296004D01*
X136455820Y-112310498D01*
X136345506Y-112369463D01*
X136248815Y-112448815D01*
X136216785Y-112487844D01*
X136101939Y-112465000D01*
X135898061Y-112465000D01*
X135698102Y-112504774D01*
X135509744Y-112582795D01*
X135340226Y-112696063D01*
X135196063Y-112840226D01*
X135082795Y-113009744D01*
X135004774Y-113198102D01*
X134965000Y-113398061D01*
X134965000Y-113601939D01*
X135004774Y-113801898D01*
X135082795Y-113990256D01*
X135196063Y-114159774D01*
X135340226Y-114303937D01*
X135509744Y-114417205D01*
X135698102Y-114495226D01*
X135898061Y-114535000D01*
X136101939Y-114535000D01*
X136301898Y-114495226D01*
X136394651Y-114456806D01*
X136455820Y-114489502D01*
X136575518Y-114525812D01*
X136700000Y-114538072D01*
X138200000Y-114538072D01*
X138324482Y-114525812D01*
X138444180Y-114489502D01*
X138554494Y-114430537D01*
X138651185Y-114351185D01*
X138730537Y-114254494D01*
X138789502Y-114144180D01*
X138818194Y-114049595D01*
X138832958Y-114071691D01*
X138912310Y-114168382D01*
X138981618Y-114237690D01*
X139003102Y-114255321D01*
X137796496Y-115461928D01*
X136700000Y-115461928D01*
X136575518Y-115474188D01*
X136455820Y-115510498D01*
X136345506Y-115569463D01*
X136248815Y-115648815D01*
X136169463Y-115745506D01*
X136110498Y-115855820D01*
X136074188Y-115975518D01*
X136061928Y-116100000D01*
X136061928Y-116736493D01*
X135433411Y-117365011D01*
X133878367Y-117365011D01*
X133889502Y-117344180D01*
X133925812Y-117224482D01*
X133938072Y-117100000D01*
X133938072Y-116100000D01*
X133925812Y-115975518D01*
X133889502Y-115855820D01*
X133859665Y-115800000D01*
X133889502Y-115744180D01*
X133925812Y-115624482D01*
X133938072Y-115500000D01*
X133938072Y-114500000D01*
X133925812Y-114375518D01*
X133889502Y-114255820D01*
X133859665Y-114200000D01*
X133889502Y-114144180D01*
X133925812Y-114024482D01*
X133938072Y-113900000D01*
X133938072Y-112900000D01*
X133925812Y-112775518D01*
X133889502Y-112655820D01*
X133830537Y-112545506D01*
X133751185Y-112448815D01*
X133654494Y-112369463D01*
X133544180Y-112310498D01*
X133435000Y-112277379D01*
X133435000Y-111385000D01*
X135158442Y-111385000D01*
X135182958Y-111421691D01*
G37*
%TD.AperFunction*%
%TD*%
M02*
