%TF.GenerationSoftware,KiCad,Pcbnew,5.1.9+dfsg1-1~bpo10+1*%
%TF.CreationDate,2021-09-26T17:43:23+00:00*%
%TF.ProjectId,ws2813-breakout,77733238-3133-42d6-9272-65616b6f7574,rev?*%
%TF.SameCoordinates,Original*%
%TF.FileFunction,Paste,Top*%
%TF.FilePolarity,Positive*%
%FSLAX46Y46*%
G04 Gerber Fmt 4.6, Leading zero omitted, Abs format (unit mm)*
G04 Created by KiCad (PCBNEW 5.1.9+dfsg1-1~bpo10+1) date 2021-09-26 17:43:23*
%MOMM*%
%LPD*%
G01*
G04 APERTURE LIST*
%ADD10R,1.500000X1.000000*%
G04 APERTURE END LIST*
%TO.C,C101*%
G36*
G01*
X109200000Y-110670000D02*
X109200000Y-110330000D01*
G75*
G02*
X109340000Y-110190000I140000J0D01*
G01*
X109620000Y-110190000D01*
G75*
G02*
X109760000Y-110330000I0J-140000D01*
G01*
X109760000Y-110670000D01*
G75*
G02*
X109620000Y-110810000I-140000J0D01*
G01*
X109340000Y-110810000D01*
G75*
G02*
X109200000Y-110670000I0J140000D01*
G01*
G37*
G36*
G01*
X108240000Y-110670000D02*
X108240000Y-110330000D01*
G75*
G02*
X108380000Y-110190000I140000J0D01*
G01*
X108660000Y-110190000D01*
G75*
G02*
X108800000Y-110330000I0J-140000D01*
G01*
X108800000Y-110670000D01*
G75*
G02*
X108660000Y-110810000I-140000J0D01*
G01*
X108380000Y-110810000D01*
G75*
G02*
X108240000Y-110670000I0J140000D01*
G01*
G37*
%TD*%
%TO.C,C102*%
G36*
G01*
X128240000Y-110670000D02*
X128240000Y-110330000D01*
G75*
G02*
X128380000Y-110190000I140000J0D01*
G01*
X128660000Y-110190000D01*
G75*
G02*
X128800000Y-110330000I0J-140000D01*
G01*
X128800000Y-110670000D01*
G75*
G02*
X128660000Y-110810000I-140000J0D01*
G01*
X128380000Y-110810000D01*
G75*
G02*
X128240000Y-110670000I0J140000D01*
G01*
G37*
G36*
G01*
X129200000Y-110670000D02*
X129200000Y-110330000D01*
G75*
G02*
X129340000Y-110190000I140000J0D01*
G01*
X129620000Y-110190000D01*
G75*
G02*
X129760000Y-110330000I0J-140000D01*
G01*
X129760000Y-110670000D01*
G75*
G02*
X129620000Y-110810000I-140000J0D01*
G01*
X129340000Y-110810000D01*
G75*
G02*
X129200000Y-110670000I0J140000D01*
G01*
G37*
%TD*%
%TO.C,C103*%
G36*
G01*
X108240000Y-130670000D02*
X108240000Y-130330000D01*
G75*
G02*
X108380000Y-130190000I140000J0D01*
G01*
X108660000Y-130190000D01*
G75*
G02*
X108800000Y-130330000I0J-140000D01*
G01*
X108800000Y-130670000D01*
G75*
G02*
X108660000Y-130810000I-140000J0D01*
G01*
X108380000Y-130810000D01*
G75*
G02*
X108240000Y-130670000I0J140000D01*
G01*
G37*
G36*
G01*
X109200000Y-130670000D02*
X109200000Y-130330000D01*
G75*
G02*
X109340000Y-130190000I140000J0D01*
G01*
X109620000Y-130190000D01*
G75*
G02*
X109760000Y-130330000I0J-140000D01*
G01*
X109760000Y-130670000D01*
G75*
G02*
X109620000Y-130810000I-140000J0D01*
G01*
X109340000Y-130810000D01*
G75*
G02*
X109200000Y-130670000I0J140000D01*
G01*
G37*
%TD*%
%TO.C,C104*%
G36*
G01*
X129200000Y-130670000D02*
X129200000Y-130330000D01*
G75*
G02*
X129340000Y-130190000I140000J0D01*
G01*
X129620000Y-130190000D01*
G75*
G02*
X129760000Y-130330000I0J-140000D01*
G01*
X129760000Y-130670000D01*
G75*
G02*
X129620000Y-130810000I-140000J0D01*
G01*
X129340000Y-130810000D01*
G75*
G02*
X129200000Y-130670000I0J140000D01*
G01*
G37*
G36*
G01*
X128240000Y-130670000D02*
X128240000Y-130330000D01*
G75*
G02*
X128380000Y-130190000I140000J0D01*
G01*
X128660000Y-130190000D01*
G75*
G02*
X128800000Y-130330000I0J-140000D01*
G01*
X128800000Y-130670000D01*
G75*
G02*
X128660000Y-130810000I-140000J0D01*
G01*
X128380000Y-130810000D01*
G75*
G02*
X128240000Y-130670000I0J140000D01*
G01*
G37*
%TD*%
D10*
%TO.C,D101*%
X112550000Y-113400000D03*
X112550000Y-115000000D03*
X112550000Y-116600000D03*
X117450000Y-113400000D03*
X117450000Y-115000000D03*
X117450000Y-116600000D03*
%TD*%
%TO.C,D102*%
X137450000Y-116600000D03*
X137450000Y-115000000D03*
X137450000Y-113400000D03*
X132550000Y-116600000D03*
X132550000Y-115000000D03*
X132550000Y-113400000D03*
%TD*%
%TO.C,D103*%
X112550000Y-133400000D03*
X112550000Y-135000000D03*
X112550000Y-136600000D03*
X117450000Y-133400000D03*
X117450000Y-135000000D03*
X117450000Y-136600000D03*
%TD*%
%TO.C,D104*%
X137450000Y-136600000D03*
X137450000Y-135000000D03*
X137450000Y-133400000D03*
X132550000Y-136600000D03*
X132550000Y-135000000D03*
X132550000Y-133400000D03*
%TD*%
%TO.C,R101*%
G36*
G01*
X110935000Y-112760000D02*
X110565000Y-112760000D01*
G75*
G02*
X110430000Y-112625000I0J135000D01*
G01*
X110430000Y-112355000D01*
G75*
G02*
X110565000Y-112220000I135000J0D01*
G01*
X110935000Y-112220000D01*
G75*
G02*
X111070000Y-112355000I0J-135000D01*
G01*
X111070000Y-112625000D01*
G75*
G02*
X110935000Y-112760000I-135000J0D01*
G01*
G37*
G36*
G01*
X110935000Y-113780000D02*
X110565000Y-113780000D01*
G75*
G02*
X110430000Y-113645000I0J135000D01*
G01*
X110430000Y-113375000D01*
G75*
G02*
X110565000Y-113240000I135000J0D01*
G01*
X110935000Y-113240000D01*
G75*
G02*
X111070000Y-113375000I0J-135000D01*
G01*
X111070000Y-113645000D01*
G75*
G02*
X110935000Y-113780000I-135000J0D01*
G01*
G37*
%TD*%
%TO.C,R102*%
G36*
G01*
X130935000Y-112760000D02*
X130565000Y-112760000D01*
G75*
G02*
X130430000Y-112625000I0J135000D01*
G01*
X130430000Y-112355000D01*
G75*
G02*
X130565000Y-112220000I135000J0D01*
G01*
X130935000Y-112220000D01*
G75*
G02*
X131070000Y-112355000I0J-135000D01*
G01*
X131070000Y-112625000D01*
G75*
G02*
X130935000Y-112760000I-135000J0D01*
G01*
G37*
G36*
G01*
X130935000Y-113780000D02*
X130565000Y-113780000D01*
G75*
G02*
X130430000Y-113645000I0J135000D01*
G01*
X130430000Y-113375000D01*
G75*
G02*
X130565000Y-113240000I135000J0D01*
G01*
X130935000Y-113240000D01*
G75*
G02*
X131070000Y-113375000I0J-135000D01*
G01*
X131070000Y-113645000D01*
G75*
G02*
X130935000Y-113780000I-135000J0D01*
G01*
G37*
%TD*%
%TO.C,R103*%
G36*
G01*
X110935000Y-133780000D02*
X110565000Y-133780000D01*
G75*
G02*
X110430000Y-133645000I0J135000D01*
G01*
X110430000Y-133375000D01*
G75*
G02*
X110565000Y-133240000I135000J0D01*
G01*
X110935000Y-133240000D01*
G75*
G02*
X111070000Y-133375000I0J-135000D01*
G01*
X111070000Y-133645000D01*
G75*
G02*
X110935000Y-133780000I-135000J0D01*
G01*
G37*
G36*
G01*
X110935000Y-132760000D02*
X110565000Y-132760000D01*
G75*
G02*
X110430000Y-132625000I0J135000D01*
G01*
X110430000Y-132355000D01*
G75*
G02*
X110565000Y-132220000I135000J0D01*
G01*
X110935000Y-132220000D01*
G75*
G02*
X111070000Y-132355000I0J-135000D01*
G01*
X111070000Y-132625000D01*
G75*
G02*
X110935000Y-132760000I-135000J0D01*
G01*
G37*
%TD*%
%TO.C,R104*%
G36*
G01*
X130935000Y-133780000D02*
X130565000Y-133780000D01*
G75*
G02*
X130430000Y-133645000I0J135000D01*
G01*
X130430000Y-133375000D01*
G75*
G02*
X130565000Y-133240000I135000J0D01*
G01*
X130935000Y-133240000D01*
G75*
G02*
X131070000Y-133375000I0J-135000D01*
G01*
X131070000Y-133645000D01*
G75*
G02*
X130935000Y-133780000I-135000J0D01*
G01*
G37*
G36*
G01*
X130935000Y-132760000D02*
X130565000Y-132760000D01*
G75*
G02*
X130430000Y-132625000I0J135000D01*
G01*
X130430000Y-132355000D01*
G75*
G02*
X130565000Y-132220000I135000J0D01*
G01*
X130935000Y-132220000D01*
G75*
G02*
X131070000Y-132355000I0J-135000D01*
G01*
X131070000Y-132625000D01*
G75*
G02*
X130935000Y-132760000I-135000J0D01*
G01*
G37*
%TD*%
M02*
