%TF.GenerationSoftware,KiCad,Pcbnew,5.1.9+dfsg1-1~bpo10+1*%
%TF.CreationDate,2021-09-26T19:13:55+00:00*%
%TF.ProjectId,ws2813-breakout,77733238-3133-42d6-9272-65616b6f7574,rev?*%
%TF.SameCoordinates,Original*%
%TF.FileFunction,Legend,Top*%
%TF.FilePolarity,Positive*%
%FSLAX46Y46*%
G04 Gerber Fmt 4.6, Leading zero omitted, Abs format (unit mm)*
G04 Created by KiCad (PCBNEW 5.1.9+dfsg1-1~bpo10+1) date 2021-09-26 19:13:55*
%MOMM*%
%LPD*%
G01*
G04 APERTURE LIST*
%ADD10C,0.120000*%
%ADD11C,0.150000*%
G04 APERTURE END LIST*
D10*
%TO.C,C101*%
X108892164Y-110860000D02*
X109107836Y-110860000D01*
X108892164Y-110140000D02*
X109107836Y-110140000D01*
%TO.C,C102*%
X128892164Y-110140000D02*
X129107836Y-110140000D01*
X128892164Y-110860000D02*
X129107836Y-110860000D01*
%TO.C,C103*%
X108892164Y-130140000D02*
X109107836Y-130140000D01*
X108892164Y-130860000D02*
X109107836Y-130860000D01*
%TO.C,C104*%
X128892164Y-130860000D02*
X129107836Y-130860000D01*
X128892164Y-130140000D02*
X129107836Y-130140000D01*
%TO.C,D101*%
X111350000Y-112250000D02*
X118650000Y-112250000D01*
X111350000Y-113400000D02*
X111350000Y-112250000D01*
X111350000Y-117750000D02*
X118650000Y-117750000D01*
%TO.C,D102*%
X131350000Y-117750000D02*
X138650000Y-117750000D01*
X131350000Y-113400000D02*
X131350000Y-112250000D01*
X131350000Y-112250000D02*
X138650000Y-112250000D01*
%TO.C,D103*%
X111350000Y-132250000D02*
X118650000Y-132250000D01*
X111350000Y-133400000D02*
X111350000Y-132250000D01*
X111350000Y-137750000D02*
X118650000Y-137750000D01*
%TO.C,D104*%
X131350000Y-137750000D02*
X138650000Y-137750000D01*
X131350000Y-133400000D02*
X131350000Y-132250000D01*
X131350000Y-132250000D02*
X138650000Y-132250000D01*
%TO.C,J101*%
X104170000Y-134030000D02*
X106830000Y-134030000D01*
X104170000Y-121270000D02*
X104170000Y-134030000D01*
X106830000Y-121270000D02*
X106830000Y-134030000D01*
X104170000Y-121270000D02*
X106830000Y-121270000D01*
X104170000Y-120000000D02*
X104170000Y-118670000D01*
X104170000Y-118670000D02*
X105500000Y-118670000D01*
%TO.C,JP101*%
X111050000Y-109500000D02*
X112450000Y-109500000D01*
X113150000Y-110200000D02*
X113150000Y-110800000D01*
X112450000Y-111500000D02*
X111050000Y-111500000D01*
X110350000Y-110800000D02*
X110350000Y-110200000D01*
X110350000Y-110200000D02*
G75*
G02*
X111050000Y-109500000I700000J0D01*
G01*
X111050000Y-111500000D02*
G75*
G02*
X110350000Y-110800000I0J700000D01*
G01*
X113150000Y-110800000D02*
G75*
G02*
X112450000Y-111500000I-700000J0D01*
G01*
X112450000Y-109500000D02*
G75*
G02*
X113150000Y-110200000I0J-700000D01*
G01*
%TO.C,JP102*%
X130350000Y-110800000D02*
X130350000Y-110200000D01*
X132450000Y-111500000D02*
X131050000Y-111500000D01*
X133150000Y-110200000D02*
X133150000Y-110800000D01*
X131050000Y-109500000D02*
X132450000Y-109500000D01*
X132450000Y-109500000D02*
G75*
G02*
X133150000Y-110200000I0J-700000D01*
G01*
X133150000Y-110800000D02*
G75*
G02*
X132450000Y-111500000I-700000J0D01*
G01*
X131050000Y-111500000D02*
G75*
G02*
X130350000Y-110800000I0J700000D01*
G01*
X130350000Y-110200000D02*
G75*
G02*
X131050000Y-109500000I700000J0D01*
G01*
%TO.C,JP103*%
X111050000Y-129500000D02*
X112450000Y-129500000D01*
X113150000Y-130200000D02*
X113150000Y-130800000D01*
X112450000Y-131500000D02*
X111050000Y-131500000D01*
X110350000Y-130800000D02*
X110350000Y-130200000D01*
X110350000Y-130200000D02*
G75*
G02*
X111050000Y-129500000I700000J0D01*
G01*
X111050000Y-131500000D02*
G75*
G02*
X110350000Y-130800000I0J700000D01*
G01*
X113150000Y-130800000D02*
G75*
G02*
X112450000Y-131500000I-700000J0D01*
G01*
X112450000Y-129500000D02*
G75*
G02*
X113150000Y-130200000I0J-700000D01*
G01*
%TO.C,JP104*%
X130350000Y-130800000D02*
X130350000Y-130200000D01*
X132450000Y-131500000D02*
X131050000Y-131500000D01*
X133150000Y-130200000D02*
X133150000Y-130800000D01*
X131050000Y-129500000D02*
X132450000Y-129500000D01*
X132450000Y-129500000D02*
G75*
G02*
X133150000Y-130200000I0J-700000D01*
G01*
X133150000Y-130800000D02*
G75*
G02*
X132450000Y-131500000I-700000J0D01*
G01*
X131050000Y-131500000D02*
G75*
G02*
X130350000Y-130800000I0J700000D01*
G01*
X130350000Y-130200000D02*
G75*
G02*
X131050000Y-129500000I700000J0D01*
G01*
%TO.C,JP105*%
X116050000Y-109500000D02*
X117450000Y-109500000D01*
X118150000Y-110200000D02*
X118150000Y-110800000D01*
X117450000Y-111500000D02*
X116050000Y-111500000D01*
X115350000Y-110800000D02*
X115350000Y-110200000D01*
X115350000Y-110200000D02*
G75*
G02*
X116050000Y-109500000I700000J0D01*
G01*
X116050000Y-111500000D02*
G75*
G02*
X115350000Y-110800000I0J700000D01*
G01*
X118150000Y-110800000D02*
G75*
G02*
X117450000Y-111500000I-700000J0D01*
G01*
X117450000Y-109500000D02*
G75*
G02*
X118150000Y-110200000I0J-700000D01*
G01*
%TO.C,JP106*%
X135350000Y-110800000D02*
X135350000Y-110200000D01*
X137450000Y-111500000D02*
X136050000Y-111500000D01*
X138150000Y-110200000D02*
X138150000Y-110800000D01*
X136050000Y-109500000D02*
X137450000Y-109500000D01*
X137450000Y-109500000D02*
G75*
G02*
X138150000Y-110200000I0J-700000D01*
G01*
X138150000Y-110800000D02*
G75*
G02*
X137450000Y-111500000I-700000J0D01*
G01*
X136050000Y-111500000D02*
G75*
G02*
X135350000Y-110800000I0J700000D01*
G01*
X135350000Y-110200000D02*
G75*
G02*
X136050000Y-109500000I700000J0D01*
G01*
%TO.C,JP107*%
X116050000Y-129500000D02*
X117450000Y-129500000D01*
X118150000Y-130200000D02*
X118150000Y-130800000D01*
X117450000Y-131500000D02*
X116050000Y-131500000D01*
X115350000Y-130800000D02*
X115350000Y-130200000D01*
X115350000Y-130200000D02*
G75*
G02*
X116050000Y-129500000I700000J0D01*
G01*
X116050000Y-131500000D02*
G75*
G02*
X115350000Y-130800000I0J700000D01*
G01*
X118150000Y-130800000D02*
G75*
G02*
X117450000Y-131500000I-700000J0D01*
G01*
X117450000Y-129500000D02*
G75*
G02*
X118150000Y-130200000I0J-700000D01*
G01*
%TO.C,JP108*%
X135350000Y-130800000D02*
X135350000Y-130200000D01*
X137450000Y-131500000D02*
X136050000Y-131500000D01*
X138150000Y-130200000D02*
X138150000Y-130800000D01*
X136050000Y-129500000D02*
X137450000Y-129500000D01*
X137450000Y-129500000D02*
G75*
G02*
X138150000Y-130200000I0J-700000D01*
G01*
X138150000Y-130800000D02*
G75*
G02*
X137450000Y-131500000I-700000J0D01*
G01*
X136050000Y-131500000D02*
G75*
G02*
X135350000Y-130800000I0J700000D01*
G01*
X135350000Y-130200000D02*
G75*
G02*
X136050000Y-129500000I700000J0D01*
G01*
%TO.C,JP109*%
X121000000Y-112050000D02*
X121000000Y-113450000D01*
X120300000Y-114150000D02*
X119700000Y-114150000D01*
X119000000Y-113450000D02*
X119000000Y-112050000D01*
X119700000Y-111350000D02*
X120300000Y-111350000D01*
X120300000Y-111350000D02*
G75*
G02*
X121000000Y-112050000I0J-700000D01*
G01*
X119000000Y-112050000D02*
G75*
G02*
X119700000Y-111350000I700000J0D01*
G01*
X119700000Y-114150000D02*
G75*
G02*
X119000000Y-113450000I0J700000D01*
G01*
X121000000Y-113450000D02*
G75*
G02*
X120300000Y-114150000I-700000J0D01*
G01*
%TO.C,JP110*%
X139700000Y-111350000D02*
X140300000Y-111350000D01*
X139000000Y-113450000D02*
X139000000Y-112050000D01*
X140300000Y-114150000D02*
X139700000Y-114150000D01*
X141000000Y-112050000D02*
X141000000Y-113450000D01*
X141000000Y-113450000D02*
G75*
G02*
X140300000Y-114150000I-700000J0D01*
G01*
X139700000Y-114150000D02*
G75*
G02*
X139000000Y-113450000I0J700000D01*
G01*
X139000000Y-112050000D02*
G75*
G02*
X139700000Y-111350000I700000J0D01*
G01*
X140300000Y-111350000D02*
G75*
G02*
X141000000Y-112050000I0J-700000D01*
G01*
%TO.C,JP111*%
X121000000Y-132050000D02*
X121000000Y-133450000D01*
X120300000Y-134150000D02*
X119700000Y-134150000D01*
X119000000Y-133450000D02*
X119000000Y-132050000D01*
X119700000Y-131350000D02*
X120300000Y-131350000D01*
X120300000Y-131350000D02*
G75*
G02*
X121000000Y-132050000I0J-700000D01*
G01*
X119000000Y-132050000D02*
G75*
G02*
X119700000Y-131350000I700000J0D01*
G01*
X119700000Y-134150000D02*
G75*
G02*
X119000000Y-133450000I0J700000D01*
G01*
X121000000Y-133450000D02*
G75*
G02*
X120300000Y-134150000I-700000J0D01*
G01*
%TO.C,JP112*%
X139700000Y-131350000D02*
X140300000Y-131350000D01*
X139000000Y-133450000D02*
X139000000Y-132050000D01*
X140300000Y-134150000D02*
X139700000Y-134150000D01*
X141000000Y-132050000D02*
X141000000Y-133450000D01*
X141000000Y-133450000D02*
G75*
G02*
X140300000Y-134150000I-700000J0D01*
G01*
X139700000Y-134150000D02*
G75*
G02*
X139000000Y-133450000I0J700000D01*
G01*
X139000000Y-132050000D02*
G75*
G02*
X139700000Y-131350000I700000J0D01*
G01*
X140300000Y-131350000D02*
G75*
G02*
X141000000Y-132050000I0J-700000D01*
G01*
%TO.C,R101*%
X111130000Y-113153641D02*
X111130000Y-112846359D01*
X110370000Y-113153641D02*
X110370000Y-112846359D01*
%TO.C,R102*%
X131130000Y-113153641D02*
X131130000Y-112846359D01*
X130370000Y-113153641D02*
X130370000Y-112846359D01*
%TO.C,R103*%
X110370000Y-133153641D02*
X110370000Y-132846359D01*
X111130000Y-133153641D02*
X111130000Y-132846359D01*
%TO.C,R104*%
X130370000Y-133153641D02*
X130370000Y-132846359D01*
X131130000Y-133153641D02*
X131130000Y-132846359D01*
%TD*%
%TO.C,C101*%
D11*
X104880952Y-110857142D02*
X104833333Y-110904761D01*
X104690476Y-110952380D01*
X104595238Y-110952380D01*
X104452380Y-110904761D01*
X104357142Y-110809523D01*
X104309523Y-110714285D01*
X104261904Y-110523809D01*
X104261904Y-110380952D01*
X104309523Y-110190476D01*
X104357142Y-110095238D01*
X104452380Y-110000000D01*
X104595238Y-109952380D01*
X104690476Y-109952380D01*
X104833333Y-110000000D01*
X104880952Y-110047619D01*
X105833333Y-110952380D02*
X105261904Y-110952380D01*
X105547619Y-110952380D02*
X105547619Y-109952380D01*
X105452380Y-110095238D01*
X105357142Y-110190476D01*
X105261904Y-110238095D01*
X106452380Y-109952380D02*
X106547619Y-109952380D01*
X106642857Y-110000000D01*
X106690476Y-110047619D01*
X106738095Y-110142857D01*
X106785714Y-110333333D01*
X106785714Y-110571428D01*
X106738095Y-110761904D01*
X106690476Y-110857142D01*
X106642857Y-110904761D01*
X106547619Y-110952380D01*
X106452380Y-110952380D01*
X106357142Y-110904761D01*
X106309523Y-110857142D01*
X106261904Y-110761904D01*
X106214285Y-110571428D01*
X106214285Y-110333333D01*
X106261904Y-110142857D01*
X106309523Y-110047619D01*
X106357142Y-110000000D01*
X106452380Y-109952380D01*
X107738095Y-110952380D02*
X107166666Y-110952380D01*
X107452380Y-110952380D02*
X107452380Y-109952380D01*
X107357142Y-110095238D01*
X107261904Y-110190476D01*
X107166666Y-110238095D01*
%TO.C,C102*%
X124880952Y-110857142D02*
X124833333Y-110904761D01*
X124690476Y-110952380D01*
X124595238Y-110952380D01*
X124452380Y-110904761D01*
X124357142Y-110809523D01*
X124309523Y-110714285D01*
X124261904Y-110523809D01*
X124261904Y-110380952D01*
X124309523Y-110190476D01*
X124357142Y-110095238D01*
X124452380Y-110000000D01*
X124595238Y-109952380D01*
X124690476Y-109952380D01*
X124833333Y-110000000D01*
X124880952Y-110047619D01*
X125833333Y-110952380D02*
X125261904Y-110952380D01*
X125547619Y-110952380D02*
X125547619Y-109952380D01*
X125452380Y-110095238D01*
X125357142Y-110190476D01*
X125261904Y-110238095D01*
X126452380Y-109952380D02*
X126547619Y-109952380D01*
X126642857Y-110000000D01*
X126690476Y-110047619D01*
X126738095Y-110142857D01*
X126785714Y-110333333D01*
X126785714Y-110571428D01*
X126738095Y-110761904D01*
X126690476Y-110857142D01*
X126642857Y-110904761D01*
X126547619Y-110952380D01*
X126452380Y-110952380D01*
X126357142Y-110904761D01*
X126309523Y-110857142D01*
X126261904Y-110761904D01*
X126214285Y-110571428D01*
X126214285Y-110333333D01*
X126261904Y-110142857D01*
X126309523Y-110047619D01*
X126357142Y-110000000D01*
X126452380Y-109952380D01*
X127166666Y-110047619D02*
X127214285Y-110000000D01*
X127309523Y-109952380D01*
X127547619Y-109952380D01*
X127642857Y-110000000D01*
X127690476Y-110047619D01*
X127738095Y-110142857D01*
X127738095Y-110238095D01*
X127690476Y-110380952D01*
X127119047Y-110952380D01*
X127738095Y-110952380D01*
%TO.C,C103*%
X108857142Y-129119047D02*
X108904761Y-129166666D01*
X108952380Y-129309523D01*
X108952380Y-129404761D01*
X108904761Y-129547619D01*
X108809523Y-129642857D01*
X108714285Y-129690476D01*
X108523809Y-129738095D01*
X108380952Y-129738095D01*
X108190476Y-129690476D01*
X108095238Y-129642857D01*
X108000000Y-129547619D01*
X107952380Y-129404761D01*
X107952380Y-129309523D01*
X108000000Y-129166666D01*
X108047619Y-129119047D01*
X108952380Y-128166666D02*
X108952380Y-128738095D01*
X108952380Y-128452380D02*
X107952380Y-128452380D01*
X108095238Y-128547619D01*
X108190476Y-128642857D01*
X108238095Y-128738095D01*
X107952380Y-127547619D02*
X107952380Y-127452380D01*
X108000000Y-127357142D01*
X108047619Y-127309523D01*
X108142857Y-127261904D01*
X108333333Y-127214285D01*
X108571428Y-127214285D01*
X108761904Y-127261904D01*
X108857142Y-127309523D01*
X108904761Y-127357142D01*
X108952380Y-127452380D01*
X108952380Y-127547619D01*
X108904761Y-127642857D01*
X108857142Y-127690476D01*
X108761904Y-127738095D01*
X108571428Y-127785714D01*
X108333333Y-127785714D01*
X108142857Y-127738095D01*
X108047619Y-127690476D01*
X108000000Y-127642857D01*
X107952380Y-127547619D01*
X107952380Y-126880952D02*
X107952380Y-126261904D01*
X108333333Y-126595238D01*
X108333333Y-126452380D01*
X108380952Y-126357142D01*
X108428571Y-126309523D01*
X108523809Y-126261904D01*
X108761904Y-126261904D01*
X108857142Y-126309523D01*
X108904761Y-126357142D01*
X108952380Y-126452380D01*
X108952380Y-126738095D01*
X108904761Y-126833333D01*
X108857142Y-126880952D01*
%TO.C,C104*%
X124880952Y-130857142D02*
X124833333Y-130904761D01*
X124690476Y-130952380D01*
X124595238Y-130952380D01*
X124452380Y-130904761D01*
X124357142Y-130809523D01*
X124309523Y-130714285D01*
X124261904Y-130523809D01*
X124261904Y-130380952D01*
X124309523Y-130190476D01*
X124357142Y-130095238D01*
X124452380Y-130000000D01*
X124595238Y-129952380D01*
X124690476Y-129952380D01*
X124833333Y-130000000D01*
X124880952Y-130047619D01*
X125833333Y-130952380D02*
X125261904Y-130952380D01*
X125547619Y-130952380D02*
X125547619Y-129952380D01*
X125452380Y-130095238D01*
X125357142Y-130190476D01*
X125261904Y-130238095D01*
X126452380Y-129952380D02*
X126547619Y-129952380D01*
X126642857Y-130000000D01*
X126690476Y-130047619D01*
X126738095Y-130142857D01*
X126785714Y-130333333D01*
X126785714Y-130571428D01*
X126738095Y-130761904D01*
X126690476Y-130857142D01*
X126642857Y-130904761D01*
X126547619Y-130952380D01*
X126452380Y-130952380D01*
X126357142Y-130904761D01*
X126309523Y-130857142D01*
X126261904Y-130761904D01*
X126214285Y-130571428D01*
X126214285Y-130333333D01*
X126261904Y-130142857D01*
X126309523Y-130047619D01*
X126357142Y-130000000D01*
X126452380Y-129952380D01*
X127642857Y-130285714D02*
X127642857Y-130952380D01*
X127404761Y-129904761D02*
X127166666Y-130619047D01*
X127785714Y-130619047D01*
%TO.C,D101*%
X113309523Y-118952380D02*
X113309523Y-117952380D01*
X113547619Y-117952380D01*
X113690476Y-118000000D01*
X113785714Y-118095238D01*
X113833333Y-118190476D01*
X113880952Y-118380952D01*
X113880952Y-118523809D01*
X113833333Y-118714285D01*
X113785714Y-118809523D01*
X113690476Y-118904761D01*
X113547619Y-118952380D01*
X113309523Y-118952380D01*
X114833333Y-118952380D02*
X114261904Y-118952380D01*
X114547619Y-118952380D02*
X114547619Y-117952380D01*
X114452380Y-118095238D01*
X114357142Y-118190476D01*
X114261904Y-118238095D01*
X115452380Y-117952380D02*
X115547619Y-117952380D01*
X115642857Y-118000000D01*
X115690476Y-118047619D01*
X115738095Y-118142857D01*
X115785714Y-118333333D01*
X115785714Y-118571428D01*
X115738095Y-118761904D01*
X115690476Y-118857142D01*
X115642857Y-118904761D01*
X115547619Y-118952380D01*
X115452380Y-118952380D01*
X115357142Y-118904761D01*
X115309523Y-118857142D01*
X115261904Y-118761904D01*
X115214285Y-118571428D01*
X115214285Y-118333333D01*
X115261904Y-118142857D01*
X115309523Y-118047619D01*
X115357142Y-118000000D01*
X115452380Y-117952380D01*
X116738095Y-118952380D02*
X116166666Y-118952380D01*
X116452380Y-118952380D02*
X116452380Y-117952380D01*
X116357142Y-118095238D01*
X116261904Y-118190476D01*
X116166666Y-118238095D01*
%TO.C,D102*%
X133309523Y-118952380D02*
X133309523Y-117952380D01*
X133547619Y-117952380D01*
X133690476Y-118000000D01*
X133785714Y-118095238D01*
X133833333Y-118190476D01*
X133880952Y-118380952D01*
X133880952Y-118523809D01*
X133833333Y-118714285D01*
X133785714Y-118809523D01*
X133690476Y-118904761D01*
X133547619Y-118952380D01*
X133309523Y-118952380D01*
X134833333Y-118952380D02*
X134261904Y-118952380D01*
X134547619Y-118952380D02*
X134547619Y-117952380D01*
X134452380Y-118095238D01*
X134357142Y-118190476D01*
X134261904Y-118238095D01*
X135452380Y-117952380D02*
X135547619Y-117952380D01*
X135642857Y-118000000D01*
X135690476Y-118047619D01*
X135738095Y-118142857D01*
X135785714Y-118333333D01*
X135785714Y-118571428D01*
X135738095Y-118761904D01*
X135690476Y-118857142D01*
X135642857Y-118904761D01*
X135547619Y-118952380D01*
X135452380Y-118952380D01*
X135357142Y-118904761D01*
X135309523Y-118857142D01*
X135261904Y-118761904D01*
X135214285Y-118571428D01*
X135214285Y-118333333D01*
X135261904Y-118142857D01*
X135309523Y-118047619D01*
X135357142Y-118000000D01*
X135452380Y-117952380D01*
X136166666Y-118047619D02*
X136214285Y-118000000D01*
X136309523Y-117952380D01*
X136547619Y-117952380D01*
X136642857Y-118000000D01*
X136690476Y-118047619D01*
X136738095Y-118142857D01*
X136738095Y-118238095D01*
X136690476Y-118380952D01*
X136119047Y-118952380D01*
X136738095Y-118952380D01*
%TO.C,D103*%
X113309523Y-138952380D02*
X113309523Y-137952380D01*
X113547619Y-137952380D01*
X113690476Y-138000000D01*
X113785714Y-138095238D01*
X113833333Y-138190476D01*
X113880952Y-138380952D01*
X113880952Y-138523809D01*
X113833333Y-138714285D01*
X113785714Y-138809523D01*
X113690476Y-138904761D01*
X113547619Y-138952380D01*
X113309523Y-138952380D01*
X114833333Y-138952380D02*
X114261904Y-138952380D01*
X114547619Y-138952380D02*
X114547619Y-137952380D01*
X114452380Y-138095238D01*
X114357142Y-138190476D01*
X114261904Y-138238095D01*
X115452380Y-137952380D02*
X115547619Y-137952380D01*
X115642857Y-138000000D01*
X115690476Y-138047619D01*
X115738095Y-138142857D01*
X115785714Y-138333333D01*
X115785714Y-138571428D01*
X115738095Y-138761904D01*
X115690476Y-138857142D01*
X115642857Y-138904761D01*
X115547619Y-138952380D01*
X115452380Y-138952380D01*
X115357142Y-138904761D01*
X115309523Y-138857142D01*
X115261904Y-138761904D01*
X115214285Y-138571428D01*
X115214285Y-138333333D01*
X115261904Y-138142857D01*
X115309523Y-138047619D01*
X115357142Y-138000000D01*
X115452380Y-137952380D01*
X116119047Y-137952380D02*
X116738095Y-137952380D01*
X116404761Y-138333333D01*
X116547619Y-138333333D01*
X116642857Y-138380952D01*
X116690476Y-138428571D01*
X116738095Y-138523809D01*
X116738095Y-138761904D01*
X116690476Y-138857142D01*
X116642857Y-138904761D01*
X116547619Y-138952380D01*
X116261904Y-138952380D01*
X116166666Y-138904761D01*
X116119047Y-138857142D01*
%TO.C,D104*%
X133309523Y-138952380D02*
X133309523Y-137952380D01*
X133547619Y-137952380D01*
X133690476Y-138000000D01*
X133785714Y-138095238D01*
X133833333Y-138190476D01*
X133880952Y-138380952D01*
X133880952Y-138523809D01*
X133833333Y-138714285D01*
X133785714Y-138809523D01*
X133690476Y-138904761D01*
X133547619Y-138952380D01*
X133309523Y-138952380D01*
X134833333Y-138952380D02*
X134261904Y-138952380D01*
X134547619Y-138952380D02*
X134547619Y-137952380D01*
X134452380Y-138095238D01*
X134357142Y-138190476D01*
X134261904Y-138238095D01*
X135452380Y-137952380D02*
X135547619Y-137952380D01*
X135642857Y-138000000D01*
X135690476Y-138047619D01*
X135738095Y-138142857D01*
X135785714Y-138333333D01*
X135785714Y-138571428D01*
X135738095Y-138761904D01*
X135690476Y-138857142D01*
X135642857Y-138904761D01*
X135547619Y-138952380D01*
X135452380Y-138952380D01*
X135357142Y-138904761D01*
X135309523Y-138857142D01*
X135261904Y-138761904D01*
X135214285Y-138571428D01*
X135214285Y-138333333D01*
X135261904Y-138142857D01*
X135309523Y-138047619D01*
X135357142Y-138000000D01*
X135452380Y-137952380D01*
X136642857Y-138285714D02*
X136642857Y-138952380D01*
X136404761Y-137904761D02*
X136166666Y-138619047D01*
X136785714Y-138619047D01*
%TO.C,J101*%
X104214285Y-116952380D02*
X104214285Y-117666666D01*
X104166666Y-117809523D01*
X104071428Y-117904761D01*
X103928571Y-117952380D01*
X103833333Y-117952380D01*
X105214285Y-117952380D02*
X104642857Y-117952380D01*
X104928571Y-117952380D02*
X104928571Y-116952380D01*
X104833333Y-117095238D01*
X104738095Y-117190476D01*
X104642857Y-117238095D01*
X105833333Y-116952380D02*
X105928571Y-116952380D01*
X106023809Y-117000000D01*
X106071428Y-117047619D01*
X106119047Y-117142857D01*
X106166666Y-117333333D01*
X106166666Y-117571428D01*
X106119047Y-117761904D01*
X106071428Y-117857142D01*
X106023809Y-117904761D01*
X105928571Y-117952380D01*
X105833333Y-117952380D01*
X105738095Y-117904761D01*
X105690476Y-117857142D01*
X105642857Y-117761904D01*
X105595238Y-117571428D01*
X105595238Y-117333333D01*
X105642857Y-117142857D01*
X105690476Y-117047619D01*
X105738095Y-117000000D01*
X105833333Y-116952380D01*
X107119047Y-117952380D02*
X106547619Y-117952380D01*
X106833333Y-117952380D02*
X106833333Y-116952380D01*
X106738095Y-117095238D01*
X106642857Y-117190476D01*
X106547619Y-117238095D01*
%TO.C,JP101*%
X109964285Y-107952380D02*
X109964285Y-108666666D01*
X109916666Y-108809523D01*
X109821428Y-108904761D01*
X109678571Y-108952380D01*
X109583333Y-108952380D01*
X110440476Y-108952380D02*
X110440476Y-107952380D01*
X110821428Y-107952380D01*
X110916666Y-108000000D01*
X110964285Y-108047619D01*
X111011904Y-108142857D01*
X111011904Y-108285714D01*
X110964285Y-108380952D01*
X110916666Y-108428571D01*
X110821428Y-108476190D01*
X110440476Y-108476190D01*
X111964285Y-108952380D02*
X111392857Y-108952380D01*
X111678571Y-108952380D02*
X111678571Y-107952380D01*
X111583333Y-108095238D01*
X111488095Y-108190476D01*
X111392857Y-108238095D01*
X112583333Y-107952380D02*
X112678571Y-107952380D01*
X112773809Y-108000000D01*
X112821428Y-108047619D01*
X112869047Y-108142857D01*
X112916666Y-108333333D01*
X112916666Y-108571428D01*
X112869047Y-108761904D01*
X112821428Y-108857142D01*
X112773809Y-108904761D01*
X112678571Y-108952380D01*
X112583333Y-108952380D01*
X112488095Y-108904761D01*
X112440476Y-108857142D01*
X112392857Y-108761904D01*
X112345238Y-108571428D01*
X112345238Y-108333333D01*
X112392857Y-108142857D01*
X112440476Y-108047619D01*
X112488095Y-108000000D01*
X112583333Y-107952380D01*
X113869047Y-108952380D02*
X113297619Y-108952380D01*
X113583333Y-108952380D02*
X113583333Y-107952380D01*
X113488095Y-108095238D01*
X113392857Y-108190476D01*
X113297619Y-108238095D01*
%TO.C,JP102*%
X129964285Y-107952380D02*
X129964285Y-108666666D01*
X129916666Y-108809523D01*
X129821428Y-108904761D01*
X129678571Y-108952380D01*
X129583333Y-108952380D01*
X130440476Y-108952380D02*
X130440476Y-107952380D01*
X130821428Y-107952380D01*
X130916666Y-108000000D01*
X130964285Y-108047619D01*
X131011904Y-108142857D01*
X131011904Y-108285714D01*
X130964285Y-108380952D01*
X130916666Y-108428571D01*
X130821428Y-108476190D01*
X130440476Y-108476190D01*
X131964285Y-108952380D02*
X131392857Y-108952380D01*
X131678571Y-108952380D02*
X131678571Y-107952380D01*
X131583333Y-108095238D01*
X131488095Y-108190476D01*
X131392857Y-108238095D01*
X132583333Y-107952380D02*
X132678571Y-107952380D01*
X132773809Y-108000000D01*
X132821428Y-108047619D01*
X132869047Y-108142857D01*
X132916666Y-108333333D01*
X132916666Y-108571428D01*
X132869047Y-108761904D01*
X132821428Y-108857142D01*
X132773809Y-108904761D01*
X132678571Y-108952380D01*
X132583333Y-108952380D01*
X132488095Y-108904761D01*
X132440476Y-108857142D01*
X132392857Y-108761904D01*
X132345238Y-108571428D01*
X132345238Y-108333333D01*
X132392857Y-108142857D01*
X132440476Y-108047619D01*
X132488095Y-108000000D01*
X132583333Y-107952380D01*
X133297619Y-108047619D02*
X133345238Y-108000000D01*
X133440476Y-107952380D01*
X133678571Y-107952380D01*
X133773809Y-108000000D01*
X133821428Y-108047619D01*
X133869047Y-108142857D01*
X133869047Y-108238095D01*
X133821428Y-108380952D01*
X133250000Y-108952380D01*
X133869047Y-108952380D01*
%TO.C,JP103*%
X109964285Y-127952380D02*
X109964285Y-128666666D01*
X109916666Y-128809523D01*
X109821428Y-128904761D01*
X109678571Y-128952380D01*
X109583333Y-128952380D01*
X110440476Y-128952380D02*
X110440476Y-127952380D01*
X110821428Y-127952380D01*
X110916666Y-128000000D01*
X110964285Y-128047619D01*
X111011904Y-128142857D01*
X111011904Y-128285714D01*
X110964285Y-128380952D01*
X110916666Y-128428571D01*
X110821428Y-128476190D01*
X110440476Y-128476190D01*
X111964285Y-128952380D02*
X111392857Y-128952380D01*
X111678571Y-128952380D02*
X111678571Y-127952380D01*
X111583333Y-128095238D01*
X111488095Y-128190476D01*
X111392857Y-128238095D01*
X112583333Y-127952380D02*
X112678571Y-127952380D01*
X112773809Y-128000000D01*
X112821428Y-128047619D01*
X112869047Y-128142857D01*
X112916666Y-128333333D01*
X112916666Y-128571428D01*
X112869047Y-128761904D01*
X112821428Y-128857142D01*
X112773809Y-128904761D01*
X112678571Y-128952380D01*
X112583333Y-128952380D01*
X112488095Y-128904761D01*
X112440476Y-128857142D01*
X112392857Y-128761904D01*
X112345238Y-128571428D01*
X112345238Y-128333333D01*
X112392857Y-128142857D01*
X112440476Y-128047619D01*
X112488095Y-128000000D01*
X112583333Y-127952380D01*
X113250000Y-127952380D02*
X113869047Y-127952380D01*
X113535714Y-128333333D01*
X113678571Y-128333333D01*
X113773809Y-128380952D01*
X113821428Y-128428571D01*
X113869047Y-128523809D01*
X113869047Y-128761904D01*
X113821428Y-128857142D01*
X113773809Y-128904761D01*
X113678571Y-128952380D01*
X113392857Y-128952380D01*
X113297619Y-128904761D01*
X113250000Y-128857142D01*
%TO.C,JP104*%
X129964285Y-127952380D02*
X129964285Y-128666666D01*
X129916666Y-128809523D01*
X129821428Y-128904761D01*
X129678571Y-128952380D01*
X129583333Y-128952380D01*
X130440476Y-128952380D02*
X130440476Y-127952380D01*
X130821428Y-127952380D01*
X130916666Y-128000000D01*
X130964285Y-128047619D01*
X131011904Y-128142857D01*
X131011904Y-128285714D01*
X130964285Y-128380952D01*
X130916666Y-128428571D01*
X130821428Y-128476190D01*
X130440476Y-128476190D01*
X131964285Y-128952380D02*
X131392857Y-128952380D01*
X131678571Y-128952380D02*
X131678571Y-127952380D01*
X131583333Y-128095238D01*
X131488095Y-128190476D01*
X131392857Y-128238095D01*
X132583333Y-127952380D02*
X132678571Y-127952380D01*
X132773809Y-128000000D01*
X132821428Y-128047619D01*
X132869047Y-128142857D01*
X132916666Y-128333333D01*
X132916666Y-128571428D01*
X132869047Y-128761904D01*
X132821428Y-128857142D01*
X132773809Y-128904761D01*
X132678571Y-128952380D01*
X132583333Y-128952380D01*
X132488095Y-128904761D01*
X132440476Y-128857142D01*
X132392857Y-128761904D01*
X132345238Y-128571428D01*
X132345238Y-128333333D01*
X132392857Y-128142857D01*
X132440476Y-128047619D01*
X132488095Y-128000000D01*
X132583333Y-127952380D01*
X133773809Y-128285714D02*
X133773809Y-128952380D01*
X133535714Y-127904761D02*
X133297619Y-128619047D01*
X133916666Y-128619047D01*
%TO.C,JP105*%
X114964285Y-107952380D02*
X114964285Y-108666666D01*
X114916666Y-108809523D01*
X114821428Y-108904761D01*
X114678571Y-108952380D01*
X114583333Y-108952380D01*
X115440476Y-108952380D02*
X115440476Y-107952380D01*
X115821428Y-107952380D01*
X115916666Y-108000000D01*
X115964285Y-108047619D01*
X116011904Y-108142857D01*
X116011904Y-108285714D01*
X115964285Y-108380952D01*
X115916666Y-108428571D01*
X115821428Y-108476190D01*
X115440476Y-108476190D01*
X116964285Y-108952380D02*
X116392857Y-108952380D01*
X116678571Y-108952380D02*
X116678571Y-107952380D01*
X116583333Y-108095238D01*
X116488095Y-108190476D01*
X116392857Y-108238095D01*
X117583333Y-107952380D02*
X117678571Y-107952380D01*
X117773809Y-108000000D01*
X117821428Y-108047619D01*
X117869047Y-108142857D01*
X117916666Y-108333333D01*
X117916666Y-108571428D01*
X117869047Y-108761904D01*
X117821428Y-108857142D01*
X117773809Y-108904761D01*
X117678571Y-108952380D01*
X117583333Y-108952380D01*
X117488095Y-108904761D01*
X117440476Y-108857142D01*
X117392857Y-108761904D01*
X117345238Y-108571428D01*
X117345238Y-108333333D01*
X117392857Y-108142857D01*
X117440476Y-108047619D01*
X117488095Y-108000000D01*
X117583333Y-107952380D01*
X118821428Y-107952380D02*
X118345238Y-107952380D01*
X118297619Y-108428571D01*
X118345238Y-108380952D01*
X118440476Y-108333333D01*
X118678571Y-108333333D01*
X118773809Y-108380952D01*
X118821428Y-108428571D01*
X118869047Y-108523809D01*
X118869047Y-108761904D01*
X118821428Y-108857142D01*
X118773809Y-108904761D01*
X118678571Y-108952380D01*
X118440476Y-108952380D01*
X118345238Y-108904761D01*
X118297619Y-108857142D01*
%TO.C,JP106*%
X134964285Y-107952380D02*
X134964285Y-108666666D01*
X134916666Y-108809523D01*
X134821428Y-108904761D01*
X134678571Y-108952380D01*
X134583333Y-108952380D01*
X135440476Y-108952380D02*
X135440476Y-107952380D01*
X135821428Y-107952380D01*
X135916666Y-108000000D01*
X135964285Y-108047619D01*
X136011904Y-108142857D01*
X136011904Y-108285714D01*
X135964285Y-108380952D01*
X135916666Y-108428571D01*
X135821428Y-108476190D01*
X135440476Y-108476190D01*
X136964285Y-108952380D02*
X136392857Y-108952380D01*
X136678571Y-108952380D02*
X136678571Y-107952380D01*
X136583333Y-108095238D01*
X136488095Y-108190476D01*
X136392857Y-108238095D01*
X137583333Y-107952380D02*
X137678571Y-107952380D01*
X137773809Y-108000000D01*
X137821428Y-108047619D01*
X137869047Y-108142857D01*
X137916666Y-108333333D01*
X137916666Y-108571428D01*
X137869047Y-108761904D01*
X137821428Y-108857142D01*
X137773809Y-108904761D01*
X137678571Y-108952380D01*
X137583333Y-108952380D01*
X137488095Y-108904761D01*
X137440476Y-108857142D01*
X137392857Y-108761904D01*
X137345238Y-108571428D01*
X137345238Y-108333333D01*
X137392857Y-108142857D01*
X137440476Y-108047619D01*
X137488095Y-108000000D01*
X137583333Y-107952380D01*
X138773809Y-107952380D02*
X138583333Y-107952380D01*
X138488095Y-108000000D01*
X138440476Y-108047619D01*
X138345238Y-108190476D01*
X138297619Y-108380952D01*
X138297619Y-108761904D01*
X138345238Y-108857142D01*
X138392857Y-108904761D01*
X138488095Y-108952380D01*
X138678571Y-108952380D01*
X138773809Y-108904761D01*
X138821428Y-108857142D01*
X138869047Y-108761904D01*
X138869047Y-108523809D01*
X138821428Y-108428571D01*
X138773809Y-108380952D01*
X138678571Y-108333333D01*
X138488095Y-108333333D01*
X138392857Y-108380952D01*
X138345238Y-108428571D01*
X138297619Y-108523809D01*
%TO.C,JP107*%
X114964285Y-127952380D02*
X114964285Y-128666666D01*
X114916666Y-128809523D01*
X114821428Y-128904761D01*
X114678571Y-128952380D01*
X114583333Y-128952380D01*
X115440476Y-128952380D02*
X115440476Y-127952380D01*
X115821428Y-127952380D01*
X115916666Y-128000000D01*
X115964285Y-128047619D01*
X116011904Y-128142857D01*
X116011904Y-128285714D01*
X115964285Y-128380952D01*
X115916666Y-128428571D01*
X115821428Y-128476190D01*
X115440476Y-128476190D01*
X116964285Y-128952380D02*
X116392857Y-128952380D01*
X116678571Y-128952380D02*
X116678571Y-127952380D01*
X116583333Y-128095238D01*
X116488095Y-128190476D01*
X116392857Y-128238095D01*
X117583333Y-127952380D02*
X117678571Y-127952380D01*
X117773809Y-128000000D01*
X117821428Y-128047619D01*
X117869047Y-128142857D01*
X117916666Y-128333333D01*
X117916666Y-128571428D01*
X117869047Y-128761904D01*
X117821428Y-128857142D01*
X117773809Y-128904761D01*
X117678571Y-128952380D01*
X117583333Y-128952380D01*
X117488095Y-128904761D01*
X117440476Y-128857142D01*
X117392857Y-128761904D01*
X117345238Y-128571428D01*
X117345238Y-128333333D01*
X117392857Y-128142857D01*
X117440476Y-128047619D01*
X117488095Y-128000000D01*
X117583333Y-127952380D01*
X118250000Y-127952380D02*
X118916666Y-127952380D01*
X118488095Y-128952380D01*
%TO.C,JP108*%
X134964285Y-127952380D02*
X134964285Y-128666666D01*
X134916666Y-128809523D01*
X134821428Y-128904761D01*
X134678571Y-128952380D01*
X134583333Y-128952380D01*
X135440476Y-128952380D02*
X135440476Y-127952380D01*
X135821428Y-127952380D01*
X135916666Y-128000000D01*
X135964285Y-128047619D01*
X136011904Y-128142857D01*
X136011904Y-128285714D01*
X135964285Y-128380952D01*
X135916666Y-128428571D01*
X135821428Y-128476190D01*
X135440476Y-128476190D01*
X136964285Y-128952380D02*
X136392857Y-128952380D01*
X136678571Y-128952380D02*
X136678571Y-127952380D01*
X136583333Y-128095238D01*
X136488095Y-128190476D01*
X136392857Y-128238095D01*
X137583333Y-127952380D02*
X137678571Y-127952380D01*
X137773809Y-128000000D01*
X137821428Y-128047619D01*
X137869047Y-128142857D01*
X137916666Y-128333333D01*
X137916666Y-128571428D01*
X137869047Y-128761904D01*
X137821428Y-128857142D01*
X137773809Y-128904761D01*
X137678571Y-128952380D01*
X137583333Y-128952380D01*
X137488095Y-128904761D01*
X137440476Y-128857142D01*
X137392857Y-128761904D01*
X137345238Y-128571428D01*
X137345238Y-128333333D01*
X137392857Y-128142857D01*
X137440476Y-128047619D01*
X137488095Y-128000000D01*
X137583333Y-127952380D01*
X138488095Y-128380952D02*
X138392857Y-128333333D01*
X138345238Y-128285714D01*
X138297619Y-128190476D01*
X138297619Y-128142857D01*
X138345238Y-128047619D01*
X138392857Y-128000000D01*
X138488095Y-127952380D01*
X138678571Y-127952380D01*
X138773809Y-128000000D01*
X138821428Y-128047619D01*
X138869047Y-128142857D01*
X138869047Y-128190476D01*
X138821428Y-128285714D01*
X138773809Y-128333333D01*
X138678571Y-128380952D01*
X138488095Y-128380952D01*
X138392857Y-128428571D01*
X138345238Y-128476190D01*
X138297619Y-128571428D01*
X138297619Y-128761904D01*
X138345238Y-128857142D01*
X138392857Y-128904761D01*
X138488095Y-128952380D01*
X138678571Y-128952380D01*
X138773809Y-128904761D01*
X138821428Y-128857142D01*
X138869047Y-128761904D01*
X138869047Y-128571428D01*
X138821428Y-128476190D01*
X138773809Y-128428571D01*
X138678571Y-128380952D01*
%TO.C,JP109*%
X121452380Y-114535714D02*
X122166666Y-114535714D01*
X122309523Y-114583333D01*
X122404761Y-114678571D01*
X122452380Y-114821428D01*
X122452380Y-114916666D01*
X122452380Y-114059523D02*
X121452380Y-114059523D01*
X121452380Y-113678571D01*
X121500000Y-113583333D01*
X121547619Y-113535714D01*
X121642857Y-113488095D01*
X121785714Y-113488095D01*
X121880952Y-113535714D01*
X121928571Y-113583333D01*
X121976190Y-113678571D01*
X121976190Y-114059523D01*
X122452380Y-112535714D02*
X122452380Y-113107142D01*
X122452380Y-112821428D02*
X121452380Y-112821428D01*
X121595238Y-112916666D01*
X121690476Y-113011904D01*
X121738095Y-113107142D01*
X121452380Y-111916666D02*
X121452380Y-111821428D01*
X121500000Y-111726190D01*
X121547619Y-111678571D01*
X121642857Y-111630952D01*
X121833333Y-111583333D01*
X122071428Y-111583333D01*
X122261904Y-111630952D01*
X122357142Y-111678571D01*
X122404761Y-111726190D01*
X122452380Y-111821428D01*
X122452380Y-111916666D01*
X122404761Y-112011904D01*
X122357142Y-112059523D01*
X122261904Y-112107142D01*
X122071428Y-112154761D01*
X121833333Y-112154761D01*
X121642857Y-112107142D01*
X121547619Y-112059523D01*
X121500000Y-112011904D01*
X121452380Y-111916666D01*
X122452380Y-111107142D02*
X122452380Y-110916666D01*
X122404761Y-110821428D01*
X122357142Y-110773809D01*
X122214285Y-110678571D01*
X122023809Y-110630952D01*
X121642857Y-110630952D01*
X121547619Y-110678571D01*
X121500000Y-110726190D01*
X121452380Y-110821428D01*
X121452380Y-111011904D01*
X121500000Y-111107142D01*
X121547619Y-111154761D01*
X121642857Y-111202380D01*
X121880952Y-111202380D01*
X121976190Y-111154761D01*
X122023809Y-111107142D01*
X122071428Y-111011904D01*
X122071428Y-110821428D01*
X122023809Y-110726190D01*
X121976190Y-110678571D01*
X121880952Y-110630952D01*
%TO.C,JP110*%
X141452380Y-114535714D02*
X142166666Y-114535714D01*
X142309523Y-114583333D01*
X142404761Y-114678571D01*
X142452380Y-114821428D01*
X142452380Y-114916666D01*
X142452380Y-114059523D02*
X141452380Y-114059523D01*
X141452380Y-113678571D01*
X141500000Y-113583333D01*
X141547619Y-113535714D01*
X141642857Y-113488095D01*
X141785714Y-113488095D01*
X141880952Y-113535714D01*
X141928571Y-113583333D01*
X141976190Y-113678571D01*
X141976190Y-114059523D01*
X142452380Y-112535714D02*
X142452380Y-113107142D01*
X142452380Y-112821428D02*
X141452380Y-112821428D01*
X141595238Y-112916666D01*
X141690476Y-113011904D01*
X141738095Y-113107142D01*
X142452380Y-111583333D02*
X142452380Y-112154761D01*
X142452380Y-111869047D02*
X141452380Y-111869047D01*
X141595238Y-111964285D01*
X141690476Y-112059523D01*
X141738095Y-112154761D01*
X141452380Y-110964285D02*
X141452380Y-110869047D01*
X141500000Y-110773809D01*
X141547619Y-110726190D01*
X141642857Y-110678571D01*
X141833333Y-110630952D01*
X142071428Y-110630952D01*
X142261904Y-110678571D01*
X142357142Y-110726190D01*
X142404761Y-110773809D01*
X142452380Y-110869047D01*
X142452380Y-110964285D01*
X142404761Y-111059523D01*
X142357142Y-111107142D01*
X142261904Y-111154761D01*
X142071428Y-111202380D01*
X141833333Y-111202380D01*
X141642857Y-111154761D01*
X141547619Y-111107142D01*
X141500000Y-111059523D01*
X141452380Y-110964285D01*
%TO.C,JP111*%
X121452380Y-134535714D02*
X122166666Y-134535714D01*
X122309523Y-134583333D01*
X122404761Y-134678571D01*
X122452380Y-134821428D01*
X122452380Y-134916666D01*
X122452380Y-134059523D02*
X121452380Y-134059523D01*
X121452380Y-133678571D01*
X121500000Y-133583333D01*
X121547619Y-133535714D01*
X121642857Y-133488095D01*
X121785714Y-133488095D01*
X121880952Y-133535714D01*
X121928571Y-133583333D01*
X121976190Y-133678571D01*
X121976190Y-134059523D01*
X122452380Y-132535714D02*
X122452380Y-133107142D01*
X122452380Y-132821428D02*
X121452380Y-132821428D01*
X121595238Y-132916666D01*
X121690476Y-133011904D01*
X121738095Y-133107142D01*
X122452380Y-131583333D02*
X122452380Y-132154761D01*
X122452380Y-131869047D02*
X121452380Y-131869047D01*
X121595238Y-131964285D01*
X121690476Y-132059523D01*
X121738095Y-132154761D01*
X122452380Y-130630952D02*
X122452380Y-131202380D01*
X122452380Y-130916666D02*
X121452380Y-130916666D01*
X121595238Y-131011904D01*
X121690476Y-131107142D01*
X121738095Y-131202380D01*
%TO.C,JP112*%
X141452380Y-134535714D02*
X142166666Y-134535714D01*
X142309523Y-134583333D01*
X142404761Y-134678571D01*
X142452380Y-134821428D01*
X142452380Y-134916666D01*
X142452380Y-134059523D02*
X141452380Y-134059523D01*
X141452380Y-133678571D01*
X141500000Y-133583333D01*
X141547619Y-133535714D01*
X141642857Y-133488095D01*
X141785714Y-133488095D01*
X141880952Y-133535714D01*
X141928571Y-133583333D01*
X141976190Y-133678571D01*
X141976190Y-134059523D01*
X142452380Y-132535714D02*
X142452380Y-133107142D01*
X142452380Y-132821428D02*
X141452380Y-132821428D01*
X141595238Y-132916666D01*
X141690476Y-133011904D01*
X141738095Y-133107142D01*
X142452380Y-131583333D02*
X142452380Y-132154761D01*
X142452380Y-131869047D02*
X141452380Y-131869047D01*
X141595238Y-131964285D01*
X141690476Y-132059523D01*
X141738095Y-132154761D01*
X141547619Y-131202380D02*
X141500000Y-131154761D01*
X141452380Y-131059523D01*
X141452380Y-130821428D01*
X141500000Y-130726190D01*
X141547619Y-130678571D01*
X141642857Y-130630952D01*
X141738095Y-130630952D01*
X141880952Y-130678571D01*
X142452380Y-131250000D01*
X142452380Y-130630952D01*
%TO.C,R101*%
X109952380Y-114119047D02*
X109476190Y-114452380D01*
X109952380Y-114690476D02*
X108952380Y-114690476D01*
X108952380Y-114309523D01*
X109000000Y-114214285D01*
X109047619Y-114166666D01*
X109142857Y-114119047D01*
X109285714Y-114119047D01*
X109380952Y-114166666D01*
X109428571Y-114214285D01*
X109476190Y-114309523D01*
X109476190Y-114690476D01*
X109952380Y-113166666D02*
X109952380Y-113738095D01*
X109952380Y-113452380D02*
X108952380Y-113452380D01*
X109095238Y-113547619D01*
X109190476Y-113642857D01*
X109238095Y-113738095D01*
X108952380Y-112547619D02*
X108952380Y-112452380D01*
X109000000Y-112357142D01*
X109047619Y-112309523D01*
X109142857Y-112261904D01*
X109333333Y-112214285D01*
X109571428Y-112214285D01*
X109761904Y-112261904D01*
X109857142Y-112309523D01*
X109904761Y-112357142D01*
X109952380Y-112452380D01*
X109952380Y-112547619D01*
X109904761Y-112642857D01*
X109857142Y-112690476D01*
X109761904Y-112738095D01*
X109571428Y-112785714D01*
X109333333Y-112785714D01*
X109142857Y-112738095D01*
X109047619Y-112690476D01*
X109000000Y-112642857D01*
X108952380Y-112547619D01*
X109952380Y-111261904D02*
X109952380Y-111833333D01*
X109952380Y-111547619D02*
X108952380Y-111547619D01*
X109095238Y-111642857D01*
X109190476Y-111738095D01*
X109238095Y-111833333D01*
%TO.C,R102*%
X129952380Y-114119047D02*
X129476190Y-114452380D01*
X129952380Y-114690476D02*
X128952380Y-114690476D01*
X128952380Y-114309523D01*
X129000000Y-114214285D01*
X129047619Y-114166666D01*
X129142857Y-114119047D01*
X129285714Y-114119047D01*
X129380952Y-114166666D01*
X129428571Y-114214285D01*
X129476190Y-114309523D01*
X129476190Y-114690476D01*
X129952380Y-113166666D02*
X129952380Y-113738095D01*
X129952380Y-113452380D02*
X128952380Y-113452380D01*
X129095238Y-113547619D01*
X129190476Y-113642857D01*
X129238095Y-113738095D01*
X128952380Y-112547619D02*
X128952380Y-112452380D01*
X129000000Y-112357142D01*
X129047619Y-112309523D01*
X129142857Y-112261904D01*
X129333333Y-112214285D01*
X129571428Y-112214285D01*
X129761904Y-112261904D01*
X129857142Y-112309523D01*
X129904761Y-112357142D01*
X129952380Y-112452380D01*
X129952380Y-112547619D01*
X129904761Y-112642857D01*
X129857142Y-112690476D01*
X129761904Y-112738095D01*
X129571428Y-112785714D01*
X129333333Y-112785714D01*
X129142857Y-112738095D01*
X129047619Y-112690476D01*
X129000000Y-112642857D01*
X128952380Y-112547619D01*
X129047619Y-111833333D02*
X129000000Y-111785714D01*
X128952380Y-111690476D01*
X128952380Y-111452380D01*
X129000000Y-111357142D01*
X129047619Y-111309523D01*
X129142857Y-111261904D01*
X129238095Y-111261904D01*
X129380952Y-111309523D01*
X129952380Y-111880952D01*
X129952380Y-111261904D01*
%TO.C,R103*%
X109952380Y-134119047D02*
X109476190Y-134452380D01*
X109952380Y-134690476D02*
X108952380Y-134690476D01*
X108952380Y-134309523D01*
X109000000Y-134214285D01*
X109047619Y-134166666D01*
X109142857Y-134119047D01*
X109285714Y-134119047D01*
X109380952Y-134166666D01*
X109428571Y-134214285D01*
X109476190Y-134309523D01*
X109476190Y-134690476D01*
X109952380Y-133166666D02*
X109952380Y-133738095D01*
X109952380Y-133452380D02*
X108952380Y-133452380D01*
X109095238Y-133547619D01*
X109190476Y-133642857D01*
X109238095Y-133738095D01*
X108952380Y-132547619D02*
X108952380Y-132452380D01*
X109000000Y-132357142D01*
X109047619Y-132309523D01*
X109142857Y-132261904D01*
X109333333Y-132214285D01*
X109571428Y-132214285D01*
X109761904Y-132261904D01*
X109857142Y-132309523D01*
X109904761Y-132357142D01*
X109952380Y-132452380D01*
X109952380Y-132547619D01*
X109904761Y-132642857D01*
X109857142Y-132690476D01*
X109761904Y-132738095D01*
X109571428Y-132785714D01*
X109333333Y-132785714D01*
X109142857Y-132738095D01*
X109047619Y-132690476D01*
X109000000Y-132642857D01*
X108952380Y-132547619D01*
X108952380Y-131880952D02*
X108952380Y-131261904D01*
X109333333Y-131595238D01*
X109333333Y-131452380D01*
X109380952Y-131357142D01*
X109428571Y-131309523D01*
X109523809Y-131261904D01*
X109761904Y-131261904D01*
X109857142Y-131309523D01*
X109904761Y-131357142D01*
X109952380Y-131452380D01*
X109952380Y-131738095D01*
X109904761Y-131833333D01*
X109857142Y-131880952D01*
%TO.C,R104*%
X129952380Y-134119047D02*
X129476190Y-134452380D01*
X129952380Y-134690476D02*
X128952380Y-134690476D01*
X128952380Y-134309523D01*
X129000000Y-134214285D01*
X129047619Y-134166666D01*
X129142857Y-134119047D01*
X129285714Y-134119047D01*
X129380952Y-134166666D01*
X129428571Y-134214285D01*
X129476190Y-134309523D01*
X129476190Y-134690476D01*
X129952380Y-133166666D02*
X129952380Y-133738095D01*
X129952380Y-133452380D02*
X128952380Y-133452380D01*
X129095238Y-133547619D01*
X129190476Y-133642857D01*
X129238095Y-133738095D01*
X128952380Y-132547619D02*
X128952380Y-132452380D01*
X129000000Y-132357142D01*
X129047619Y-132309523D01*
X129142857Y-132261904D01*
X129333333Y-132214285D01*
X129571428Y-132214285D01*
X129761904Y-132261904D01*
X129857142Y-132309523D01*
X129904761Y-132357142D01*
X129952380Y-132452380D01*
X129952380Y-132547619D01*
X129904761Y-132642857D01*
X129857142Y-132690476D01*
X129761904Y-132738095D01*
X129571428Y-132785714D01*
X129333333Y-132785714D01*
X129142857Y-132738095D01*
X129047619Y-132690476D01*
X129000000Y-132642857D01*
X128952380Y-132547619D01*
X129285714Y-131357142D02*
X129952380Y-131357142D01*
X128904761Y-131595238D02*
X129619047Y-131833333D01*
X129619047Y-131214285D01*
%TO.C,H101*%
X103285714Y-141702380D02*
X103285714Y-140702380D01*
X103285714Y-141178571D02*
X103857142Y-141178571D01*
X103857142Y-141702380D02*
X103857142Y-140702380D01*
X104857142Y-141702380D02*
X104285714Y-141702380D01*
X104571428Y-141702380D02*
X104571428Y-140702380D01*
X104476190Y-140845238D01*
X104380952Y-140940476D01*
X104285714Y-140988095D01*
X105476190Y-140702380D02*
X105571428Y-140702380D01*
X105666666Y-140750000D01*
X105714285Y-140797619D01*
X105761904Y-140892857D01*
X105809523Y-141083333D01*
X105809523Y-141321428D01*
X105761904Y-141511904D01*
X105714285Y-141607142D01*
X105666666Y-141654761D01*
X105571428Y-141702380D01*
X105476190Y-141702380D01*
X105380952Y-141654761D01*
X105333333Y-141607142D01*
X105285714Y-141511904D01*
X105238095Y-141321428D01*
X105238095Y-141083333D01*
X105285714Y-140892857D01*
X105333333Y-140797619D01*
X105380952Y-140750000D01*
X105476190Y-140702380D01*
X106761904Y-141702380D02*
X106190476Y-141702380D01*
X106476190Y-141702380D02*
X106476190Y-140702380D01*
X106380952Y-140845238D01*
X106285714Y-140940476D01*
X106190476Y-140988095D01*
%TO.C,H102*%
X143285714Y-141702380D02*
X143285714Y-140702380D01*
X143285714Y-141178571D02*
X143857142Y-141178571D01*
X143857142Y-141702380D02*
X143857142Y-140702380D01*
X144857142Y-141702380D02*
X144285714Y-141702380D01*
X144571428Y-141702380D02*
X144571428Y-140702380D01*
X144476190Y-140845238D01*
X144380952Y-140940476D01*
X144285714Y-140988095D01*
X145476190Y-140702380D02*
X145571428Y-140702380D01*
X145666666Y-140750000D01*
X145714285Y-140797619D01*
X145761904Y-140892857D01*
X145809523Y-141083333D01*
X145809523Y-141321428D01*
X145761904Y-141511904D01*
X145714285Y-141607142D01*
X145666666Y-141654761D01*
X145571428Y-141702380D01*
X145476190Y-141702380D01*
X145380952Y-141654761D01*
X145333333Y-141607142D01*
X145285714Y-141511904D01*
X145238095Y-141321428D01*
X145238095Y-141083333D01*
X145285714Y-140892857D01*
X145333333Y-140797619D01*
X145380952Y-140750000D01*
X145476190Y-140702380D01*
X146190476Y-140797619D02*
X146238095Y-140750000D01*
X146333333Y-140702380D01*
X146571428Y-140702380D01*
X146666666Y-140750000D01*
X146714285Y-140797619D01*
X146761904Y-140892857D01*
X146761904Y-140988095D01*
X146714285Y-141130952D01*
X146142857Y-141702380D01*
X146761904Y-141702380D01*
%TO.C,H103*%
X143285714Y-101702380D02*
X143285714Y-100702380D01*
X143285714Y-101178571D02*
X143857142Y-101178571D01*
X143857142Y-101702380D02*
X143857142Y-100702380D01*
X144857142Y-101702380D02*
X144285714Y-101702380D01*
X144571428Y-101702380D02*
X144571428Y-100702380D01*
X144476190Y-100845238D01*
X144380952Y-100940476D01*
X144285714Y-100988095D01*
X145476190Y-100702380D02*
X145571428Y-100702380D01*
X145666666Y-100750000D01*
X145714285Y-100797619D01*
X145761904Y-100892857D01*
X145809523Y-101083333D01*
X145809523Y-101321428D01*
X145761904Y-101511904D01*
X145714285Y-101607142D01*
X145666666Y-101654761D01*
X145571428Y-101702380D01*
X145476190Y-101702380D01*
X145380952Y-101654761D01*
X145333333Y-101607142D01*
X145285714Y-101511904D01*
X145238095Y-101321428D01*
X145238095Y-101083333D01*
X145285714Y-100892857D01*
X145333333Y-100797619D01*
X145380952Y-100750000D01*
X145476190Y-100702380D01*
X146142857Y-100702380D02*
X146761904Y-100702380D01*
X146428571Y-101083333D01*
X146571428Y-101083333D01*
X146666666Y-101130952D01*
X146714285Y-101178571D01*
X146761904Y-101273809D01*
X146761904Y-101511904D01*
X146714285Y-101607142D01*
X146666666Y-101654761D01*
X146571428Y-101702380D01*
X146285714Y-101702380D01*
X146190476Y-101654761D01*
X146142857Y-101607142D01*
%TO.C,H104*%
X103285714Y-101702380D02*
X103285714Y-100702380D01*
X103285714Y-101178571D02*
X103857142Y-101178571D01*
X103857142Y-101702380D02*
X103857142Y-100702380D01*
X104857142Y-101702380D02*
X104285714Y-101702380D01*
X104571428Y-101702380D02*
X104571428Y-100702380D01*
X104476190Y-100845238D01*
X104380952Y-100940476D01*
X104285714Y-100988095D01*
X105476190Y-100702380D02*
X105571428Y-100702380D01*
X105666666Y-100750000D01*
X105714285Y-100797619D01*
X105761904Y-100892857D01*
X105809523Y-101083333D01*
X105809523Y-101321428D01*
X105761904Y-101511904D01*
X105714285Y-101607142D01*
X105666666Y-101654761D01*
X105571428Y-101702380D01*
X105476190Y-101702380D01*
X105380952Y-101654761D01*
X105333333Y-101607142D01*
X105285714Y-101511904D01*
X105238095Y-101321428D01*
X105238095Y-101083333D01*
X105285714Y-100892857D01*
X105333333Y-100797619D01*
X105380952Y-100750000D01*
X105476190Y-100702380D01*
X106666666Y-101035714D02*
X106666666Y-101702380D01*
X106428571Y-100654761D02*
X106190476Y-101369047D01*
X106809523Y-101369047D01*
%TD*%
M02*
